<svg width="56" height="67" viewBox="0 0 56 67" fill="none" xmlns="http://www.w3.org/2000/svg">
<path d="M55.1869 18.5106C53.8687 10.6016 48.1748 3.42641 40.5647 1.04826C35.6589 -0.487338 30.4406 -0.106835 25.3718 0.735708C18.7265 1.85004 11.3339 4.37767 8.64321 10.5473C7.21632 13.8223 7.06684 17.505 7.06684 21.0519C7.06684 29.1783 0.0547086 32.4534 0.000350992 34.0297C-0.0540066 37.0874 6.2243 37.5086 5.63995 40.5662C5.38176 41.9388 3.62872 43.0939 4.26742 44.3169C4.57998 44.9013 5.27304 45.1051 5.69431 45.5807C6.90377 46.9533 4.96048 48.9509 5.05561 50.7991C5.16432 53.1229 8.16758 54.0198 10.4914 53.7072C12.8152 53.3946 15.3428 52.5929 17.2453 53.9654C20.1127 55.7184 20.3029 63.6275 19.9904 66.5764H34.5582C34.7213 58.0286 34.5038 42.6726 33.6069 34.1249C33.24 30.5373 34.8164 21.8672 16.8784 23.5251C14.6633 22.7777 14.772 21.2013 14.7177 20.5762C14.4051 16.3499 16.5658 12.1916 19.8409 9.50087C30.5765 0.640582 44.0164 7.27221 47.6448 15.5753C50.254 21.5275 50.3355 28.825 46.1636 33.8259C44.0572 36.2584 41.2578 37.9978 38.4584 39.5742C37.6158 40.0498 37.0858 40.9467 37.0858 41.898V66.4269H43.6767C42.7254 61.6298 43.1467 56.6153 43.6223 51.7096C43.8126 45.1866 47.2643 42.2106 48.5281 40.7293C53.76 34.6549 56.5051 26.3653 55.1869 18.5106Z" fill="#576993"/>
<path d="M55.1869 18.5106C53.8687 10.6016 48.1748 3.42641 40.5647 1.04826C35.6589 -0.487338 30.4406 -0.106835 25.3718 0.735708C18.7265 1.85004 11.3339 4.37767 8.64321 10.5473C7.21632 13.8223 7.06684 17.505 7.06684 21.0519C7.06684 29.1783 0.0547086 32.4534 0.000350992 34.0297C-0.0540066 37.0874 6.2243 37.5086 5.63995 40.5662C5.38176 41.9388 3.62872 43.0939 4.26742 44.3169C4.57998 44.9013 5.27304 45.1051 5.69431 45.5807C6.90377 46.9533 4.96048 48.9509 5.05561 50.7991C5.16432 53.1229 8.16758 54.0198 10.4914 53.7072C12.8152 53.3946 15.3428 52.5929 17.2453 53.9654C20.1127 55.7184 20.3029 63.6275 19.9904 66.5764H34.5582C34.7213 58.0286 34.5038 42.6726 33.6069 34.1249C33.24 30.5373 34.8164 21.8672 16.8784 23.5251C14.6633 22.7777 14.772 21.2013 14.7177 20.5762C14.4051 16.3499 16.5658 12.1916 19.8409 9.50087C30.5765 0.640582 44.0164 7.27221 47.6448 15.5753C50.254 21.5275 50.3355 28.825 46.1636 33.8259C44.0572 36.2584 41.2578 37.9978 38.4584 39.5742C37.6158 40.0498 37.0858 40.9467 37.0858 41.898V66.4269H43.6767C42.7254 61.6298 43.1467 56.6153 43.6223 51.7096C43.8126 45.1866 47.2643 42.2106 48.5281 40.7293C53.76 34.6549 56.5051 26.3653 55.1869 18.5106Z" fill="url(#paint0_linear_3526_5007)"/>
<path d="M23.8372 18.035C24.4487 17.8175 24.8021 17.206 24.6662 16.5266C24.3944 15.3715 24.9244 13.4689 25.3728 12.2187C25.4 11.4985 24.8836 10.8326 24.177 10.8054C23.4295 10.7375 22.7908 11.2946 22.7093 12.0421C22.3288 13.4146 21.758 15.6161 22.0706 17.1245C22.2337 17.8991 23.1034 18.3475 23.8372 18.035Z" fill="#576993"/>
<path d="M23.8372 18.035C24.4487 17.8175 24.8021 17.206 24.6662 16.5266C24.3944 15.3715 24.9244 13.4689 25.3728 12.2187C25.4 11.4985 24.8836 10.8326 24.177 10.8054C23.4295 10.7375 22.7908 11.2946 22.7093 12.0421C22.3288 13.4146 21.758 15.6161 22.0706 17.1245C22.2337 17.8991 23.1034 18.3475 23.8372 18.035Z" fill="url(#paint1_linear_3526_5007)"/>
<path d="M33.7564 15.236C33.1177 15.073 32.4926 15.3991 32.2208 16.0242C31.7995 17.1385 31.0657 18.1306 30.3183 19.0818C29.897 19.6662 29.9513 20.5087 30.5357 20.93C31.12 21.4056 31.9626 21.2969 32.4382 20.7126C33.2808 19.5982 34.1233 18.3888 34.7076 16.9619C35.0202 16.2416 34.5446 15.3991 33.7564 15.236Z" fill="#576993"/>
<path d="M33.7564 15.236C33.1177 15.073 32.4926 15.3991 32.2208 16.0242C31.7995 17.1385 31.0657 18.1306 30.3183 19.0818C29.897 19.6662 29.9513 20.5087 30.5357 20.93C31.12 21.4056 31.9626 21.2969 32.4382 20.7126C33.2808 19.5982 34.1233 18.3888 34.7076 16.9619C35.0202 16.2416 34.5446 15.3991 33.7564 15.236Z" fill="url(#paint2_linear_3526_5007)"/>
<path d="M30.2118 8.25083C29.5867 8.42749 29.1926 9.01184 29.2741 9.69131C29.4508 10.86 29.3149 12.0966 29.1382 13.2925C29.0567 13.9991 29.5187 14.7194 30.2389 14.7873C30.9728 14.9096 31.6658 14.4068 31.7881 13.6594C31.9784 12.2733 32.1007 10.8056 31.8969 9.28363C31.8017 8.49544 30.9728 8.00622 30.2118 8.25083Z" fill="#576993"/>
<path d="M30.2118 8.25083C29.5867 8.42749 29.1926 9.01184 29.2741 9.69131C29.4508 10.86 29.3149 12.0966 29.1382 13.2925C29.0567 13.9991 29.5187 14.7194 30.2389 14.7873C30.9728 14.9096 31.6658 14.4068 31.7881 13.6594C31.9784 12.2733 32.1007 10.8056 31.8969 9.28363C31.8017 8.49544 30.9728 8.00622 30.2118 8.25083Z" fill="url(#paint3_linear_3526_5007)"/>
<path d="M39.017 12.8983C38.4055 13.1293 38.0657 13.7408 38.2016 14.4203C38.487 15.5754 38.4462 16.812 38.3783 18.0215C38.3647 18.7417 38.8811 19.4076 39.6013 19.4212C40.3487 19.4892 40.9874 18.9184 41.0418 18.171C41.1097 16.7849 41.1098 15.3036 40.7836 13.7952C40.6341 13.007 39.7644 12.5722 39.017 12.8983Z" fill="#576993"/>
<path d="M39.017 12.8983C38.4055 13.1293 38.0657 13.7408 38.2016 14.4203C38.487 15.5754 38.4462 16.812 38.3783 18.0215C38.3647 18.7417 38.8811 19.4076 39.6013 19.4212C40.3487 19.4892 40.9874 18.9184 41.0418 18.171C41.1097 16.7849 41.1098 15.3036 40.7836 13.7952C40.6341 13.007 39.7644 12.5722 39.017 12.8983Z" fill="url(#paint4_linear_3526_5007)"/>
<path d="M42.7796 26.3108C43.4183 26.8408 44.356 26.6777 44.7909 25.9983C45.5926 25.0334 45.6878 23.2532 45.6878 22.5737C45.6334 21.7855 44.9539 21.2012 44.1522 21.3099C43.4727 21.4186 42.9427 21.9894 42.9971 22.7368C42.9971 23.1581 43.0106 24.1093 42.5214 24.585C42.1545 25.1014 42.304 25.8352 42.7796 26.3108Z" fill="#576993"/>
<path d="M42.7796 26.3108C43.4183 26.8408 44.356 26.6777 44.7909 25.9983C45.5926 25.0334 45.6878 23.2532 45.6878 22.5737C45.6334 21.7855 44.9539 21.2012 44.1522 21.3099C43.4727 21.4186 42.9427 21.9894 42.9971 22.7368C42.9971 23.1581 43.0106 24.1093 42.5214 24.585C42.1545 25.1014 42.304 25.8352 42.7796 26.3108Z" fill="url(#paint5_linear_3526_5007)"/>
<path d="M38.5135 29.1653C39.2473 29.1653 39.8317 28.5809 39.886 27.8471C39.9404 26.6376 39.9947 25.4146 40.1034 24.2051C40.1578 23.4713 39.6278 22.8326 38.894 22.7782C38.1602 22.7239 37.4671 23.2539 37.4127 23.9877C37.304 25.2515 37.2497 26.5153 37.1953 27.7927C37.1953 28.5266 37.7661 29.1653 38.5135 29.1653Z" fill="#576993"/>
<path d="M38.5135 29.1653C39.2473 29.1653 39.8317 28.5809 39.886 27.8471C39.9404 26.6376 39.9947 25.4146 40.1034 24.2051C40.1578 23.4713 39.6278 22.8326 38.894 22.7782C38.1602 22.7239 37.4671 23.2539 37.4127 23.9877C37.304 25.2515 37.2497 26.5153 37.1953 27.7927C37.1953 28.5266 37.7661 29.1653 38.5135 29.1653Z" fill="url(#paint6_linear_3526_5007)"/>
<defs>
<linearGradient id="paint0_linear_3526_5007" x1="-6.93934" y1="25.0868" x2="65.0046" y2="26.676" gradientUnits="userSpaceOnUse">
<stop offset="0.411458" stop-color="#6396F9"/>
<stop offset="1" stop-color="#00D1FF"/>
</linearGradient>
<linearGradient id="paint1_linear_3526_5007" x1="21.5563" y1="13.5639" x2="25.9554" y2="13.6179" gradientUnits="userSpaceOnUse">
<stop offset="0.411458" stop-color="#6396F9"/>
<stop offset="1" stop-color="#00D1FF"/>
</linearGradient>
<linearGradient id="paint2_linear_3526_5007" x1="29.4478" y1="17.4679" x2="35.619" y2="17.597" gradientUnits="userSpaceOnUse">
<stop offset="0.411458" stop-color="#6396F9"/>
<stop offset="1" stop-color="#00D1FF"/>
</linearGradient>
<linearGradient id="paint3_linear_3526_5007" x1="28.7697" y1="10.6813" x2="32.4948" y2="10.7241" gradientUnits="userSpaceOnUse">
<stop offset="0.411458" stop-color="#6396F9"/>
<stop offset="1" stop-color="#00D1FF"/>
</linearGradient>
<linearGradient id="paint4_linear_3526_5007" x1="37.8086" y1="15.2902" x2="41.5758" y2="15.3339" gradientUnits="userSpaceOnUse">
<stop offset="0.411458" stop-color="#6396F9"/>
<stop offset="1" stop-color="#00D1FF"/>
</linearGradient>
<linearGradient id="paint5_linear_3526_5007" x1="41.895" y1="23.3047" x2="46.265" y2="23.378" gradientUnits="userSpaceOnUse">
<stop offset="0.411458" stop-color="#6396F9"/>
<stop offset="1" stop-color="#00D1FF"/>
</linearGradient>
<linearGradient id="paint6_linear_3526_5007" x1="36.8313" y1="25.1826" x2="40.6063" y2="25.2281" gradientUnits="userSpaceOnUse">
<stop offset="0.411458" stop-color="#6396F9"/>
<stop offset="1" stop-color="#00D1FF"/>
</linearGradient>
</defs>
</svg>
