<svg width="51" height="54" viewBox="0 0 51 54" fill="none" xmlns="http://www.w3.org/2000/svg">
<path fill-rule="evenodd" clip-rule="evenodd" d="M20.3414 6.60904L15.8596 5.45247C13.613 4.87204 11.3005 6.15819 10.6976 8.32091L9.2758 13.4275H4.63666C2.30983 13.4275 0.421875 15.2454 0.421875 17.4847V49.9428C0.421875 52.1826 2.3104 54 4.63666 54H27.1161C29.4429 54 31.3309 52.1821 31.3309 49.9428V49.1557L32.6642 44.3682L49.8435 16.927C49.8479 16.9201 49.8535 16.9121 49.8574 16.9056C51.0205 14.9663 50.328 12.4833 48.3149 11.3631L28.8458 0.543728C26.8311 -0.575906 24.2517 0.0891303 23.088 2.02853L20.3412 6.60768L20.3414 6.60904ZM16.5984 24.5385C16.1545 24.2804 15.5983 24.2804 15.1543 24.5385L8.12939 28.5957C7.70496 28.8393 7.44631 29.28 7.44631 29.7549V37.8697C7.44631 38.3446 7.70496 38.7853 8.12939 39.0289L15.1543 43.0861C15.5982 43.3442 16.1545 43.3442 16.5984 43.0861L23.6233 39.0289C24.0478 38.7853 24.3064 38.3446 24.3064 37.8697V29.7549C24.3064 29.28 24.0478 28.8393 23.6233 28.5957L16.5984 24.5385ZM15.8764 27.2747L21.4962 30.5207V37.104L15.8764 40.3499L10.2565 37.104V30.5207L15.8764 27.2747ZM20.6351 9.48503L15.1332 8.06602C14.3845 7.87272 13.6129 8.30108 13.4121 9.02234L12.1856 13.4286H27.1163C29.4432 13.4286 31.3311 15.2465 31.3311 17.4858V38.7051L37.8404 15.3228C38.0412 14.6004 37.5962 13.8593 36.847 13.6661L20.6802 9.49649C20.6663 9.4922 20.6507 9.48845 20.6351 9.48417L20.6351 9.48503ZM35.2896 34.9331C40.381 26.7996 47.4299 15.541 47.4355 15.5328C47.8048 14.8903 47.5717 14.0764 46.9087 13.707L27.4396 2.88758C26.7682 2.51436 25.9082 2.73604 25.5205 3.38234L23.1502 7.33286L37.5726 11.0532C39.8204 11.6321 41.1554 13.8596 40.5542 16.0222L35.2896 34.9331Z" fill="#576993"/>
<path fill-rule="evenodd" clip-rule="evenodd" d="M20.3414 6.60904L15.8596 5.45247C13.613 4.87204 11.3005 6.15819 10.6976 8.32091L9.2758 13.4275H4.63666C2.30983 13.4275 0.421875 15.2454 0.421875 17.4847V49.9428C0.421875 52.1826 2.3104 54 4.63666 54H27.1161C29.4429 54 31.3309 52.1821 31.3309 49.9428V49.1557L32.6642 44.3682L49.8435 16.927C49.8479 16.9201 49.8535 16.9121 49.8574 16.9056C51.0205 14.9663 50.328 12.4833 48.3149 11.3631L28.8458 0.543728C26.8311 -0.575906 24.2517 0.0891303 23.088 2.02853L20.3412 6.60768L20.3414 6.60904ZM16.5984 24.5385C16.1545 24.2804 15.5983 24.2804 15.1543 24.5385L8.12939 28.5957C7.70496 28.8393 7.44631 29.28 7.44631 29.7549V37.8697C7.44631 38.3446 7.70496 38.7853 8.12939 39.0289L15.1543 43.0861C15.5982 43.3442 16.1545 43.3442 16.5984 43.0861L23.6233 39.0289C24.0478 38.7853 24.3064 38.3446 24.3064 37.8697V29.7549C24.3064 29.28 24.0478 28.8393 23.6233 28.5957L16.5984 24.5385ZM15.8764 27.2747L21.4962 30.5207V37.104L15.8764 40.3499L10.2565 37.104V30.5207L15.8764 27.2747ZM20.6351 9.48503L15.1332 8.06602C14.3845 7.87272 13.6129 8.30108 13.4121 9.02234L12.1856 13.4286H27.1163C29.4432 13.4286 31.3311 15.2465 31.3311 17.4858V38.7051L37.8404 15.3228C38.0412 14.6004 37.5962 13.8593 36.847 13.6661L20.6802 9.49649C20.6663 9.4922 20.6507 9.48845 20.6351 9.48417L20.6351 9.48503ZM35.2896 34.9331C40.381 26.7996 47.4299 15.541 47.4355 15.5328C47.8048 14.8903 47.5717 14.0764 46.9087 13.707L27.4396 2.88758C26.7682 2.51436 25.9082 2.73604 25.5205 3.38234L23.1502 7.33286L37.5726 11.0532C39.8204 11.6321 41.1554 13.8596 40.5542 16.0222L35.2896 34.9331Z" fill="url(#paint0_linear_2185_1157)"/>
<defs>
<linearGradient id="paint0_linear_2185_1157" x1="-5.82813" y1="20.3478" x2="58.9617" y2="21.9371" gradientUnits="userSpaceOnUse">
<stop offset="0.411458" stop-color="#6396F9"/>
<stop offset="1" stop-color="#00D1FF"/>
</linearGradient>
</defs>
</svg>
