<svg width="62" height="44" viewBox="0 0 62 44" fill="none" xmlns="http://www.w3.org/2000/svg">
<path d="M41.8088 1.36512L58.7429 18.3542C63.0857 22.7114 63.0857 29.7756 58.7429 34.1328C55.9134 36.9715 51.9385 37.9608 48.3107 37.1006V37.7402C48.3107 41.1973 45.5171 44 42.0713 44H34.8767V41.8598C34.8767 37.3377 31.2245 33.6331 26.699 33.6331H22.5931C21.5231 33.6331 20.6556 34.5034 20.6556 35.5769C20.6556 36.6504 21.5231 37.5207 22.5931 37.5207H26.699C29.0664 37.5207 31.0018 39.4666 31.0018 41.8598V44H13.9473C10.5013 44 7.74993 41.1973 7.74993 37.7402V29.5761C7.74993 28.9706 7.78772 28.3743 7.86109 27.7893C7.71745 27.7976 7.57271 27.8018 7.42701 27.8018C3.32518 27.8018 0 24.4657 0 20.3506C0 16.2355 3.32518 12.8994 7.42701 12.8994C10.567 12.8994 13.2519 14.8544 14.3384 17.6171C16.4846 16.2697 19.0226 15.4911 21.7471 15.4911H34.2717C36.155 15.4911 37.9514 15.863 39.5921 16.5377C40.1033 15.6749 40.7256 14.9435 41.4554 14.1906L35.2389 7.95642C33.4247 6.13629 33.4247 3.18526 35.2389 1.36512C37.0532 -0.45504 39.9945 -0.45504 41.8088 1.36512Z" fill="#576993"/>
<path d="M41.8088 1.36512L58.7429 18.3542C63.0857 22.7114 63.0857 29.7756 58.7429 34.1328C55.9134 36.9715 51.9385 37.9608 48.3107 37.1006V37.7402C48.3107 41.1973 45.5171 44 42.0713 44H34.8767V41.8598C34.8767 37.3377 31.2245 33.6331 26.699 33.6331H22.5931C21.5231 33.6331 20.6556 34.5034 20.6556 35.5769C20.6556 36.6504 21.5231 37.5207 22.5931 37.5207H26.699C29.0664 37.5207 31.0018 39.4666 31.0018 41.8598V44H13.9473C10.5013 44 7.74993 41.1973 7.74993 37.7402V29.5761C7.74993 28.9706 7.78772 28.3743 7.86109 27.7893C7.71745 27.7976 7.57271 27.8018 7.42701 27.8018C3.32518 27.8018 0 24.4657 0 20.3506C0 16.2355 3.32518 12.8994 7.42701 12.8994C10.567 12.8994 13.2519 14.8544 14.3384 17.6171C16.4846 16.2697 19.0226 15.4911 21.7471 15.4911H34.2717C36.155 15.4911 37.9514 15.863 39.5921 16.5377C40.1033 15.6749 40.7256 14.9435 41.4554 14.1906L35.2389 7.95642C33.4247 6.13629 33.4247 3.18526 35.2389 1.36512C37.0532 -0.45504 39.9945 -0.45504 41.8088 1.36512Z" fill="url(#paint0_linear_3526_4988)"/>
<defs>
<linearGradient id="paint0_linear_3526_4988" x1="-7.75" y1="16.5797" x2="72.5258" y2="19.5764" gradientUnits="userSpaceOnUse">
<stop offset="0.411458" stop-color="#6396F9"/>
<stop offset="1" stop-color="#00D1FF"/>
</linearGradient>
</defs>
</svg>
