<svg width="60" height="60" viewBox="0 0 60 60" fill="none" xmlns="http://www.w3.org/2000/svg">
<rect width="60" height="60" rx="10" fill="url(#paint0_linear_3842_8726)"/>
<path d="M32.0987 33.0918H13.5972C12.2993 33.0918 11.25 34.1411 11.25 35.439C11.25 36.7369 12.2993 37.7862 13.5972 37.7862H34.9153C34.9153 37.7862 36.0199 36.6816 34.8325 34.8867C33.6174 33.0918 32.0987 33.0918 32.0987 33.0918Z" fill="white"/>
<path d="M31.1588 13.3482L19.6713 33.2304C19.0362 34.3626 19.3952 35.7985 20.5274 36.4336C21.6595 37.0688 23.0955 36.7098 23.7306 35.5776L35.2181 15.6954C35.8532 14.5632 35.4942 13.1273 34.362 12.4922C33.2299 11.8294 31.7939 12.216 31.1588 13.3482Z" fill="white"/>
<path d="M45.2143 41.7629L33.423 21.3008C33.423 21.3008 31.7109 22.6263 31.7109 25.2496C31.7109 27.8729 32.7879 29.6403 32.7879 29.6403L41.155 44.1377C41.7901 45.2699 43.226 45.6564 44.3582 44.9937C45.4628 44.331 45.8494 42.895 45.2143 41.7629Z" fill="white"/>
<path d="M46.4035 33.0918H39.8589C38.5611 33.0918 37.5117 34.1411 37.5117 35.439C37.5117 36.7369 38.5611 37.7862 39.8589 37.7862H46.4035C47.7013 37.7862 48.7507 36.7369 48.7507 35.439C48.7507 34.1687 47.7013 33.0918 46.4035 33.0918Z" fill="white"/>
<path d="M31.2997 17.6556L28.8144 13.3202C28.1793 12.2156 26.7157 11.829 25.6112 12.4641C24.5066 13.0993 24.12 14.5628 24.7551 15.6674L27.2404 20.0028C27.8755 21.1074 29.3391 21.494 30.4437 20.8588C31.5482 20.2237 31.9348 18.7878 31.2997 17.6556Z" fill="white"/>
<path d="M14.7573 41.7353L16.2484 39.1672C16.2484 39.1672 16.6074 38.4492 18.0157 38.4492C19.5069 38.4492 20.9428 39.6919 21.0533 40.1613L18.8165 44.0825C18.1814 45.2147 16.7455 45.6013 15.6133 44.9385C14.4811 44.3034 14.1221 42.8675 14.7573 41.7353Z" fill="white"/>
<defs>
<linearGradient id="paint0_linear_3842_8726" x1="29.9946" y1="59.9893" x2="29.9946" y2="0" gradientUnits="userSpaceOnUse">
<stop stop-color="#4780E8"/>
<stop offset="1" stop-color="#11C8F6"/>
</linearGradient>
</defs>
</svg>
