<svg width="28" height="10" viewBox="0 0 28 10" fill="none" xmlns="http://www.w3.org/2000/svg">
<path d="M27.9986 1.08039C27.9984 1.08931 28.0004 0.936198 27.9999 0.945115L27.7123 5.90121L27.6892 6.22676C27.6892 6.60979 27.4479 6.94771 27.0515 6.98488C26.6547 7.02204 26.3073 6.74158 26.2691 6.35855L26.2608 6.24979L25.9467 3.79062C25.9449 3.7926 25.9434 3.79359 25.9414 3.79582C25.3966 4.32205 24.7111 4.94317 23.8844 5.60045C22.7288 6.51364 21.2987 7.49724 19.6214 8.3151C17.9501 9.13119 16.0144 9.77242 14.0079 9.94703C13.7554 9.96932 13.4962 9.97849 13.242 9.99385C12.9876 10.0067 12.7585 9.99509 12.5162 9.99683L12.3202 9.99583L12.1367 9.98295L11.7708 9.95694C11.5277 9.9391 11.2855 9.92176 11.0441 9.90441C10.8026 9.89401 10.5639 9.85486 10.3268 9.81993C10.0899 9.785 9.85412 9.75056 9.62007 9.71637C9.38527 9.68838 9.15534 9.63758 8.92772 9.58481C8.70036 9.53427 8.47454 9.48423 8.25049 9.43443C6.46775 8.99912 4.88729 8.32944 3.64706 7.59187C2.40039 6.86026 1.47837 6.09447 0.879968 5.52237C0.280256 4.94833 0 4.56929 0 4.56929C0 4.56929 0.309477 4.92729 0.947961 5.45153C1.58411 5.97454 2.55339 6.66206 3.82384 7.28565C5.08871 7.91594 6.66845 8.45007 8.40598 8.74094C8.62385 8.7729 8.84352 8.80734 9.0647 8.83955C9.28539 8.87398 9.50736 8.91115 9.73444 8.92106C9.96027 8.93717 10.1874 8.96318 10.4155 8.97953C10.6436 8.99638 12.4825 8.93617 12.4825 8.93617C12.7174 8.91734 12.9683 8.91363 13.1913 8.88415C13.4141 8.85268 13.634 8.84896 13.857 8.81254C15.669 8.5197 17.3806 7.81855 18.8536 6.95863C20.3304 6.09694 21.5802 5.09724 22.5823 4.17415C23.2464 3.55873 23.8009 2.98296 24.2479 2.48571L21.7659 2.74313L21.6535 2.75552C21.2571 2.79639 20.9012 2.53254 20.859 2.15C20.8167 1.76722 21.0849 1.39582 21.4813 1.39582L21.4667 1.39557V1.36955L26.3932 0.120145C26.8113 -0.0904446 27.3461 -0.024539 27.6896 0.320582C27.8795 0.511105 27.9783 0.756629 27.9909 1.0024C27.9929 1.02842 27.9986 1.05413 27.9986 1.08039Z" fill="#576993"/>
<path d="M27.9986 1.08039C27.9984 1.08931 28.0004 0.936198 27.9999 0.945115L27.7123 5.90121L27.6892 6.22676C27.6892 6.60979 27.4479 6.94771 27.0515 6.98488C26.6547 7.02204 26.3073 6.74158 26.2691 6.35855L26.2608 6.24979L25.9467 3.79062C25.9449 3.7926 25.9434 3.79359 25.9414 3.79582C25.3966 4.32205 24.7111 4.94317 23.8844 5.60045C22.7288 6.51364 21.2987 7.49724 19.6214 8.3151C17.9501 9.13119 16.0144 9.77242 14.0079 9.94703C13.7554 9.96932 13.4962 9.97849 13.242 9.99385C12.9876 10.0067 12.7585 9.99509 12.5162 9.99683L12.3202 9.99583L12.1367 9.98295L11.7708 9.95694C11.5277 9.9391 11.2855 9.92176 11.0441 9.90441C10.8026 9.89401 10.5639 9.85486 10.3268 9.81993C10.0899 9.785 9.85412 9.75056 9.62007 9.71637C9.38527 9.68838 9.15534 9.63758 8.92772 9.58481C8.70036 9.53427 8.47454 9.48423 8.25049 9.43443C6.46775 8.99912 4.88729 8.32944 3.64706 7.59187C2.40039 6.86026 1.47837 6.09447 0.879968 5.52237C0.280256 4.94833 0 4.56929 0 4.56929C0 4.56929 0.309477 4.92729 0.947961 5.45153C1.58411 5.97454 2.55339 6.66206 3.82384 7.28565C5.08871 7.91594 6.66845 8.45007 8.40598 8.74094C8.62385 8.7729 8.84352 8.80734 9.0647 8.83955C9.28539 8.87398 9.50736 8.91115 9.73444 8.92106C9.96027 8.93717 10.1874 8.96318 10.4155 8.97953C10.6436 8.99638 12.4825 8.93617 12.4825 8.93617C12.7174 8.91734 12.9683 8.91363 13.1913 8.88415C13.4141 8.85268 13.634 8.84896 13.857 8.81254C15.669 8.5197 17.3806 7.81855 18.8536 6.95863C20.3304 6.09694 21.5802 5.09724 22.5823 4.17415C23.2464 3.55873 23.8009 2.98296 24.2479 2.48571L21.7659 2.74313L21.6535 2.75552C21.2571 2.79639 20.9012 2.53254 20.859 2.15C20.8167 1.76722 21.0849 1.39582 21.4813 1.39582L21.4667 1.39557V1.36955L26.3932 0.120145C26.8113 -0.0904446 27.3461 -0.024539 27.6896 0.320582C27.8795 0.511105 27.9783 0.756629 27.9909 1.0024C27.9929 1.02842 27.9986 1.05413 27.9986 1.08039Z" fill="url(#paint0_linear_2185_717)"/>
<defs>
<linearGradient id="paint0_linear_2185_717" x1="-3.5" y1="6.23188" x2="32.6054" y2="3.55369" gradientUnits="userSpaceOnUse">
<stop offset="0.411458" stop-color="#6396F9"/>
<stop offset="1" stop-color="#00D1FF"/>
</linearGradient>
</defs>
</svg>
