<svg width="40" height="36" viewBox="0 0 46 42" fill="none" xmlns="http://www.w3.org/2000/svg">
<path d="M26.6445 30.0345C26.6445 30.6095 26.1784 31.0762 25.6029 31.0762H20.3946C19.8196 31.0762 19.3529 30.6095 19.3529 30.0345V26.3751L0.0820312 21.9971V39.4424C0.0820312 40.593 1.01487 41.5257 2.16535 41.5257H43.832C44.9826 41.5257 45.9154 40.5929 45.9154 39.4424V22.0147L26.6445 26.3777V30.0345Z" fill="#576993"/>
<path d="M26.6445 30.0345C26.6445 30.6095 26.1784 31.0762 25.6029 31.0762H20.3946C19.8196 31.0762 19.3529 30.6095 19.3529 30.0345V26.3751L0.0820312 21.9971V39.4424C0.0820312 40.593 1.01487 41.5257 2.16535 41.5257H43.832C44.9826 41.5257 45.9154 40.5929 45.9154 39.4424V22.0147L26.6445 26.3777V30.0345Z" fill="url(#paint0_linear_3886_7967)"/>
<path d="M43.832 10.2744H2.16535C1.01487 10.2744 0.0820312 11.2072 0.0820312 12.3577V19.326L19.3529 23.7036V21.6999C19.3529 21.1249 19.8195 20.6583 20.3945 20.6583H25.6028C26.1783 20.6583 26.6445 21.1249 26.6445 21.6999V23.7062L45.9154 19.3431V12.3577C45.9154 11.2072 44.9825 10.2744 43.832 10.2744Z" fill="#576993"/>
<path d="M43.832 10.2744H2.16535C1.01487 10.2744 0.0820312 11.2072 0.0820312 12.3577V19.326L19.3529 23.7036V21.6999C19.3529 21.1249 19.8195 20.6583 20.3945 20.6583H25.6028C26.1783 20.6583 26.6445 21.1249 26.6445 21.6999V23.7062L45.9154 19.3431V12.3577C45.9154 11.2072 44.9825 10.2744 43.832 10.2744Z" fill="url(#paint1_linear_3886_7967)"/>
<path d="M14.9579 5.43887C14.9579 3.88264 16.224 2.61645 17.7798 2.61645H28.2125C29.7688 2.61645 31.035 3.88256 31.035 5.43887V8.19045H33.4844V5.43887C33.4844 2.5316 31.1198 0.166992 28.2125 0.166992H17.7797C14.8729 0.166992 12.5078 2.5316 12.5078 5.43887V8.19045H14.9578L14.9579 5.43887Z" fill="#576993"/>
<path d="M14.9579 5.43887C14.9579 3.88264 16.224 2.61645 17.7798 2.61645H28.2125C29.7688 2.61645 31.035 3.88256 31.035 5.43887V8.19045H33.4844V5.43887C33.4844 2.5316 31.1198 0.166992 28.2125 0.166992H17.7797C14.8729 0.166992 12.5078 2.5316 12.5078 5.43887V8.19045H14.9578L14.9579 5.43887Z" fill="url(#paint2_linear_3886_7967)"/>
<defs>
<linearGradient id="paint0_linear_3886_7967" x1="-5.64714" y1="29.3557" x2="53.5504" y2="33.0363" gradientUnits="userSpaceOnUse">
<stop offset="0.411458" stop-color="#6396F9"/>
<stop offset="1" stop-color="#00D1FF"/>
</linearGradient>
<linearGradient id="paint1_linear_3886_7967" x1="-5.64714" y1="15.3357" x2="53.2976" y2="20.6641" gradientUnits="userSpaceOnUse">
<stop offset="0.411458" stop-color="#6396F9"/>
<stop offset="1" stop-color="#00D1FF"/>
</linearGradient>
<linearGradient id="paint2_linear_3886_7967" x1="9.88574" y1="3.19032" x2="36.9537" y2="5.06506" gradientUnits="userSpaceOnUse">
<stop offset="0.411458" stop-color="#6396F9"/>
<stop offset="1" stop-color="#00D1FF"/>
</linearGradient>
</defs>
</svg>
