<svg width="66" height="67" viewBox="0 0 66 67" fill="none" xmlns="http://www.w3.org/2000/svg">
<path d="M64.4295 37.1841L63.1774 35.4693C62.1431 34.0538 62.1295 32.1348 63.1366 30.6922L64.3615 28.9637C65.7769 26.9495 65.1236 24.1594 62.9461 22.989L61.0815 21.9818C59.53 21.1516 58.6861 19.4232 58.972 17.6947L59.3258 15.5988C59.7341 13.1762 57.924 10.9306 55.4606 10.8353L53.3375 10.74C51.5818 10.672 50.0711 9.47433 49.5811 7.7867L48.9959 5.74521C48.3154 3.37708 45.7159 2.15219 43.443 3.1321L41.4968 3.97592C39.8772 4.67002 38.0127 4.26173 36.8286 2.94156L35.4132 1.36281C33.7664 -0.474528 30.8947 -0.447309 29.2751 1.40364L27.8869 3.00961C26.73 4.32977 24.8655 4.7789 23.2459 4.11202L21.2861 3.30903C19.0132 2.36995 16.4273 3.63567 15.7741 6.01741L15.2161 8.05889C14.7669 9.77374 13.2834 10.985 11.5278 11.0803L9.40462 11.2028C6.94122 11.3389 5.17193 13.6117 5.62106 16.0207L6.00213 18.103C6.31516 19.8315 5.49857 21.5735 3.96065 22.4174L2.1097 23.4517C-0.0406709 24.6494 -0.666727 27.453 0.789535 29.4401L2.04165 31.1549C3.076 32.5704 3.08961 34.4894 2.08248 35.932L0.857584 37.6605C-0.557848 39.6747 0.0954284 42.4648 2.27302 43.6352L4.13758 44.6424C5.68911 45.4726 6.53292 47.201 6.24711 48.9295L5.87965 51.0118C5.47135 53.4344 7.28147 55.68 9.74486 55.7753L11.868 55.8706C13.6237 55.9386 15.1344 57.1363 15.6244 58.8239L16.2096 60.8654C16.8901 63.2335 19.4896 64.4584 21.7624 63.4785L23.7086 62.6347C25.3282 61.9406 27.1928 62.3489 28.3768 63.6554L29.7923 65.2342C31.4391 67.0715 34.3108 67.0443 35.9304 65.1934L37.3186 63.5874C38.4754 62.2672 40.34 61.8181 41.9596 62.485L43.9194 63.288C46.1922 64.2271 48.7781 62.9613 49.4314 60.5796L49.9894 58.5381C50.4521 56.8505 51.9492 55.6392 53.7049 55.5303L55.8281 55.4078C58.2915 55.2717 60.0608 52.9989 59.6116 50.5899L59.2305 48.5076C58.9175 46.7791 59.7341 45.0371 61.272 44.1932L63.123 43.1589C65.2597 41.9884 65.8722 39.1712 64.4295 37.1841ZM32.6095 54.809C20.7417 54.809 11.1195 45.1868 11.1195 33.3189C11.1195 21.4511 20.7417 11.8288 32.6095 11.8288C44.4774 11.8288 54.0996 21.4511 54.0996 33.3189C54.0996 45.1868 44.4774 54.809 32.6095 54.809Z" fill="#576993"/>
<path d="M64.4295 37.1841L63.1774 35.4693C62.1431 34.0538 62.1295 32.1348 63.1366 30.6922L64.3615 28.9637C65.7769 26.9495 65.1236 24.1594 62.9461 22.989L61.0815 21.9818C59.53 21.1516 58.6861 19.4232 58.972 17.6947L59.3258 15.5988C59.7341 13.1762 57.924 10.9306 55.4606 10.8353L53.3375 10.74C51.5818 10.672 50.0711 9.47433 49.5811 7.7867L48.9959 5.74521C48.3154 3.37708 45.7159 2.15219 43.443 3.1321L41.4968 3.97592C39.8772 4.67002 38.0127 4.26173 36.8286 2.94156L35.4132 1.36281C33.7664 -0.474528 30.8947 -0.447309 29.2751 1.40364L27.8869 3.00961C26.73 4.32977 24.8655 4.7789 23.2459 4.11202L21.2861 3.30903C19.0132 2.36995 16.4273 3.63567 15.7741 6.01741L15.2161 8.05889C14.7669 9.77374 13.2834 10.985 11.5278 11.0803L9.40462 11.2028C6.94122 11.3389 5.17193 13.6117 5.62106 16.0207L6.00213 18.103C6.31516 19.8315 5.49857 21.5735 3.96065 22.4174L2.1097 23.4517C-0.0406709 24.6494 -0.666727 27.453 0.789535 29.4401L2.04165 31.1549C3.076 32.5704 3.08961 34.4894 2.08248 35.932L0.857584 37.6605C-0.557848 39.6747 0.0954284 42.4648 2.27302 43.6352L4.13758 44.6424C5.68911 45.4726 6.53292 47.201 6.24711 48.9295L5.87965 51.0118C5.47135 53.4344 7.28147 55.68 9.74486 55.7753L11.868 55.8706C13.6237 55.9386 15.1344 57.1363 15.6244 58.8239L16.2096 60.8654C16.8901 63.2335 19.4896 64.4584 21.7624 63.4785L23.7086 62.6347C25.3282 61.9406 27.1928 62.3489 28.3768 63.6554L29.7923 65.2342C31.4391 67.0715 34.3108 67.0443 35.9304 65.1934L37.3186 63.5874C38.4754 62.2672 40.34 61.8181 41.9596 62.485L43.9194 63.288C46.1922 64.2271 48.7781 62.9613 49.4314 60.5796L49.9894 58.5381C50.4521 56.8505 51.9492 55.6392 53.7049 55.5303L55.8281 55.4078C58.2915 55.2717 60.0608 52.9989 59.6116 50.5899L59.2305 48.5076C58.9175 46.7791 59.7341 45.0371 61.272 44.1932L63.123 43.1589C65.2597 41.9884 65.8722 39.1712 64.4295 37.1841ZM32.6095 54.809C20.7417 54.809 11.1195 45.1868 11.1195 33.3189C11.1195 21.4511 20.7417 11.8288 32.6095 11.8288C44.4774 11.8288 54.0996 21.4511 54.0996 33.3189C54.0996 45.1868 44.4774 54.809 32.6095 54.809Z" fill="url(#paint0_linear_3540_5749)"/>
<path d="M29.861 33.8901L27.9556 31.9711C26.826 30.8279 24.975 30.8279 23.8318 31.9575C22.6886 33.0871 22.6886 34.9381 23.8182 36.0813L25.7236 38.0003L27.8467 40.1235C28.9491 41.2395 30.7456 41.2395 31.8616 40.1371L33.9848 38.0275L41.3886 30.6646C42.5318 29.535 42.5318 27.684 41.4022 26.5408C40.2726 25.3975 38.4216 25.3975 37.2784 26.5272L29.861 33.8901Z" fill="#576993"/>
<path d="M29.861 33.8901L27.9556 31.9711C26.826 30.8279 24.975 30.8279 23.8318 31.9575C22.6886 33.0871 22.6886 34.9381 23.8182 36.0813L25.7236 38.0003L27.8467 40.1235C28.9491 41.2395 30.7456 41.2395 31.8616 40.1371L33.9848 38.0275L41.3886 30.6646C42.5318 29.535 42.5318 27.684 41.4022 26.5408C40.2726 25.3975 38.4216 25.3975 37.2784 26.5272L29.861 33.8901Z" fill="url(#paint1_linear_3540_5749)"/>
<defs>
<linearGradient id="paint0_linear_3540_5749" x1="-8.15172" y1="25.0945" x2="76.346" y2="27.2865" gradientUnits="userSpaceOnUse">
<stop offset="0.411458" stop-color="#6396F9"/>
<stop offset="1" stop-color="#00D1FF"/>
</linearGradient>
<linearGradient id="paint1_linear_3540_5749" x1="20.5633" y1="31.4395" x2="45.527" y2="32.2737" gradientUnits="userSpaceOnUse">
<stop offset="0.411458" stop-color="#6396F9"/>
<stop offset="1" stop-color="#00D1FF"/>
</linearGradient>
</defs>
</svg>
