<svg width="52" height="43" viewBox="0 0 52 43" fill="none" xmlns="http://www.w3.org/2000/svg">
<path fill-rule="evenodd" clip-rule="evenodd" d="M16.6086 42.2396C7.62161 42.2396 0.335938 34.9547 0.335938 25.967C0.335938 16.9804 7.62124 9.69531 16.6086 9.69531C25.5951 9.69531 32.8803 16.9806 32.8803 25.967C32.8803 34.954 25.595 42.2396 16.6086 42.2396ZM18.8777 35.0745C21.1638 34.7021 22.3064 33.5483 22.3064 31.602V29.2884C22.3064 28.5791 22.0671 27.9348 21.5935 27.3597C21.1146 26.7889 19.7484 25.604 17.4847 23.8138C16.3639 22.8929 15.8031 22.1014 15.8031 21.4355L15.7106 20.2549C15.7106 19.5499 15.9933 19.1955 16.554 19.1955C17.0383 19.1955 17.278 19.377 17.278 19.7401V23.083H21.8493L21.8489 19.9438C21.8489 18.3179 20.8584 17.3062 18.8773 16.9126V15.6713H14.3067V16.9126C12.043 17.2929 10.9107 18.4133 10.9107 20.2681V22.3091C10.9107 23.1439 11.4603 24.0562 12.5542 25.0421C14.8506 26.841 16.211 27.9696 16.6357 28.4324C17.0655 28.8909 17.2779 29.349 17.2779 29.8076V31.9612C17.2779 32.3759 16.9837 32.5836 16.3965 32.5836C15.7869 32.5836 15.482 32.3759 15.482 31.9612V27.788H10.9107V31.9306C10.9107 33.5346 12.0429 34.5682 14.3068 35.022V36.2633H18.878L18.8777 35.0745Z" fill="#576993"/>
<path fill-rule="evenodd" clip-rule="evenodd" d="M16.6086 42.2396C7.62161 42.2396 0.335938 34.9547 0.335938 25.967C0.335938 16.9804 7.62124 9.69531 16.6086 9.69531C25.5951 9.69531 32.8803 16.9806 32.8803 25.967C32.8803 34.954 25.595 42.2396 16.6086 42.2396ZM18.8777 35.0745C21.1638 34.7021 22.3064 33.5483 22.3064 31.602V29.2884C22.3064 28.5791 22.0671 27.9348 21.5935 27.3597C21.1146 26.7889 19.7484 25.604 17.4847 23.8138C16.3639 22.8929 15.8031 22.1014 15.8031 21.4355L15.7106 20.2549C15.7106 19.5499 15.9933 19.1955 16.554 19.1955C17.0383 19.1955 17.278 19.377 17.278 19.7401V23.083H21.8493L21.8489 19.9438C21.8489 18.3179 20.8584 17.3062 18.8773 16.9126V15.6713H14.3067V16.9126C12.043 17.2929 10.9107 18.4133 10.9107 20.2681V22.3091C10.9107 23.1439 11.4603 24.0562 12.5542 25.0421C14.8506 26.841 16.211 27.9696 16.6357 28.4324C17.0655 28.8909 17.2779 29.349 17.2779 29.8076V31.9612C17.2779 32.3759 16.9837 32.5836 16.3965 32.5836C15.7869 32.5836 15.482 32.3759 15.482 31.9612V27.788H10.9107V31.9306C10.9107 33.5346 12.0429 34.5682 14.3068 35.022V36.2633H18.878L18.8777 35.0745Z" fill="url(#paint0_linear_2185_831)"/>
<path fill-rule="evenodd" clip-rule="evenodd" d="M51.6681 11.7854C45.355 13.507 36.9007 13.8005 29.8574 12.6668C28.625 11.5059 27.2334 10.5125 25.7188 9.72282V6.37563C29.282 9.33755 48.1053 9.33755 51.6688 6.37563V11.7853L51.6681 11.7854ZM38.6935 6.53776C45.8593 6.53776 51.6681 5.1784 51.6681 3.50228C51.6681 1.82579 45.859 0.466797 38.6935 0.466797C31.528 0.466797 25.7189 1.82579 25.7189 3.50228C25.7189 5.1784 31.528 6.53776 38.6935 6.53776ZM51.6681 40.5901C44.7871 42.4665 35.3624 42.647 27.992 41.1308C29.572 39.9899 30.964 38.6059 32.1146 37.0338C39.1 37.8823 49.1605 37.2645 51.6678 35.1808C51.6674 37.676 51.6674 38.0949 51.6674 40.5901L51.6681 40.5901ZM51.6681 33.3888V27.9795C49.5162 29.7675 41.8014 30.4757 35.2421 30.1044C34.8844 31.7353 34.3122 33.2863 33.5556 34.7249C39.7141 35.2634 46.4282 34.8182 51.6678 33.3889L51.6681 33.3888ZM51.6681 26.1878C47.006 27.4593 41.176 27.9518 35.6085 27.6659C35.6505 27.159 35.6724 26.6466 35.6724 26.129C35.6724 25.0316 35.5762 23.9571 35.3929 22.9121C41.9198 23.2644 49.5329 22.5533 51.6683 20.7786C51.6686 23.2737 51.6686 23.6927 51.6686 26.1879L51.6681 26.1878ZM51.6681 18.9868V13.5771C49.1801 15.6447 39.2565 16.2689 32.2783 15.4495C33.3441 16.9538 34.1908 18.6252 34.7716 20.4158C40.5875 20.7982 46.7718 20.3221 51.6688 18.9868H51.6681Z" fill="#576993"/>
<path fill-rule="evenodd" clip-rule="evenodd" d="M51.6681 11.7854C45.355 13.507 36.9007 13.8005 29.8574 12.6668C28.625 11.5059 27.2334 10.5125 25.7188 9.72282V6.37563C29.282 9.33755 48.1053 9.33755 51.6688 6.37563V11.7853L51.6681 11.7854ZM38.6935 6.53776C45.8593 6.53776 51.6681 5.1784 51.6681 3.50228C51.6681 1.82579 45.859 0.466797 38.6935 0.466797C31.528 0.466797 25.7189 1.82579 25.7189 3.50228C25.7189 5.1784 31.528 6.53776 38.6935 6.53776ZM51.6681 40.5901C44.7871 42.4665 35.3624 42.647 27.992 41.1308C29.572 39.9899 30.964 38.6059 32.1146 37.0338C39.1 37.8823 49.1605 37.2645 51.6678 35.1808C51.6674 37.676 51.6674 38.0949 51.6674 40.5901L51.6681 40.5901ZM51.6681 33.3888V27.9795C49.5162 29.7675 41.8014 30.4757 35.2421 30.1044C34.8844 31.7353 34.3122 33.2863 33.5556 34.7249C39.7141 35.2634 46.4282 34.8182 51.6678 33.3889L51.6681 33.3888ZM51.6681 26.1878C47.006 27.4593 41.176 27.9518 35.6085 27.6659C35.6505 27.159 35.6724 26.6466 35.6724 26.129C35.6724 25.0316 35.5762 23.9571 35.3929 22.9121C41.9198 23.2644 49.5329 22.5533 51.6683 20.7786C51.6686 23.2737 51.6686 23.6927 51.6686 26.1879L51.6681 26.1878ZM51.6681 18.9868V13.5771C49.1801 15.6447 39.2565 16.2689 32.2783 15.4495C33.3441 16.9538 34.1908 18.6252 34.7716 20.4158C40.5875 20.7982 46.7718 20.3221 51.6688 18.9868H51.6681Z" fill="url(#paint1_linear_2185_831)"/>
<defs>
<linearGradient id="paint0_linear_2185_831" x1="-3.7321" y1="21.9584" x2="38.4345" y2="23.0755" gradientUnits="userSpaceOnUse">
<stop offset="0.411458" stop-color="#6396F9"/>
<stop offset="1" stop-color="#00D1FF"/>
</linearGradient>
<linearGradient id="paint1_linear_2185_831" x1="22.475" y1="16.1724" x2="56.112" y2="16.7272" gradientUnits="userSpaceOnUse">
<stop offset="0.411458" stop-color="#6396F9"/>
<stop offset="1" stop-color="#00D1FF"/>
</linearGradient>
</defs>
</svg>
