<svg width="50" height="45" viewBox="0 0 50 45" fill="none" xmlns="http://www.w3.org/2000/svg">
<path d="M49.555 11.0775C49.3251 10.7452 49.018 10.4736 48.6601 10.2859C48.3022 10.0982 47.9041 10.0001 47.5 10H13.3325L10.4475 3.07501C10.0692 2.16307 9.42867 1.38398 8.60706 0.836538C7.78545 0.289095 6.81979 -0.0020526 5.8325 1.08931e-05H0V5.00001H5.8325L17.6925 33.4625C17.8825 33.9179 18.2029 34.3069 18.6136 34.5805C19.0242 34.8541 19.5066 35.0001 20 35H40C41.0425 35 41.975 34.3525 42.3425 33.38L49.8425 13.38C49.9842 13.0016 50.0321 12.5944 49.9821 12.1934C49.932 11.7924 49.7855 11.4095 49.555 11.0775V11.0775Z" fill="#576993"/>
<path d="M49.555 11.0775C49.3251 10.7452 49.018 10.4736 48.6601 10.2859C48.3022 10.0982 47.9041 10.0001 47.5 10H13.3325L10.4475 3.07501C10.0692 2.16307 9.42867 1.38398 8.60706 0.836538C7.78545 0.289095 6.81979 -0.0020526 5.8325 1.08931e-05H0V5.00001H5.8325L17.6925 33.4625C17.8825 33.9179 18.2029 34.3069 18.6136 34.5805C19.0242 34.8541 19.5066 35.0001 20 35H40C41.0425 35 41.975 34.3525 42.3425 33.38L49.8425 13.38C49.9842 13.0016 50.0321 12.5944 49.9821 12.1934C49.932 11.7924 49.7855 11.4095 49.555 11.0775V11.0775Z" fill="url(#paint0_linear_2720_2702)"/>
<path d="M21.25 45C23.3211 45 25 43.3211 25 41.25C25 39.1789 23.3211 37.5 21.25 37.5C19.1789 37.5 17.5 39.1789 17.5 41.25C17.5 43.3211 19.1789 45 21.25 45Z" fill="#576993"/>
<path d="M21.25 45C23.3211 45 25 43.3211 25 41.25C25 39.1789 23.3211 37.5 21.25 37.5C19.1789 37.5 17.5 39.1789 17.5 41.25C17.5 43.3211 19.1789 45 21.25 45Z" fill="url(#paint1_linear_2720_2702)"/>
<path d="M38.75 45C40.8211 45 42.5 43.3211 42.5 41.25C42.5 39.1789 40.8211 37.5 38.75 37.5C36.6789 37.5 35 39.1789 35 41.25C35 43.3211 36.6789 45 38.75 45Z" fill="#576993"/>
<path d="M38.75 45C40.8211 45 42.5 43.3211 42.5 41.25C42.5 39.1789 40.8211 37.5 38.75 37.5C36.6789 37.5 35 39.1789 35 41.25C35 43.3211 36.6789 45 38.75 45Z" fill="url(#paint2_linear_2720_2702)"/>
<defs>
<linearGradient id="paint0_linear_2720_2702" x1="-6.25017" y1="13.1884" x2="58.4876" y2="15.6385" gradientUnits="userSpaceOnUse">
<stop offset="0.411458" stop-color="#6396F9"/>
<stop offset="1" stop-color="#00D1FF"/>
</linearGradient>
<linearGradient id="paint1_linear_2720_2702" x1="16.5625" y1="40.3261" x2="26.28" y2="40.5835" gradientUnits="userSpaceOnUse">
<stop offset="0.411458" stop-color="#6396F9"/>
<stop offset="1" stop-color="#00D1FF"/>
</linearGradient>
<linearGradient id="paint2_linear_2720_2702" x1="34.0625" y1="40.3261" x2="43.78" y2="40.5835" gradientUnits="userSpaceOnUse">
<stop offset="0.411458" stop-color="#6396F9"/>
<stop offset="1" stop-color="#00D1FF"/>
</linearGradient>
</defs>
</svg>
