<svg width="58" height="52" viewBox="0 0 58 52" fill="none" xmlns="http://www.w3.org/2000/svg">
<path d="M20.9851 38.7446C20.4588 41.3323 20.117 42.5834 18.1196 42.7437C17.6274 42.7832 17.2266 43.1547 17.1498 43.6424C17.0729 44.13 17.3402 44.6069 17.7964 44.7958C17.9248 44.8489 20.9798 46.0972 24.5491 46.0973C24.5496 46.0973 24.55 46.0973 24.5503 46.0973C27.0376 46.0973 29.1713 45.4944 30.8918 44.3054C32.9307 42.8965 34.3364 40.6916 35.0838 37.7545L28.2152 30.8311C22.4106 31.7706 21.5883 35.7793 20.9851 38.7446Z" fill="#576993"/>
<path d="M20.9851 38.7446C20.4588 41.3323 20.117 42.5834 18.1196 42.7437C17.6274 42.7832 17.2266 43.1547 17.1498 43.6424C17.0729 44.13 17.3402 44.6069 17.7964 44.7958C17.9248 44.8489 20.9798 46.0972 24.5491 46.0973C24.5496 46.0973 24.55 46.0973 24.5503 46.0973C27.0376 46.0973 29.1713 45.4944 30.8918 44.3054C32.9307 42.8965 34.3364 40.6916 35.0838 37.7545L28.2152 30.8311C22.4106 31.7706 21.5883 35.7793 20.9851 38.7446Z" fill="url(#paint0_linear_2720_2655)"/>
<path d="M57.4717 8.33801C57.287 8.15174 56.9576 7.92969 56.4378 7.92969C55.8283 7.92969 54.209 7.92969 44.3752 16.2976C39.8328 20.1629 34.5955 24.9446 30.4297 29.0138L36.9477 35.5835C41.2322 31.1301 46.2304 25.5483 50.2053 20.7576C52.7154 17.7329 54.6455 15.237 55.942 13.3397C57.6594 10.8266 58.4115 9.28517 57.4717 8.33801Z" fill="#576993"/>
<path d="M57.4717 8.33801C57.287 8.15174 56.9576 7.92969 56.4378 7.92969C55.8283 7.92969 54.209 7.92969 44.3752 16.2976C39.8328 20.1629 34.5955 24.9446 30.4297 29.0138L36.9477 35.5835C41.2322 31.1301 46.2304 25.5483 50.2053 20.7576C52.7154 17.7329 54.6455 15.237 55.942 13.3397C57.6594 10.8266 58.4115 9.28517 57.4717 8.33801Z" fill="url(#paint1_linear_2720_2655)"/>
<path d="M32.515 46.6489C30.3093 48.1732 27.6307 48.9459 24.5524 48.9459C20.5007 48.9457 17.0878 47.5838 16.709 47.4275C15.0307 46.7319 14.0561 44.9927 14.3389 43.1984C14.6158 41.4407 16.024 40.1048 17.783 39.9137C17.9363 39.4559 18.1058 38.622 18.1966 38.1761C18.531 36.5325 18.9889 34.2811 20.3972 32.2773C21.9352 30.0893 24.2536 28.6865 27.2977 28.0987C29.0448 26.3648 31.0381 24.4583 33.1182 22.5236C32.0666 22.2955 31.1264 21.6106 30.6221 20.5748C29.754 18.7905 30.5112 16.6442 32.311 15.7855C34.1154 14.9247 36.2796 15.6766 37.1465 17.4635C37.3176 17.8157 37.4234 18.1817 37.4727 18.549C39.1979 17.0039 40.9111 15.5042 42.5285 14.1279C42.5382 14.1197 42.5472 14.1118 42.557 14.1036C40.7391 10.6248 38.1321 7.54259 34.9557 5.1826C30.3945 1.79372 24.9634 0.00142457 19.2497 0C19.248 0 19.2467 0 19.2453 0C15.3893 0 10.7021 1.34729 7.01229 3.51674C2.48962 6.17571 -0.000890121 9.7318 2.38645e-07 13.5295C0.00142481 18.1145 2.58738 20.0324 4.6653 21.5732C6.35966 22.8299 7.69787 23.8223 7.69858 25.9972C7.69911 28.172 6.36162 29.1635 4.66815 30.4189C2.59095 31.9589 0.00552047 33.8757 0.00694504 38.4612C0.00801347 42.2584 2.50013 45.8154 7.02404 48.4767C10.7165 50.6488 15.4062 51.9989 19.2629 52C19.2656 52 19.2679 52 19.2704 52C26.2695 52 32.8491 49.2985 37.7977 44.3928C41.5082 40.7147 43.969 36.1274 44.9692 31.1368C42.4847 33.8917 39.9837 36.5667 37.7461 38.8512C36.7969 42.2837 35.0397 44.9044 32.515 46.6489ZM19.7756 10.7895C20.2204 8.85373 22.1618 7.64534 24.1124 8.08874C26.0603 8.53 27.2808 10.4539 26.8392 12.387C26.3942 14.318 24.4518 15.5266 22.501 15.0855C20.5514 14.6468 19.3304 12.7206 19.7756 10.7895ZM8.02285 17.3869C6.77546 15.8349 7.03188 13.576 8.59553 12.3406C10.159 11.1074 12.4367 11.3603 13.6864 12.9095C14.9311 14.4593 14.6738 16.7181 13.1114 17.9561C11.5513 19.1919 9.27006 18.9363 8.02285 17.3869ZM9.92679 41.0733C8.36225 39.8368 8.10494 37.578 9.35233 36.0264C10.5988 34.4779 12.8774 34.224 14.4418 35.4602C16.0049 36.6965 16.2624 38.9555 15.0161 40.5044C13.7698 42.0559 11.491 42.3097 9.92679 41.0733Z" fill="#576993"/>
<path d="M32.515 46.6489C30.3093 48.1732 27.6307 48.9459 24.5524 48.9459C20.5007 48.9457 17.0878 47.5838 16.709 47.4275C15.0307 46.7319 14.0561 44.9927 14.3389 43.1984C14.6158 41.4407 16.024 40.1048 17.783 39.9137C17.9363 39.4559 18.1058 38.622 18.1966 38.1761C18.531 36.5325 18.9889 34.2811 20.3972 32.2773C21.9352 30.0893 24.2536 28.6865 27.2977 28.0987C29.0448 26.3648 31.0381 24.4583 33.1182 22.5236C32.0666 22.2955 31.1264 21.6106 30.6221 20.5748C29.754 18.7905 30.5112 16.6442 32.311 15.7855C34.1154 14.9247 36.2796 15.6766 37.1465 17.4635C37.3176 17.8157 37.4234 18.1817 37.4727 18.549C39.1979 17.0039 40.9111 15.5042 42.5285 14.1279C42.5382 14.1197 42.5472 14.1118 42.557 14.1036C40.7391 10.6248 38.1321 7.54259 34.9557 5.1826C30.3945 1.79372 24.9634 0.00142457 19.2497 0C19.248 0 19.2467 0 19.2453 0C15.3893 0 10.7021 1.34729 7.01229 3.51674C2.48962 6.17571 -0.000890121 9.7318 2.38645e-07 13.5295C0.00142481 18.1145 2.58738 20.0324 4.6653 21.5732C6.35966 22.8299 7.69787 23.8223 7.69858 25.9972C7.69911 28.172 6.36162 29.1635 4.66815 30.4189C2.59095 31.9589 0.00552047 33.8757 0.00694504 38.4612C0.00801347 42.2584 2.50013 45.8154 7.02404 48.4767C10.7165 50.6488 15.4062 51.9989 19.2629 52C19.2656 52 19.2679 52 19.2704 52C26.2695 52 32.8491 49.2985 37.7977 44.3928C41.5082 40.7147 43.969 36.1274 44.9692 31.1368C42.4847 33.8917 39.9837 36.5667 37.7461 38.8512C36.7969 42.2837 35.0397 44.9044 32.515 46.6489ZM19.7756 10.7895C20.2204 8.85373 22.1618 7.64534 24.1124 8.08874C26.0603 8.53 27.2808 10.4539 26.8392 12.387C26.3942 14.318 24.4518 15.5266 22.501 15.0855C20.5514 14.6468 19.3304 12.7206 19.7756 10.7895ZM8.02285 17.3869C6.77546 15.8349 7.03188 13.576 8.59553 12.3406C10.159 11.1074 12.4367 11.3603 13.6864 12.9095C14.9311 14.4593 14.6738 16.7181 13.1114 17.9561C11.5513 19.1919 9.27006 18.9363 8.02285 17.3869ZM9.92679 41.0733C8.36225 39.8368 8.10494 37.578 9.35233 36.0264C10.5988 34.4779 12.8774 34.224 14.4418 35.4602C16.0049 36.6965 16.2624 38.9555 15.0161 40.5044C13.7698 42.0559 11.491 42.3097 9.92679 41.0733Z" fill="url(#paint2_linear_2720_2655)"/>
<defs>
<linearGradient id="paint0_linear_2720_2655" x1="14.8933" y1="36.5836" x2="38.1405" y2="37.3076" gradientUnits="userSpaceOnUse">
<stop offset="0.411458" stop-color="#6396F9"/>
<stop offset="1" stop-color="#00D1FF"/>
</linearGradient>
<linearGradient id="paint1_linear_2720_2655" x1="26.9984" y1="18.35" x2="62.5656" y2="19.2853" gradientUnits="userSpaceOnUse">
<stop offset="0.411458" stop-color="#6396F9"/>
<stop offset="1" stop-color="#00D1FF"/>
</linearGradient>
<linearGradient id="paint2_linear_2720_2655" x1="-5.62115" y1="19.5942" x2="52.6542" y2="20.9293" gradientUnits="userSpaceOnUse">
<stop offset="0.411458" stop-color="#6396F9"/>
<stop offset="1" stop-color="#00D1FF"/>
</linearGradient>
</defs>
</svg>
