<svg width="33" height="33" viewBox="0 0 33 33" fill="none" xmlns="http://www.w3.org/2000/svg">
<g clip-path="url(#clip0_2341_1968)">
<path fill-rule="evenodd" clip-rule="evenodd" d="M16.3119 13.2695V33.0138L4.13281 29.522V19.4618L13.6542 20.0073L16.3119 13.2695Z" fill="#576993"/>
<path fill-rule="evenodd" clip-rule="evenodd" d="M16.3119 13.2695V33.0138L4.13281 29.522V19.4618L13.6542 20.0073L16.3119 13.2695Z" fill="url(#paint0_linear_2341_1968)"/>
<path fill-rule="evenodd" clip-rule="evenodd" d="M28.6937 12.8168L17.2656 12.1191L20.0983 19.3725L31.5264 18.6748L28.6937 12.8168Z" fill="#576993"/>
<path fill-rule="evenodd" clip-rule="evenodd" d="M28.6937 12.8168L17.2656 12.1191L20.0983 19.3725L31.5264 18.6748L28.6937 12.8168Z" fill="url(#paint1_linear_2341_1968)"/>
<path fill-rule="evenodd" clip-rule="evenodd" d="M17.1094 13.2695L19.7672 20.0073L29.2878 19.4617V29.522L17.1095 33.0138L17.1094 13.2695Z" fill="#576993"/>
<path fill-rule="evenodd" clip-rule="evenodd" d="M17.1094 13.2695L19.7672 20.0073L29.2878 19.4617V29.522L17.1095 33.0138L17.1094 13.2695Z" fill="url(#paint2_linear_2341_1968)"/>
<path fill-rule="evenodd" clip-rule="evenodd" d="M4.71492 12.8168L1.88281 18.6748L13.3117 19.3725L16.1435 12.1191L4.71492 12.8168Z" fill="#576993"/>
<path fill-rule="evenodd" clip-rule="evenodd" d="M4.71492 12.8168L1.88281 18.6748L13.3117 19.3725L16.1435 12.1191L4.71492 12.8168Z" fill="url(#paint3_linear_2341_1968)"/>
<path d="M23.0269 3.57258C23.0269 5.43724 21.5088 6.95765 19.6427 6.95743C17.776 6.958 16.2578 5.43753 16.2578 3.57258C16.2561 1.70563 17.7751 0.1875 19.6427 0.1875C21.5091 0.187212 23.0269 1.70622 23.0269 3.57258Z" fill="#576993"/>
<path d="M23.0269 3.57258C23.0269 5.43724 21.5088 6.95765 19.6427 6.95743C17.776 6.958 16.2578 5.43753 16.2578 3.57258C16.2561 1.70563 17.7751 0.1875 19.6427 0.1875C21.5091 0.187212 23.0269 1.70622 23.0269 3.57258Z" fill="url(#paint4_linear_2341_1968)"/>
<path d="M14.4616 3.4695C14.4616 4.47921 13.6397 5.30229 12.6294 5.30199C11.6186 5.30228 10.7969 4.47921 10.7969 3.4695C10.7963 2.45869 11.6179 1.63672 12.6294 1.63672C13.6397 1.63672 14.4616 2.45921 14.4616 3.4695Z" fill="#576993"/>
<path d="M14.4616 3.4695C14.4616 4.47921 13.6397 5.30229 12.6294 5.30199C11.6186 5.30228 10.7969 4.47921 10.7969 3.4695C10.7963 2.45869 11.6179 1.63672 12.6294 1.63672C13.6397 1.63672 14.4616 2.45921 14.4616 3.4695Z" fill="url(#paint5_linear_2341_1968)"/>
<path d="M23.8837 9.86404C23.8837 10.8737 23.0618 11.6968 22.0512 11.6965C21.0404 11.6968 20.2188 10.8737 20.2188 9.86404C20.2182 8.85323 21.0398 8.03125 22.0512 8.03125C23.0618 8.03068 23.8837 8.85345 23.8837 9.86404Z" fill="#576993"/>
<path d="M23.8837 9.86404C23.8837 10.8737 23.0618 11.6968 22.0512 11.6965C21.0404 11.6968 20.2188 10.8737 20.2188 9.86404C20.2182 8.85323 21.0398 8.03125 22.0512 8.03125C23.0618 8.03068 23.8837 8.85345 23.8837 9.86404Z" fill="url(#paint6_linear_2341_1968)"/>
<path d="M18.0556 8.57744C18.0556 9.58714 17.2346 10.4099 16.2231 10.4099C15.2128 10.4099 14.3906 9.58714 14.3906 8.57744C14.3895 7.56663 15.2119 6.74414 16.2231 6.74414C17.2345 6.74414 18.0556 7.56663 18.0556 8.57744Z" fill="#576993"/>
<path d="M18.0556 8.57744C18.0556 9.58714 17.2346 10.4099 16.2231 10.4099C15.2128 10.4099 14.3906 9.58714 14.3906 8.57744C14.3895 7.56663 15.2119 6.74414 16.2231 6.74414C17.2345 6.74414 18.0556 7.56663 18.0556 8.57744Z" fill="url(#paint7_linear_2341_1968)"/>
<path d="M12.8241 9.51779C12.8241 10.8125 11.7704 11.8682 10.4742 11.8676C9.17837 11.8679 8.125 10.8122 8.125 9.51779C8.12385 8.22141 9.17844 7.16797 10.4742 7.16797C11.7701 7.16768 12.8241 8.22192 12.8241 9.51779Z" fill="#576993"/>
<path d="M12.8241 9.51779C12.8241 10.8125 11.7704 11.8682 10.4742 11.8676C9.17837 11.8679 8.125 10.8122 8.125 9.51779C8.12385 8.22141 9.17844 7.16797 10.4742 7.16797C11.7701 7.16768 12.8241 8.22192 12.8241 9.51779Z" fill="url(#paint8_linear_2341_1968)"/>
</g>
<defs>
<linearGradient id="paint0_linear_2341_1968" x1="2.61043" y1="20.7094" x2="18.3973" y2="20.9674" gradientUnits="userSpaceOnUse">
<stop offset="0.411458" stop-color="#6396F9"/>
<stop offset="1" stop-color="#00D1FF"/>
</linearGradient>
<linearGradient id="paint1_linear_2341_1968" x1="15.483" y1="14.8523" x2="33.9232" y2="15.8127" gradientUnits="userSpaceOnUse">
<stop offset="0.411458" stop-color="#6396F9"/>
<stop offset="1" stop-color="#00D1FF"/>
</linearGradient>
<linearGradient id="paint2_linear_2341_1968" x1="15.5871" y1="20.7094" x2="31.3732" y2="20.9674" gradientUnits="userSpaceOnUse">
<stop offset="0.411458" stop-color="#6396F9"/>
<stop offset="1" stop-color="#00D1FF"/>
</linearGradient>
<linearGradient id="paint3_linear_2341_1968" x1="0.100228" y1="14.8523" x2="18.5402" y2="15.8127" gradientUnits="userSpaceOnUse">
<stop offset="0.411458" stop-color="#6396F9"/>
<stop offset="1" stop-color="#00D1FF"/>
</linearGradient>
<linearGradient id="paint4_linear_2341_1968" x1="15.4117" y1="2.73849" x2="24.1822" y2="2.97081" gradientUnits="userSpaceOnUse">
<stop offset="0.411458" stop-color="#6396F9"/>
<stop offset="1" stop-color="#00D1FF"/>
</linearGradient>
<linearGradient id="paint5_linear_2341_1968" x1="10.3388" y1="3.01784" x2="15.087" y2="3.14361" gradientUnits="userSpaceOnUse">
<stop offset="0.411458" stop-color="#6396F9"/>
<stop offset="1" stop-color="#00D1FF"/>
</linearGradient>
<linearGradient id="paint6_linear_2341_1968" x1="19.7606" y1="9.41237" x2="24.5092" y2="9.53816" gradientUnits="userSpaceOnUse">
<stop offset="0.411458" stop-color="#6396F9"/>
<stop offset="1" stop-color="#00D1FF"/>
</linearGradient>
<linearGradient id="paint7_linear_2341_1968" x1="13.9325" y1="8.12545" x2="18.6811" y2="8.25122" gradientUnits="userSpaceOnUse">
<stop offset="0.411458" stop-color="#6396F9"/>
<stop offset="1" stop-color="#00D1FF"/>
</linearGradient>
<linearGradient id="paint8_linear_2341_1968" x1="7.53762" y1="8.93885" x2="13.626" y2="9.10012" gradientUnits="userSpaceOnUse">
<stop offset="0.411458" stop-color="#6396F9"/>
<stop offset="1" stop-color="#00D1FF"/>
</linearGradient>
<clipPath id="clip0_2341_1968">
<rect width="33" height="33" fill="white"/>
</clipPath>
</defs>
</svg>
