<svg width="45" height="45" viewBox="0 0 45 45" fill="none" xmlns="http://www.w3.org/2000/svg">
<path d="M40.7578 8.73633H44.7286V34.5509H40.7578V8.73633Z" fill="#576993"/>
<path d="M40.7578 8.73633H44.7286V34.5509H40.7578V8.73633Z" fill="url(#paint0_linear_2185_804)"/>
<path d="M35.0312 8.73633H39.0075V34.5509H35.0312V8.73633Z" fill="#576993"/>
<path d="M35.0312 8.73633H39.0075V34.5509H35.0312V8.73633Z" fill="url(#paint1_linear_2185_804)"/>
<path d="M41.6402 0.0586018H38.1377C36.4216 0.0586018 35.0312 1.73054 35.0312 3.79003V6.9772L44.7375 6.97754V3.79002C44.7375 1.73087 43.3468 0.0585938 41.6398 0.0585938L41.6402 0.0586018Z" fill="#576993"/>
<path d="M41.6402 0.0586018H38.1377C36.4216 0.0586018 35.0312 1.73054 35.0312 3.79003V6.9772L44.7375 6.97754V3.79002C44.7375 1.73087 43.3468 0.0585938 41.6398 0.0585938L41.6402 0.0586018Z" fill="url(#paint2_linear_2185_804)"/>
<path d="M39.0948 43.7153C39.2458 44.0138 39.5523 44.2012 39.8869 44.1991C40.2188 44.2008 40.5227 44.0131 40.6699 43.7153L44.4053 36.3105H35.3672L39.0948 43.7153Z" fill="#576993"/>
<path d="M39.0948 43.7153C39.2458 44.0138 39.5523 44.2012 39.8869 44.1991C40.2188 44.2008 40.5227 44.0131 40.6699 43.7153L44.4053 36.3105H35.3672L39.0948 43.7153Z" fill="url(#paint3_linear_2185_804)"/>
<path d="M31.9485 0.0586699H13.7936V10.4607C13.7915 11.1603 13.513 11.8305 13.0184 12.3251C12.5234 12.8197 11.8533 13.0986 11.1537 13.1006H0.734375V43.1805C0.736063 43.666 1.12906 44.059 1.61459 44.0608H31.9495C32.1831 44.0614 32.4073 43.9689 32.5724 43.8038C32.7379 43.6384 32.83 43.4142 32.8294 43.1806V0.938813C32.8317 0.704505 32.7396 0.479307 32.5741 0.313868C32.4087 0.148429 32.1835 0.0565956 31.9495 0.0586267L31.9485 0.0586699ZM27.6978 39.6599H7.41319C6.92701 39.6599 6.53297 39.2659 6.53297 38.7797C6.53297 38.2939 6.92698 37.8999 7.41319 37.8999H27.6978C28.1837 37.8999 28.5777 38.2939 28.5777 38.7797C28.5777 39.2659 28.1837 39.6599 27.6978 39.6599ZM27.6978 31.7396H7.41319C6.92701 31.7396 6.53297 31.3456 6.53297 30.8594C6.53297 30.3735 6.92698 29.9795 7.41319 29.9795H27.6978C28.1837 29.9795 28.5777 30.3735 28.5777 30.8594C28.5777 31.3456 28.1837 31.7396 27.6978 31.7396ZM27.6978 23.8193H7.41319C6.92701 23.8193 6.53297 23.4253 6.53297 22.9394C6.53297 22.4532 6.92698 22.0592 7.41319 22.0592H27.6978C28.1837 22.0592 28.5777 22.4532 28.5777 22.9394C28.5777 23.4252 28.1837 23.8193 27.6978 23.8193ZM27.6978 15.8989H7.41319C6.92701 15.8989 6.53297 15.5049 6.53297 15.019C6.53297 14.5329 6.92698 14.1388 7.41319 14.1388H27.6978C28.1837 14.1388 28.5777 14.5328 28.5777 15.019C28.5777 15.5049 28.1837 15.8989 27.6978 15.8989ZM27.6978 7.97858H16.0019C15.5157 7.97858 15.1217 7.58457 15.1217 7.09871C15.1217 6.61253 15.5157 6.21848 16.0019 6.21848H27.6978C28.1837 6.21848 28.5777 6.61249 28.5777 7.09871C28.5777 7.58455 28.1837 7.97858 27.6978 7.97858Z" fill="#576993"/>
<path d="M31.9485 0.0586699H13.7936V10.4607C13.7915 11.1603 13.513 11.8305 13.0184 12.3251C12.5234 12.8197 11.8533 13.0986 11.1537 13.1006H0.734375V43.1805C0.736063 43.666 1.12906 44.059 1.61459 44.0608H31.9495C32.1831 44.0614 32.4073 43.9689 32.5724 43.8038C32.7379 43.6384 32.83 43.4142 32.8294 43.1806V0.938813C32.8317 0.704505 32.7396 0.479307 32.5741 0.313868C32.4087 0.148429 32.1835 0.0565956 31.9495 0.0586267L31.9485 0.0586699ZM27.6978 39.6599H7.41319C6.92701 39.6599 6.53297 39.2659 6.53297 38.7797C6.53297 38.2939 6.92698 37.8999 7.41319 37.8999H27.6978C28.1837 37.8999 28.5777 38.2939 28.5777 38.7797C28.5777 39.2659 28.1837 39.6599 27.6978 39.6599ZM27.6978 31.7396H7.41319C6.92701 31.7396 6.53297 31.3456 6.53297 30.8594C6.53297 30.3735 6.92698 29.9795 7.41319 29.9795H27.6978C28.1837 29.9795 28.5777 30.3735 28.5777 30.8594C28.5777 31.3456 28.1837 31.7396 27.6978 31.7396ZM27.6978 23.8193H7.41319C6.92701 23.8193 6.53297 23.4253 6.53297 22.9394C6.53297 22.4532 6.92698 22.0592 7.41319 22.0592H27.6978C28.1837 22.0592 28.5777 22.4532 28.5777 22.9394C28.5777 23.4252 28.1837 23.8193 27.6978 23.8193ZM27.6978 15.8989H7.41319C6.92701 15.8989 6.53297 15.5049 6.53297 15.019C6.53297 14.5329 6.92698 14.1388 7.41319 14.1388H27.6978C28.1837 14.1388 28.5777 14.5328 28.5777 15.019C28.5777 15.5049 28.1837 15.8989 27.6978 15.8989ZM27.6978 7.97858H16.0019C15.5157 7.97858 15.1217 7.58457 15.1217 7.09871C15.1217 6.61253 15.5157 6.21848 16.0019 6.21848H27.6978C28.1837 6.21848 28.5777 6.61249 28.5777 7.09871C28.5777 7.58455 28.1837 7.97858 27.6978 7.97858Z" fill="url(#paint4_linear_2185_804)"/>
<path d="M1.61432 11.3395H11.1538C11.6393 11.3382 12.0323 10.9448 12.0337 10.4596V0.928805C12.0316 0.571601 11.8172 0.249504 11.4881 0.110401C11.1585 -0.0239742 10.7807 0.0523294 10.5288 0.303861L0.998021 9.83468C0.745814 10.0855 0.669174 10.4633 0.803887 10.7925C0.938936 11.1217 1.25833 11.3378 1.61418 11.3395L1.61432 11.3395Z" fill="#576993"/>
<path d="M1.61432 11.3395H11.1538C11.6393 11.3382 12.0323 10.9448 12.0337 10.4596V0.928805C12.0316 0.571601 11.8172 0.249504 11.4881 0.110401C11.1585 -0.0239742 10.7807 0.0523294 10.5288 0.303861L0.998021 9.83468C0.745814 10.0855 0.669174 10.4633 0.803887 10.7925C0.938936 11.1217 1.25833 11.3378 1.61418 11.3395L1.61432 11.3395Z" fill="url(#paint5_linear_2185_804)"/>
<defs>
<linearGradient id="paint0_linear_2185_804" x1="40.2615" y1="18.4635" x2="45.4098" y2="18.4845" gradientUnits="userSpaceOnUse">
<stop offset="0.411458" stop-color="#6396F9"/>
<stop offset="1" stop-color="#00D1FF"/>
</linearGradient>
<linearGradient id="paint1_linear_2185_804" x1="34.5342" y1="18.4635" x2="39.6896" y2="18.4846" gradientUnits="userSpaceOnUse">
<stop offset="0.411458" stop-color="#6396F9"/>
<stop offset="1" stop-color="#00D1FF"/>
</linearGradient>
<linearGradient id="paint2_linear_2185_804" x1="33.818" y1="2.66573" x2="46.3855" y2="3.1328" gradientUnits="userSpaceOnUse">
<stop offset="0.411458" stop-color="#6396F9"/>
<stop offset="1" stop-color="#00D1FF"/>
</linearGradient>
<linearGradient id="paint3_linear_2185_804" x1="34.2374" y1="39.2831" x2="45.9453" y2="39.6384" gradientUnits="userSpaceOnUse">
<stop offset="0.411458" stop-color="#6396F9"/>
<stop offset="1" stop-color="#00D1FF"/>
</linearGradient>
<linearGradient id="paint4_linear_2185_804" x1="-3.2775" y1="16.6391" x2="38.3206" y2="17.4429" gradientUnits="userSpaceOnUse">
<stop offset="0.411458" stop-color="#6396F9"/>
<stop offset="1" stop-color="#00D1FF"/>
</linearGradient>
<linearGradient id="paint5_linear_2185_804" x1="-0.673642" y1="4.30085" x2="13.9614" y2="4.68859" gradientUnits="userSpaceOnUse">
<stop offset="0.411458" stop-color="#6396F9"/>
<stop offset="1" stop-color="#00D1FF"/>
</linearGradient>
</defs>
</svg>
