<svg width="33" height="25" viewBox="0 0 33 25" fill="none" xmlns="http://www.w3.org/2000/svg">
<path d="M4.87794 9.31465C4.5078 7.97272 4.84437 7.70427 5.21423 7.70427H5.28138C5.01223 6.93266 5.01223 6.19435 5.18038 5.52349C5.38209 4.71815 5.81938 4.0808 6.29052 3.57736C6.59324 3.24193 6.96338 2.97349 7.33326 2.73851C7.63597 2.53732 7.97226 2.33584 8.3424 2.2351C8.64511 2.13436 8.94783 2.06739 9.25053 2.06739C9.3851 2.06739 9.51968 2.0339 9.65424 2.0339C10.4617 2.0339 11.1007 2.26886 11.5715 2.53731C12.3789 2.97347 12.6817 3.57737 12.6817 3.57737C12.6817 3.57737 14.7335 3.71159 13.8254 8.00624C14.0946 8.10698 14.2963 8.47588 13.96 9.61662C13.6573 10.6904 13.3545 10.9924 13.1526 10.9924C13.0854 10.9924 13.0516 10.9589 12.9844 10.9254C12.8834 11.395 12.7489 11.9319 12.5136 12.4353V14.0122C12.5136 14.0792 12.5471 14.1465 12.6146 14.18C12.7827 14.2807 13.2536 14.4819 13.8257 14.8173C13.1867 15.2535 12.5138 15.7569 11.8746 16.2935C11.101 16.9309 10.6634 17.8704 10.6634 18.9105V21.7959H8.17426L0 21.7962V19.1455C0 18.5751 0.235567 18.0717 0.672856 17.7028C3.06128 15.7232 5.65143 14.4147 6.1897 14.1797C6.25685 14.1463 6.2907 14.079 6.2907 14.012V12.6363C5.92056 12.0324 5.75242 11.3613 5.6517 10.7574C5.4497 10.6567 5.18056 10.3882 4.87781 9.31471L4.87794 9.31465ZM23.4462 21.6281H26.0027C25.9692 21.4269 25.9356 21.2254 25.9356 20.9907C25.902 20.5881 26.0702 20.2191 26.3393 19.917C26.541 19.7158 26.7766 19.5815 27.0457 19.5143C26.642 19.0781 26.2383 18.34 26.2383 17.1992C26.2383 16.2262 26.6085 15.3874 27.2811 14.7162C27.3482 14.6493 27.4492 14.5485 27.5502 14.4813C26.6082 13.9444 25.9018 13.5755 25.6329 13.4412C25.5658 13.4077 25.5319 13.3405 25.5319 13.2735V11.5624C25.8011 11.0255 25.9356 10.4886 26.0366 9.95198C26.2722 10.1197 26.6421 10.019 27.0794 8.54274C27.4157 7.3347 27.2139 6.93236 26.9112 6.83161H26.8441C26.8777 6.6639 26.9112 6.56316 26.9112 6.56316C27.9204 1.89936 25.2964 2.10056 25.2964 2.10056C25.0947 1.16097 23.749 0.221667 22.5381 0.456388C21.327 0.724839 18.7704 0.4229 18.7704 0.4229C18.7369 0.959795 19.2077 1.3287 19.2077 1.3287C16.584 2.93908 17.6603 6.5629 17.6603 6.5629C17.2566 6.52941 16.7858 6.7641 17.223 8.30754C17.5593 9.44834 17.8284 9.75023 18.064 9.78374C18.165 10.4211 18.3667 11.1595 18.7369 11.7968V13.273C18.7369 13.34 18.7033 13.4072 18.6359 13.4407C18.064 13.7092 15.3057 15.1184 12.7153 17.2322C12.2444 17.6014 12.0089 18.1718 12.0089 18.7757V21.6276H20.789L23.4462 21.6281ZM32.3272 19.4808C32.7309 19.8499 32.9662 20.3865 32.9662 21.0911C32.9662 21.7623 32.7645 22.2992 32.3272 22.7015C31.9571 23.0369 31.5198 23.2719 30.9479 23.3726V24.3457C30.9479 24.4799 30.8469 24.5806 30.7124 24.5806H29.8713C29.7368 24.5806 29.6358 24.4799 29.6358 24.3457V23.4061C28.9294 23.3391 28.3239 23.0707 27.8528 22.6345C27.4155 22.2318 27.1799 21.6614 27.1463 20.9568C27.1463 20.8226 27.2473 20.6883 27.4155 20.6883L28.7948 20.6548C28.9293 20.6548 29.0639 20.7556 29.0639 20.8898C29.0975 21.2252 29.1985 21.4937 29.3666 21.6614C29.5683 21.8626 29.8375 21.9634 30.174 21.9634C30.4432 21.9634 30.6449 21.8964 30.813 21.7284C30.9476 21.5607 31.0147 21.3592 31.0147 21.091C31.0147 20.7891 30.9476 20.5541 30.813 20.3864C30.6785 20.2187 30.4093 20.051 30.0394 19.883C29.1313 19.5138 28.4584 19.1449 28.0547 18.7757C27.651 18.4065 27.4493 17.8699 27.4493 17.1315C27.4493 16.4942 27.6849 15.9573 28.1222 15.5212C28.5259 15.152 29.0303 14.9173 29.6696 14.8166V13.81C29.6696 13.6758 29.7706 13.5751 29.9052 13.5751H30.7462C30.8807 13.5751 30.9817 13.6758 30.9817 13.81V14.8501C31.5872 14.9843 32.0583 15.2527 32.4281 15.6554C32.7644 16.0581 32.9664 16.5612 33 17.1653C33 17.2995 32.899 17.4338 32.7309 17.4338L31.318 17.5345C31.1834 17.5345 31.0488 17.4338 31.0488 17.2995C31.0153 16.9976 30.9478 16.7627 30.8133 16.5949C30.6451 16.3937 30.4431 16.293 30.1743 16.293C29.9051 16.293 29.7034 16.3937 29.5688 16.5615C29.4343 16.7292 29.3671 16.9306 29.3671 17.1988C29.3671 17.4673 29.4343 17.6685 29.5688 17.8362C29.7034 18.0039 29.9725 18.1716 30.3424 18.3396C31.2506 18.7088 31.8898 19.1115 32.3271 19.4806L32.3272 19.4808Z" fill="#576993"/>
<path d="M4.87794 9.31465C4.5078 7.97272 4.84437 7.70427 5.21423 7.70427H5.28138C5.01223 6.93266 5.01223 6.19435 5.18038 5.52349C5.38209 4.71815 5.81938 4.0808 6.29052 3.57736C6.59324 3.24193 6.96338 2.97349 7.33326 2.73851C7.63597 2.53732 7.97226 2.33584 8.3424 2.2351C8.64511 2.13436 8.94783 2.06739 9.25053 2.06739C9.3851 2.06739 9.51968 2.0339 9.65424 2.0339C10.4617 2.0339 11.1007 2.26886 11.5715 2.53731C12.3789 2.97347 12.6817 3.57737 12.6817 3.57737C12.6817 3.57737 14.7335 3.71159 13.8254 8.00624C14.0946 8.10698 14.2963 8.47588 13.96 9.61662C13.6573 10.6904 13.3545 10.9924 13.1526 10.9924C13.0854 10.9924 13.0516 10.9589 12.9844 10.9254C12.8834 11.395 12.7489 11.9319 12.5136 12.4353V14.0122C12.5136 14.0792 12.5471 14.1465 12.6146 14.18C12.7827 14.2807 13.2536 14.4819 13.8257 14.8173C13.1867 15.2535 12.5138 15.7569 11.8746 16.2935C11.101 16.9309 10.6634 17.8704 10.6634 18.9105V21.7959H8.17426L0 21.7962V19.1455C0 18.5751 0.235567 18.0717 0.672856 17.7028C3.06128 15.7232 5.65143 14.4147 6.1897 14.1797C6.25685 14.1463 6.2907 14.079 6.2907 14.012V12.6363C5.92056 12.0324 5.75242 11.3613 5.6517 10.7574C5.4497 10.6567 5.18056 10.3882 4.87781 9.31471L4.87794 9.31465ZM23.4462 21.6281H26.0027C25.9692 21.4269 25.9356 21.2254 25.9356 20.9907C25.902 20.5881 26.0702 20.2191 26.3393 19.917C26.541 19.7158 26.7766 19.5815 27.0457 19.5143C26.642 19.0781 26.2383 18.34 26.2383 17.1992C26.2383 16.2262 26.6085 15.3874 27.2811 14.7162C27.3482 14.6493 27.4492 14.5485 27.5502 14.4813C26.6082 13.9444 25.9018 13.5755 25.6329 13.4412C25.5658 13.4077 25.5319 13.3405 25.5319 13.2735V11.5624C25.8011 11.0255 25.9356 10.4886 26.0366 9.95198C26.2722 10.1197 26.6421 10.019 27.0794 8.54274C27.4157 7.3347 27.2139 6.93236 26.9112 6.83161H26.8441C26.8777 6.6639 26.9112 6.56316 26.9112 6.56316C27.9204 1.89936 25.2964 2.10056 25.2964 2.10056C25.0947 1.16097 23.749 0.221667 22.5381 0.456388C21.327 0.724839 18.7704 0.4229 18.7704 0.4229C18.7369 0.959795 19.2077 1.3287 19.2077 1.3287C16.584 2.93908 17.6603 6.5629 17.6603 6.5629C17.2566 6.52941 16.7858 6.7641 17.223 8.30754C17.5593 9.44834 17.8284 9.75023 18.064 9.78374C18.165 10.4211 18.3667 11.1595 18.7369 11.7968V13.273C18.7369 13.34 18.7033 13.4072 18.6359 13.4407C18.064 13.7092 15.3057 15.1184 12.7153 17.2322C12.2444 17.6014 12.0089 18.1718 12.0089 18.7757V21.6276H20.789L23.4462 21.6281ZM32.3272 19.4808C32.7309 19.8499 32.9662 20.3865 32.9662 21.0911C32.9662 21.7623 32.7645 22.2992 32.3272 22.7015C31.9571 23.0369 31.5198 23.2719 30.9479 23.3726V24.3457C30.9479 24.4799 30.8469 24.5806 30.7124 24.5806H29.8713C29.7368 24.5806 29.6358 24.4799 29.6358 24.3457V23.4061C28.9294 23.3391 28.3239 23.0707 27.8528 22.6345C27.4155 22.2318 27.1799 21.6614 27.1463 20.9568C27.1463 20.8226 27.2473 20.6883 27.4155 20.6883L28.7948 20.6548C28.9293 20.6548 29.0639 20.7556 29.0639 20.8898C29.0975 21.2252 29.1985 21.4937 29.3666 21.6614C29.5683 21.8626 29.8375 21.9634 30.174 21.9634C30.4432 21.9634 30.6449 21.8964 30.813 21.7284C30.9476 21.5607 31.0147 21.3592 31.0147 21.091C31.0147 20.7891 30.9476 20.5541 30.813 20.3864C30.6785 20.2187 30.4093 20.051 30.0394 19.883C29.1313 19.5138 28.4584 19.1449 28.0547 18.7757C27.651 18.4065 27.4493 17.8699 27.4493 17.1315C27.4493 16.4942 27.6849 15.9573 28.1222 15.5212C28.5259 15.152 29.0303 14.9173 29.6696 14.8166V13.81C29.6696 13.6758 29.7706 13.5751 29.9052 13.5751H30.7462C30.8807 13.5751 30.9817 13.6758 30.9817 13.81V14.8501C31.5872 14.9843 32.0583 15.2527 32.4281 15.6554C32.7644 16.0581 32.9664 16.5612 33 17.1653C33 17.2995 32.899 17.4338 32.7309 17.4338L31.318 17.5345C31.1834 17.5345 31.0488 17.4338 31.0488 17.2995C31.0153 16.9976 30.9478 16.7627 30.8133 16.5949C30.6451 16.3937 30.4431 16.293 30.1743 16.293C29.9051 16.293 29.7034 16.3937 29.5688 16.5615C29.4343 16.7292 29.3671 16.9306 29.3671 17.1988C29.3671 17.4673 29.4343 17.6685 29.5688 17.8362C29.7034 18.0039 29.9725 18.1716 30.3424 18.3396C31.2506 18.7088 31.8898 19.1115 32.3271 19.4806L32.3272 19.4808Z" fill="url(#paint0_linear_2341_1996)"/>
<defs>
<linearGradient id="paint0_linear_2341_1996" x1="-4.125" y1="9.52396" x2="38.606" y2="11.0701" gradientUnits="userSpaceOnUse">
<stop offset="0.411458" stop-color="#6396F9"/>
<stop offset="1" stop-color="#00D1FF"/>
</linearGradient>
</defs>
</svg>
