<svg width="41" height="54" viewBox="0 0 41 54" fill="none" xmlns="http://www.w3.org/2000/svg">
<path d="M9.76131 2.65987C5.24926 5.30827 2.02142 9.58527 0.673066 14.702C-0.675577 19.8187 0.0168053 25.1634 2.62162 29.7509C6.09596 35.869 12.5742 39.6697 19.5289 39.6697C21.7248 39.6697 23.9037 39.2854 25.9693 38.5479L34.7437 54L41 50.3274L32.227 34.8779C35.1905 32.3 37.324 28.881 38.3553 24.9677C39.7037 19.851 39.0113 14.5066 36.4065 9.91874C32.9324 3.80073 26.4539 0 19.4994 0C16.093 0 12.7256 0.919627 9.76131 2.65987ZM30.1502 13.5914C31.7904 16.4798 32.2262 19.8451 31.3772 23.0668C30.5281 26.2884 28.4958 28.9812 25.6549 30.6488C23.7875 31.745 21.6691 32.3244 19.5289 32.3244C15.1472 32.3244 11.066 29.9311 8.8782 26.0783C7.23798 23.1899 6.80221 19.8249 7.6515 16.6029C8.50051 13.3813 10.5329 10.6885 13.3738 9.02057C15.2408 7.92465 17.3593 7.34526 19.4994 7.34526C23.8815 7.34526 27.9623 9.73864 30.1502 13.5914Z" fill="#576993"/>
<path d="M9.76131 2.65987C5.24926 5.30827 2.02142 9.58527 0.673066 14.702C-0.675577 19.8187 0.0168053 25.1634 2.62162 29.7509C6.09596 35.869 12.5742 39.6697 19.5289 39.6697C21.7248 39.6697 23.9037 39.2854 25.9693 38.5479L34.7437 54L41 50.3274L32.227 34.8779C35.1905 32.3 37.324 28.881 38.3553 24.9677C39.7037 19.851 39.0113 14.5066 36.4065 9.91874C32.9324 3.80073 26.4539 0 19.4994 0C16.093 0 12.7256 0.919627 9.76131 2.65987ZM30.1502 13.5914C31.7904 16.4798 32.2262 19.8451 31.3772 23.0668C30.5281 26.2884 28.4958 28.9812 25.6549 30.6488C23.7875 31.745 21.6691 32.3244 19.5289 32.3244C15.1472 32.3244 11.066 29.9311 8.8782 26.0783C7.23798 23.1899 6.80221 19.8249 7.6515 16.6029C8.50051 13.3813 10.5329 10.6885 13.3738 9.02057C15.2408 7.92465 17.3593 7.34526 19.4994 7.34526C23.8815 7.34526 27.9623 9.73864 30.1502 13.5914Z" fill="url(#paint0_linear_3526_5033)"/>
<defs>
<linearGradient id="paint0_linear_3526_5033" x1="-5.125" y1="20.3478" x2="48.0131" y2="21.4167" gradientUnits="userSpaceOnUse">
<stop offset="0.411458" stop-color="#6396F9"/>
<stop offset="1" stop-color="#00D1FF"/>
</linearGradient>
</defs>
</svg>
