<svg width="66" height="66" viewBox="0 0 66 66" fill="none" xmlns="http://www.w3.org/2000/svg">
<path d="M32.9992 0C14.7745 0 0 14.7749 0 32.9997C0 51.224 14.7745 66 32.9992 66C51.224 66 65.9996 51.224 65.9996 32.9997C65.9996 14.7745 51.224 0 32.9992 0ZM33.0998 48.5683V48.5679H32.8982H18.8023C18.8023 38.2595 27.8558 38.2619 29.8649 35.5664L30.0948 34.3373C27.2721 32.9068 25.2796 29.4581 25.2796 25.4246C25.2796 20.1106 28.7362 15.8021 32.9992 15.8021C37.2622 15.8021 40.7189 20.1106 40.7189 25.4246C40.7189 29.4238 38.7617 32.8509 35.9767 34.3041L36.2385 35.7009C38.4427 38.2656 47.1951 38.4328 47.1951 48.5683H33.0998V48.5683Z" fill="#576993"/>
<path d="M32.9992 0C14.7745 0 0 14.7749 0 32.9997C0 51.224 14.7745 66 32.9992 66C51.224 66 65.9996 51.224 65.9996 32.9997C65.9996 14.7745 51.224 0 32.9992 0ZM33.0998 48.5683V48.5679H32.8982H18.8023C18.8023 38.2595 27.8558 38.2619 29.8649 35.5664L30.0948 34.3373C27.2721 32.9068 25.2796 29.4581 25.2796 25.4246C25.2796 20.1106 28.7362 15.8021 32.9992 15.8021C37.2622 15.8021 40.7189 20.1106 40.7189 25.4246C40.7189 29.4238 38.7617 32.8509 35.9767 34.3041L36.2385 35.7009C38.4427 38.2656 47.1951 38.4328 47.1951 48.5683H33.0998V48.5683Z" fill="url(#paint0_linear_3526_4984)"/>
<defs>
<linearGradient id="paint0_linear_3526_4984" x1="-8.24994" y1="24.8696" x2="77.2634" y2="27.135" gradientUnits="userSpaceOnUse">
<stop offset="0.411458" stop-color="#6396F9"/>
<stop offset="1" stop-color="#00D1FF"/>
</linearGradient>
</defs>
</svg>
