<svg width="52" height="114" viewBox="0 0 52 114" fill="none" xmlns="http://www.w3.org/2000/svg">
<circle opacity="0.1" cx="26" cy="26" r="26" fill="white"/>
<g opacity="0.1">
<path d="M8.00008 96.9317C8.00008 96.2458 8.16658 95.5751 8.47924 95.002C8.90389 94.2264 9.56632 93.6866 10.3204 93.5006C11.0751 93.3147 11.8597 93.4985 12.5018 94.0107L24.9335 103.932L24.9335 31.5088C24.9335 30.2549 25.4869 29.0966 26.386 28.4699C27.2844 27.8433 28.3918 27.8433 29.2902 28.4699C30.1892 29.0965 30.7426 30.255 30.7426 31.5088L30.7426 103.914L42.4843 94.4834C43.3492 93.7888 44.4553 93.7049 45.3856 94.2635C46.3158 94.8213 46.929 95.9363 46.9943 97.1888C47.059 98.4413 46.5661 99.6402 45.7012 100.334L29.4575 113.37L29.3778 113.431C28.7897 113.894 28.0829 114.084 27.388 113.966C26.9514 113.893 26.5357 113.694 26.1752 113.387L9.29972 99.8602C8.48635 99.2097 7.99821 98.1092 8 96.9306L8.00008 96.9317Z" fill="#576993"/>
<path d="M8.00008 96.9317C8.00008 96.2458 8.16658 95.5751 8.47924 95.002C8.90389 94.2264 9.56632 93.6866 10.3204 93.5006C11.0751 93.3147 11.8597 93.4985 12.5018 94.0107L24.9335 103.932L24.9335 31.5088C24.9335 30.2549 25.4869 29.0966 26.386 28.4699C27.2844 27.8433 28.3918 27.8433 29.2902 28.4699C30.1892 29.0965 30.7426 30.255 30.7426 31.5088L30.7426 103.914L42.4843 94.4834C43.3492 93.7888 44.4553 93.7049 45.3856 94.2635C46.3158 94.8213 46.929 95.9363 46.9943 97.1888C47.059 98.4413 46.5661 99.6402 45.7012 100.334L29.4575 113.37L29.3778 113.431C28.7897 113.894 28.0829 114.084 27.388 113.966C26.9514 113.893 26.5357 113.694 26.1752 113.387L9.29972 99.8602C8.48635 99.2097 7.99821 98.1092 8 96.9306L8.00008 96.9317Z" fill="url(#paint0_linear_2341_1922)"/>
</g>
<path d="M6.00008 94.9317C6.00008 94.2458 6.16658 93.5751 6.47924 93.002C6.90389 92.2264 7.56632 91.6866 8.32042 91.5006C9.0751 91.3147 9.8597 91.4985 10.5018 92.0107L22.9335 101.932L22.9335 29.5088C22.9335 28.2549 23.4869 27.0966 24.386 26.4699C25.2844 25.8433 26.3918 25.8433 27.2902 26.4699C28.1892 27.0965 28.7426 28.255 28.7426 29.5088L28.7426 101.914L40.4843 92.4834C41.3492 91.7888 42.4553 91.7049 43.3856 92.2635C44.3158 92.8213 44.929 93.9363 44.9943 95.1888C45.059 96.4413 44.5661 97.6402 43.7012 98.334L27.4575 111.37L27.3778 111.431C26.7897 111.894 26.0829 112.084 25.388 111.966C24.9514 111.893 24.5357 111.694 24.1752 111.387L7.29972 97.8602C6.48635 97.2097 5.99821 96.1092 6 94.9306L6.00008 94.9317Z" fill="#576993"/>
<path d="M6.00008 94.9317C6.00008 94.2458 6.16658 93.5751 6.47924 93.002C6.90389 92.2264 7.56632 91.6866 8.32042 91.5006C9.0751 91.3147 9.8597 91.4985 10.5018 92.0107L22.9335 101.932L22.9335 29.5088C22.9335 28.2549 23.4869 27.0966 24.386 26.4699C25.2844 25.8433 26.3918 25.8433 27.2902 26.4699C28.1892 27.0965 28.7426 28.255 28.7426 29.5088L28.7426 101.914L40.4843 92.4834C41.3492 91.7888 42.4553 91.7049 43.3856 92.2635C44.3158 92.8213 44.929 93.9363 44.9943 95.1888C45.059 96.4413 44.5661 97.6402 43.7012 98.334L27.4575 111.37L27.3778 111.431C26.7897 111.894 26.0829 112.084 25.388 111.966C24.9514 111.893 24.5357 111.694 24.1752 111.387L7.29972 97.8602C6.48635 97.2097 5.99821 96.1092 6 94.9306L6.00008 94.9317Z" fill="url(#paint1_linear_2341_1922)"/>
<defs>
<linearGradient id="paint0_linear_2341_1922" x1="32.3043" y1="17.25" x2="25.8126" y2="128.376" gradientUnits="userSpaceOnUse">
<stop offset="0.411458" stop-color="#6396F9"/>
<stop offset="1" stop-color="#00D1FF"/>
</linearGradient>
<linearGradient id="paint1_linear_2341_1922" x1="30.3043" y1="15.25" x2="23.8126" y2="126.376" gradientUnits="userSpaceOnUse">
<stop offset="0.411458" stop-color="#6396F9"/>
<stop offset="1" stop-color="#00D1FF"/>
</linearGradient>
</defs>
</svg>
