<svg width="86" height="86" viewBox="0 0 86 86" fill="none" xmlns="http://www.w3.org/2000/svg">
<path d="M83.0453 68.7805L61.2607 47.0555C63.5479 42.5615 64.7861 37.5745 64.7861 32.3888C64.7861 23.737 61.4136 15.603 55.2973 9.48677C49.1809 3.36862 41.0449 0 32.393 0C23.743 0 15.6051 3.36862 9.48881 9.48677C3.37248 15.6049 0 23.7389 0 32.3907C0 41.0425 3.37057 49.1764 9.48881 55.2927C15.6051 61.4108 23.7411 64.7794 32.3911 64.7794C37.5769 64.7794 42.5659 63.5451 47.0562 61.2599L68.7834 83.046C70.7495 85.0122 73.3348 86 75.9143 86C78.4938 86 81.0753 85.0122 83.0433 83.046C86.9852 79.1042 86.9852 72.7204 83.0453 68.7805ZM18.0452 46.7345C14.2141 42.9016 12.1046 37.8095 12.1046 32.3907C12.1046 26.9719 14.2141 21.8778 18.0471 18.0449C21.8781 14.2139 26.9722 12.1026 32.3911 12.1026C37.81 12.1026 42.9041 14.212 46.7371 18.0449C50.5681 21.8759 52.6795 26.9699 52.6795 32.3888C52.6795 37.8076 50.5681 42.9016 46.7371 46.7345C42.9041 50.5655 37.8081 52.675 32.3911 52.675C26.9741 52.675 21.8801 50.5674 18.0452 46.7345Z" fill="white"/>
</svg>
