<svg width="112" height="104" viewBox="0 0 112 104" fill="none" xmlns="http://www.w3.org/2000/svg">
<path d="M82.2388 79.6264C76.872 79.6262 72.5056 75.2601 72.5056 69.8932V53.7292C72.5056 48.3623 76.872 43.9962 82.2388 43.9962H107.6C107.754 43.9962 107.906 44.0009 108.058 44.0077V27.9057C108.058 23.7609 104.698 20.4009 100.554 20.4009H7.50508C3.36002 20.4006 0 23.7607 0 27.9055V95.7167C0 99.8615 3.36002 103.222 7.50508 103.222H100.554C104.698 103.222 108.058 99.8618 108.058 95.7167V79.6147C107.906 79.6218 107.754 79.6264 107.6 79.6264H82.2388Z" fill="white"/>
<path d="M107.6 49.3296H82.2387C79.8088 49.3296 77.8389 51.2995 77.8389 53.7294V69.8935C77.8389 72.3233 79.8088 74.2933 82.2387 74.2933H107.6C110.03 74.2933 112 72.3236 112 69.8935V53.7294C112 51.2993 110.03 49.3296 107.6 49.3296ZM90.9778 68.1617C87.4705 68.1617 84.6273 65.3185 84.6273 61.8112C84.6273 58.3039 87.4705 55.4607 90.9778 55.4607C94.4851 55.4607 97.3282 58.3039 97.3282 61.8112C97.3282 65.3185 94.4851 68.1617 90.9778 68.1617Z" fill="white"/>
<path d="M87.4854 6.65349C85.8064 1.57146 80.3255 -1.1872 75.2437 0.491836L37.1167 13.088H89.6112L87.4854 6.65349Z" fill="white"/>
</svg>
