<svg width="58" height="58" viewBox="0 0 58 58" fill="none" xmlns="http://www.w3.org/2000/svg">
<path d="M29 58C23.78 58 18.9467 56.695 14.5 54.085C10.0533 51.475 6.525 47.9467 3.915 43.5C1.305 39.0533 0 34.22 0 29C0 23.78 1.305 18.9467 3.915 14.5C6.525 10.0533 10.0533 6.525 14.5 3.915C18.9467 1.305 23.78 0 29 0C34.22 0 39.0533 1.305 43.5 3.915C47.9467 6.525 51.475 10.0533 54.085 14.5C56.695 18.9467 58 23.78 58 29C58 34.22 56.695 39.0533 54.085 43.5C51.475 47.9467 47.9467 51.475 43.5 54.085C39.0533 56.695 34.22 58 29 58ZM29 33.64L38.28 42.92L42.92 38.28L33.64 29L42.92 19.72L38.28 15.08L29 24.36L19.72 15.08L15.08 19.72L24.36 29L15.08 38.28L19.72 42.92L29 33.64Z" fill="#576993"/>
<path d="M29 58C23.78 58 18.9467 56.695 14.5 54.085C10.0533 51.475 6.525 47.9467 3.915 43.5C1.305 39.0533 0 34.22 0 29C0 23.78 1.305 18.9467 3.915 14.5C6.525 10.0533 10.0533 6.525 14.5 3.915C18.9467 1.305 23.78 0 29 0C34.22 0 39.0533 1.305 43.5 3.915C47.9467 6.525 51.475 10.0533 54.085 14.5C56.695 18.9467 58 23.78 58 29C58 34.22 56.695 39.0533 54.085 43.5C51.475 47.9467 47.9467 51.475 43.5 54.085C39.0533 56.695 34.22 58 29 58ZM29 33.64L38.28 42.92L42.92 38.28L33.64 29L42.92 19.72L38.28 15.08L29 24.36L19.72 15.08L15.08 19.72L24.36 29L15.08 38.28L19.72 42.92L29 33.64Z" fill="url(#paint0_linear_3526_5005)"/>
<defs>
<linearGradient id="paint0_linear_3526_5005" x1="-7.25" y1="21.8551" x2="67.8986" y2="23.8459" gradientUnits="userSpaceOnUse">
<stop offset="0.411458" stop-color="#6396F9"/>
<stop offset="1" stop-color="#00D1FF"/>
</linearGradient>
</defs>
</svg>
