<svg width="53" height="54" viewBox="0 0 53 54" fill="none" xmlns="http://www.w3.org/2000/svg">
<path d="M31.6338 0.60209C20.2372 0.60209 10.9531 9.88617 10.9531 21.2828V21.7276H11.4534C12.2317 21.7276 13.0654 21.783 13.8437 21.9498V21.3382C13.8437 16.6685 15.6783 12.3877 18.6247 9.21891C18.736 9.27436 18.9028 9.38566 19.0695 9.49695C19.1808 9.60825 19.2363 10.4974 19.1808 11.387V11.4425C19.1808 11.4425 19.9591 13.2771 19.2363 14.7224C18.458 16.279 18.6247 18.7806 19.014 19.3921C19.3475 19.8924 21.0709 22.0605 21.2935 22.3386C21.4602 22.5608 22.0718 24.1177 22.1272 24.3399C22.1827 24.5621 23.2949 25.8965 24.4621 25.8965C25.1291 25.8965 25.9075 26.2859 26.4635 26.5081C26.7415 26.6748 26.9083 26.7303 27.075 26.7303C27.1305 26.7303 27.1863 26.8416 27.2418 26.9525C27.4085 27.2305 27.6866 27.6753 28.2982 28.0089C28.4649 28.1202 28.6317 28.2311 28.7984 28.2869C29.41 28.6204 30.2437 29.0652 30.2995 29.2319C30.2995 29.2874 30.1882 29.4541 30.0773 29.5654C29.688 30.0102 29.0768 30.7331 29.2436 31.6781C29.4658 33.0124 31.3562 34.6245 31.9677 35.0139C32.3571 35.2919 32.19 38.0157 31.9677 38.5164C31.8561 38.6276 31.8561 38.8502 31.8561 39.1279H31.6339C29.5212 39.1279 27.5199 38.7386 25.6298 38.0715C25.5185 39.0166 25.2404 39.9616 24.9628 40.8512C27.0754 41.574 29.2991 41.963 31.6339 41.963C43.0305 41.963 52.3146 32.6789 52.3146 21.2823C52.3142 9.88564 43.0302 0.601562 31.6339 0.601562L31.6338 0.60209ZM47.1999 30.0109C44.7537 34.4026 40.473 37.6271 35.4142 38.7393C35.5809 38.5725 35.7477 38.4058 35.7477 38.2945C35.7477 38.239 35.9699 38.1832 36.0812 38.0723C36.3592 37.9055 36.6927 37.7388 36.804 37.5162C37.0262 37.1827 37.5823 36.5711 37.8604 36.4598C38.1939 36.2931 40.3066 34.3472 40.4732 34.0695C40.8067 33.2912 41.2515 32.4016 41.5296 32.2349C41.9744 31.8456 41.5851 31.1785 41.4183 30.9006L41.3629 30.8451C41.1961 30.5671 39.973 30.4003 39.8063 30.4558C39.5841 30.4558 38.5832 29.8997 38.4719 29.733C38.4719 29.3995 37.4714 28.3986 37.1934 28.3986C37.0821 28.3986 36.4705 28.2873 36.137 27.8425C35.7477 27.3423 34.3578 27.0642 33.9135 27.0642C33.5241 27.0642 32.9684 27.0088 32.5791 26.7862C32.1898 26.6194 31.6341 26.8416 31.0225 27.1197C30.9112 27.1751 30.8003 27.231 30.689 27.231C30.4668 27.2864 29.2992 27.0642 29.0211 26.9529C28.9098 26.8975 28.9098 26.3969 28.8544 26.1747C28.8544 25.8412 28.7989 25.6744 28.7431 25.5631C28.6318 25.3964 28.3537 25.3409 27.8535 25.1738C27.6867 25.1183 27.52 25.0625 27.4642 25.0625C27.4642 25.007 27.5755 24.8403 27.5755 24.729C27.7977 24.2842 27.8535 24.0061 27.7977 23.7839C27.7422 23.7285 27.6864 23.6726 27.5755 23.6172C27.2974 23.5617 26.9639 23.8394 26.575 24.1174C26.4082 24.2287 26.1302 24.4509 26.0747 24.4509C25.8525 24.4509 25.3519 24.2287 24.7962 23.8948C24.4627 23.6726 24.8516 22.6718 25.0184 22.1716C25.1297 21.9494 25.1851 21.7268 25.1851 21.6155C25.1851 21.5042 25.7967 21.3374 26.6305 21.3374C26.8527 21.3374 27.1865 21.282 27.52 21.2261C27.7981 21.1707 28.0761 21.1148 28.2429 21.1148C28.3542 21.1148 28.5764 21.4483 28.7431 21.6709C28.9653 22.0044 29.1325 22.227 29.3547 22.227C29.6882 22.1716 29.6882 21.7268 29.6327 21.3933V21.1152C29.6882 20.893 30.133 20.1702 30.4665 19.9476C30.9112 19.6695 31.4669 18.8912 31.3002 18.4464C31.3002 18.2797 32.0785 17.7794 32.3007 17.6127C32.412 17.5573 32.5229 17.446 32.5787 17.3905C32.6342 17.3351 32.7455 17.2792 32.8009 17.2238C33.079 17.1125 33.4125 16.8903 33.4125 16.4455C33.4125 16.1674 34.2462 16.0561 34.7468 16.0007C34.8581 16.0007 34.969 15.9452 35.0803 15.9452C35.4138 15.8898 35.5806 15.7785 35.6364 15.6672C35.7477 15.5004 35.6364 15.2778 35.5251 15.0556C35.5251 15.0002 35.4697 14.9443 35.4697 14.8334C35.3029 14.4441 35.4142 14.1664 35.7477 13.8884C35.9144 13.7771 36.2479 13.7216 36.526 13.7216C36.8595 13.6662 37.2488 13.6103 37.5824 13.4994C37.8046 13.3881 37.9717 13.2772 38.0271 13.1101C38.0826 12.8879 37.9159 12.7207 37.8049 12.554C37.7495 12.4985 37.6936 12.4427 37.6936 12.3318C37.5269 11.9425 37.1934 11.7202 36.9708 11.5535C36.8595 11.4422 36.7486 10.942 36.6928 10.6639C36.6373 10.4417 36.6373 10.2746 36.5815 10.1637C36.526 10.0524 36.4702 9.94147 36.3593 9.94147C36.0812 9.83018 35.6364 9.99693 35.4142 10.1082C35.4142 10.0528 35.4142 9.94147 35.3588 9.88602C35.3033 9.71927 35.3033 9.49668 35.192 9.44122C35.1366 9.38577 34.9698 9.21902 34.8027 9.05188C34.5246 8.82968 34.1911 8.49579 34.0244 8.32905C33.9131 8.21775 33.7464 8.1623 33.6909 8.21775C33.4129 8.27321 33.1348 8.6071 32.9126 8.99604C32.8572 9.05149 32.8572 9.10734 32.8572 9.10734C32.4678 9.71888 32.4124 10.1078 32.6904 10.3304C32.6904 10.3304 32.7459 10.4417 32.635 10.6084C32.5237 10.8865 32.3015 11.1087 32.1902 11.1087C31.8567 11.1087 31.7454 11.5535 31.6341 11.9983C31.6341 12.165 31.5786 12.4431 31.5228 12.5544C31.4115 12.4989 31.356 12.2209 31.356 11.3867V11.2754C31.356 11.1641 31.3006 11.0532 31.2447 11.0532C31.1334 10.9419 31.0225 10.9419 30.8554 10.9977C30.6886 10.9977 30.6332 10.9977 30.5773 10.9423C30.3551 10.6088 29.4097 10.2753 29.0762 10.1086V8.99679C29.1875 8.83004 30.6882 7.82913 31.0222 7.71824C31.467 7.55149 32.6901 6.7732 32.9123 6.60647C33.1345 6.43972 33.1345 6.27297 33.1345 6.21713C33.079 5.82779 32.4116 5.55013 32.134 5.43885C31.9118 4.9386 31.5779 4.9386 31.1335 4.9386C30.9113 4.9386 30.6887 4.9386 30.4107 4.88314C29.2989 4.71639 28.3538 4.66094 27.631 4.77185C27.0749 4.8273 26.4634 4.71639 25.9631 4.6051C25.6851 4.54964 25.4629 4.4938 25.2961 4.4938C27.2975 3.71552 29.4101 3.27075 31.6891 3.27075C34.1353 3.27075 36.4702 3.771 38.5828 4.66058C38.6383 4.88279 38.6941 5.04992 38.805 5.21667C39.0272 5.71692 39.4166 6.60651 39.4166 7.27353C39.4166 7.94055 39.472 8.66336 39.4166 8.88553C39.3611 9.10771 40.7509 10.6647 41.0845 10.7201C41.418 10.7756 41.5847 10.5534 41.8073 10.2199C42.0295 9.88636 42.2521 9.55286 42.8078 9.10809C43.308 8.71875 44.4198 8.83005 44.7537 8.88589C45.3098 9.49744 45.8655 10.1644 46.3657 10.8872C46.2544 10.9985 46.1435 11.054 46.0877 11.1095C45.8096 11.3875 45.0872 12.1099 45.1981 12.6661C45.3094 13.2222 45.8651 13.8891 46.5879 14.2781C47.3108 14.6674 47.4217 15.3898 47.4217 15.5011C47.4217 15.6124 48.4222 16.2794 48.4222 16.2794C48.4222 16.2794 48.0328 17.1131 47.8106 17.1131C47.5884 17.1131 47.4213 17.9469 47.4213 18.2808C47.4213 18.6143 47.8106 19.2258 48.3109 19.5593C48.7556 19.8929 49.4785 18.9478 49.4785 18.9478C49.534 19.5039 49.5898 20.0596 49.5898 20.5598C49.145 20.5598 48.3668 20.8933 48.1445 21.1159C47.8664 21.3939 47.1994 23.4508 46.9214 23.6734C46.6434 23.8956 46.0318 26.7311 45.9764 27.0646C45.7546 27.6207 46.6442 30.011 47.1998 30.011L47.1999 30.0109Z" fill="#576993"/>
<path d="M31.6338 0.60209C20.2372 0.60209 10.9531 9.88617 10.9531 21.2828V21.7276H11.4534C12.2317 21.7276 13.0654 21.783 13.8437 21.9498V21.3382C13.8437 16.6685 15.6783 12.3877 18.6247 9.21891C18.736 9.27436 18.9028 9.38566 19.0695 9.49695C19.1808 9.60825 19.2363 10.4974 19.1808 11.387V11.4425C19.1808 11.4425 19.9591 13.2771 19.2363 14.7224C18.458 16.279 18.6247 18.7806 19.014 19.3921C19.3475 19.8924 21.0709 22.0605 21.2935 22.3386C21.4602 22.5608 22.0718 24.1177 22.1272 24.3399C22.1827 24.5621 23.2949 25.8965 24.4621 25.8965C25.1291 25.8965 25.9075 26.2859 26.4635 26.5081C26.7415 26.6748 26.9083 26.7303 27.075 26.7303C27.1305 26.7303 27.1863 26.8416 27.2418 26.9525C27.4085 27.2305 27.6866 27.6753 28.2982 28.0089C28.4649 28.1202 28.6317 28.2311 28.7984 28.2869C29.41 28.6204 30.2437 29.0652 30.2995 29.2319C30.2995 29.2874 30.1882 29.4541 30.0773 29.5654C29.688 30.0102 29.0768 30.7331 29.2436 31.6781C29.4658 33.0124 31.3562 34.6245 31.9677 35.0139C32.3571 35.2919 32.19 38.0157 31.9677 38.5164C31.8561 38.6276 31.8561 38.8502 31.8561 39.1279H31.6339C29.5212 39.1279 27.5199 38.7386 25.6298 38.0715C25.5185 39.0166 25.2404 39.9616 24.9628 40.8512C27.0754 41.574 29.2991 41.963 31.6339 41.963C43.0305 41.963 52.3146 32.6789 52.3146 21.2823C52.3142 9.88564 43.0302 0.601562 31.6339 0.601562L31.6338 0.60209ZM47.1999 30.0109C44.7537 34.4026 40.473 37.6271 35.4142 38.7393C35.5809 38.5725 35.7477 38.4058 35.7477 38.2945C35.7477 38.239 35.9699 38.1832 36.0812 38.0723C36.3592 37.9055 36.6927 37.7388 36.804 37.5162C37.0262 37.1827 37.5823 36.5711 37.8604 36.4598C38.1939 36.2931 40.3066 34.3472 40.4732 34.0695C40.8067 33.2912 41.2515 32.4016 41.5296 32.2349C41.9744 31.8456 41.5851 31.1785 41.4183 30.9006L41.3629 30.8451C41.1961 30.5671 39.973 30.4003 39.8063 30.4558C39.5841 30.4558 38.5832 29.8997 38.4719 29.733C38.4719 29.3995 37.4714 28.3986 37.1934 28.3986C37.0821 28.3986 36.4705 28.2873 36.137 27.8425C35.7477 27.3423 34.3578 27.0642 33.9135 27.0642C33.5241 27.0642 32.9684 27.0088 32.5791 26.7862C32.1898 26.6194 31.6341 26.8416 31.0225 27.1197C30.9112 27.1751 30.8003 27.231 30.689 27.231C30.4668 27.2864 29.2992 27.0642 29.0211 26.9529C28.9098 26.8975 28.9098 26.3969 28.8544 26.1747C28.8544 25.8412 28.7989 25.6744 28.7431 25.5631C28.6318 25.3964 28.3537 25.3409 27.8535 25.1738C27.6867 25.1183 27.52 25.0625 27.4642 25.0625C27.4642 25.007 27.5755 24.8403 27.5755 24.729C27.7977 24.2842 27.8535 24.0061 27.7977 23.7839C27.7422 23.7285 27.6864 23.6726 27.5755 23.6172C27.2974 23.5617 26.9639 23.8394 26.575 24.1174C26.4082 24.2287 26.1302 24.4509 26.0747 24.4509C25.8525 24.4509 25.3519 24.2287 24.7962 23.8948C24.4627 23.6726 24.8516 22.6718 25.0184 22.1716C25.1297 21.9494 25.1851 21.7268 25.1851 21.6155C25.1851 21.5042 25.7967 21.3374 26.6305 21.3374C26.8527 21.3374 27.1865 21.282 27.52 21.2261C27.7981 21.1707 28.0761 21.1148 28.2429 21.1148C28.3542 21.1148 28.5764 21.4483 28.7431 21.6709C28.9653 22.0044 29.1325 22.227 29.3547 22.227C29.6882 22.1716 29.6882 21.7268 29.6327 21.3933V21.1152C29.6882 20.893 30.133 20.1702 30.4665 19.9476C30.9112 19.6695 31.4669 18.8912 31.3002 18.4464C31.3002 18.2797 32.0785 17.7794 32.3007 17.6127C32.412 17.5573 32.5229 17.446 32.5787 17.3905C32.6342 17.3351 32.7455 17.2792 32.8009 17.2238C33.079 17.1125 33.4125 16.8903 33.4125 16.4455C33.4125 16.1674 34.2462 16.0561 34.7468 16.0007C34.8581 16.0007 34.969 15.9452 35.0803 15.9452C35.4138 15.8898 35.5806 15.7785 35.6364 15.6672C35.7477 15.5004 35.6364 15.2778 35.5251 15.0556C35.5251 15.0002 35.4697 14.9443 35.4697 14.8334C35.3029 14.4441 35.4142 14.1664 35.7477 13.8884C35.9144 13.7771 36.2479 13.7216 36.526 13.7216C36.8595 13.6662 37.2488 13.6103 37.5824 13.4994C37.8046 13.3881 37.9717 13.2772 38.0271 13.1101C38.0826 12.8879 37.9159 12.7207 37.8049 12.554C37.7495 12.4985 37.6936 12.4427 37.6936 12.3318C37.5269 11.9425 37.1934 11.7202 36.9708 11.5535C36.8595 11.4422 36.7486 10.942 36.6928 10.6639C36.6373 10.4417 36.6373 10.2746 36.5815 10.1637C36.526 10.0524 36.4702 9.94147 36.3593 9.94147C36.0812 9.83018 35.6364 9.99693 35.4142 10.1082C35.4142 10.0528 35.4142 9.94147 35.3588 9.88602C35.3033 9.71927 35.3033 9.49668 35.192 9.44122C35.1366 9.38577 34.9698 9.21902 34.8027 9.05188C34.5246 8.82968 34.1911 8.49579 34.0244 8.32905C33.9131 8.21775 33.7464 8.1623 33.6909 8.21775C33.4129 8.27321 33.1348 8.6071 32.9126 8.99604C32.8572 9.05149 32.8572 9.10734 32.8572 9.10734C32.4678 9.71888 32.4124 10.1078 32.6904 10.3304C32.6904 10.3304 32.7459 10.4417 32.635 10.6084C32.5237 10.8865 32.3015 11.1087 32.1902 11.1087C31.8567 11.1087 31.7454 11.5535 31.6341 11.9983C31.6341 12.165 31.5786 12.4431 31.5228 12.5544C31.4115 12.4989 31.356 12.2209 31.356 11.3867V11.2754C31.356 11.1641 31.3006 11.0532 31.2447 11.0532C31.1334 10.9419 31.0225 10.9419 30.8554 10.9977C30.6886 10.9977 30.6332 10.9977 30.5773 10.9423C30.3551 10.6088 29.4097 10.2753 29.0762 10.1086V8.99679C29.1875 8.83004 30.6882 7.82913 31.0222 7.71824C31.467 7.55149 32.6901 6.7732 32.9123 6.60647C33.1345 6.43972 33.1345 6.27297 33.1345 6.21713C33.079 5.82779 32.4116 5.55013 32.134 5.43885C31.9118 4.9386 31.5779 4.9386 31.1335 4.9386C30.9113 4.9386 30.6887 4.9386 30.4107 4.88314C29.2989 4.71639 28.3538 4.66094 27.631 4.77185C27.0749 4.8273 26.4634 4.71639 25.9631 4.6051C25.6851 4.54964 25.4629 4.4938 25.2961 4.4938C27.2975 3.71552 29.4101 3.27075 31.6891 3.27075C34.1353 3.27075 36.4702 3.771 38.5828 4.66058C38.6383 4.88279 38.6941 5.04992 38.805 5.21667C39.0272 5.71692 39.4166 6.60651 39.4166 7.27353C39.4166 7.94055 39.472 8.66336 39.4166 8.88553C39.3611 9.10771 40.7509 10.6647 41.0845 10.7201C41.418 10.7756 41.5847 10.5534 41.8073 10.2199C42.0295 9.88636 42.2521 9.55286 42.8078 9.10809C43.308 8.71875 44.4198 8.83005 44.7537 8.88589C45.3098 9.49744 45.8655 10.1644 46.3657 10.8872C46.2544 10.9985 46.1435 11.054 46.0877 11.1095C45.8096 11.3875 45.0872 12.1099 45.1981 12.6661C45.3094 13.2222 45.8651 13.8891 46.5879 14.2781C47.3108 14.6674 47.4217 15.3898 47.4217 15.5011C47.4217 15.6124 48.4222 16.2794 48.4222 16.2794C48.4222 16.2794 48.0328 17.1131 47.8106 17.1131C47.5884 17.1131 47.4213 17.9469 47.4213 18.2808C47.4213 18.6143 47.8106 19.2258 48.3109 19.5593C48.7556 19.8929 49.4785 18.9478 49.4785 18.9478C49.534 19.5039 49.5898 20.0596 49.5898 20.5598C49.145 20.5598 48.3668 20.8933 48.1445 21.1159C47.8664 21.3939 47.1994 23.4508 46.9214 23.6734C46.6434 23.8956 46.0318 26.7311 45.9764 27.0646C45.7546 27.6207 46.6442 30.011 47.1998 30.011L47.1999 30.0109Z" fill="url(#paint0_linear_2185_819)"/>
<path d="M11.4531 30.0664C10.6749 30.0664 10.0078 30.7334 10.0078 31.5117C10.0078 32.2901 10.6748 32.9571 11.4531 32.9571C13.1764 32.9571 14.5663 34.3469 14.5663 36.0702C14.5663 36.8485 15.2333 37.5155 16.0116 37.5155C16.7899 37.5155 17.4569 36.8485 17.4569 36.0702C17.4015 32.7348 14.733 30.0664 11.4531 30.0664Z" fill="#576993"/>
<path d="M11.4531 30.0664C10.6749 30.0664 10.0078 30.7334 10.0078 31.5117C10.0078 32.2901 10.6748 32.9571 11.4531 32.9571C13.1764 32.9571 14.5663 34.3469 14.5663 36.0702C14.5663 36.8485 15.2333 37.5155 16.0116 37.5155C16.7899 37.5155 17.4569 36.8485 17.4569 36.0702C17.4015 32.7348 14.733 30.0664 11.4531 30.0664Z" fill="url(#paint1_linear_2185_819)"/>
<path d="M20.6831 42.4091C21.9616 40.5745 22.6844 38.4064 22.6844 36.016C22.6844 29.8452 17.6812 24.8418 11.5102 24.8418C5.33933 24.8418 0.335938 29.845 0.335938 36.016C0.335938 42.1871 5.33913 47.1903 11.5102 47.1903C13.9005 47.1903 16.069 46.4675 17.9032 45.1889L24.463 52.5828C25.4081 53.6392 27.0759 53.6946 28.1323 52.6941C29.1328 51.6937 29.1328 50.0258 28.021 49.0249L20.6831 42.4091ZM11.4545 44.4104C6.84025 44.4104 3.1155 40.6857 3.1155 36.0714C3.1155 31.4572 6.84025 27.7324 11.4545 27.7324C16.0687 27.7324 19.7935 31.4572 19.7935 36.0714C19.7935 40.6857 16.0687 44.4104 11.4545 44.4104Z" fill="#576993"/>
<path d="M20.6831 42.4091C21.9616 40.5745 22.6844 38.4064 22.6844 36.016C22.6844 29.8452 17.6812 24.8418 11.5102 24.8418C5.33933 24.8418 0.335938 29.845 0.335938 36.016C0.335938 42.1871 5.33913 47.1903 11.5102 47.1903C13.9005 47.1903 16.069 46.4675 17.9032 45.1889L24.463 52.5828C25.4081 53.6392 27.0759 53.6946 28.1323 52.6941C29.1328 51.6937 29.1328 50.0258 28.021 49.0249L20.6831 42.4091ZM11.4545 44.4104C6.84025 44.4104 3.1155 40.6857 3.1155 36.0714C3.1155 31.4572 6.84025 27.7324 11.4545 27.7324C16.0687 27.7324 19.7935 31.4572 19.7935 36.0714C19.7935 40.6857 16.0687 44.4104 11.4545 44.4104Z" fill="url(#paint2_linear_2185_819)"/>
<defs>
<linearGradient id="paint0_linear_2185_819" x1="5.78294" y1="16.187" x2="59.3736" y2="17.6067" gradientUnits="userSpaceOnUse">
<stop offset="0.411458" stop-color="#6396F9"/>
<stop offset="1" stop-color="#00D1FF"/>
</linearGradient>
<linearGradient id="paint1_linear_2185_819" x1="9.07667" y1="32.8733" x2="18.7282" y2="33.129" gradientUnits="userSpaceOnUse">
<stop offset="0.411458" stop-color="#6396F9"/>
<stop offset="1" stop-color="#00D1FF"/>
</linearGradient>
<linearGradient id="paint2_linear_2185_819" x1="-3.23073" y1="35.607" x2="33.739" y2="36.5852" gradientUnits="userSpaceOnUse">
<stop offset="0.411458" stop-color="#6396F9"/>
<stop offset="1" stop-color="#00D1FF"/>
</linearGradient>
</defs>
</svg>
