<svg width="70" height="58" viewBox="0 0 70 58" fill="none" xmlns="http://www.w3.org/2000/svg">
<path d="M35 0C15.67 0 0 15.484 0 34.5846C0 42.129 2.4525 49.1002 6.6075 54.777C9.27 58.4158 14.6275 59.1446 17.9425 56.0764C22.405 51.9411 28.3975 49.4066 35 49.4066C41.6025 49.4066 47.595 51.9411 52.0575 56.0764C55.3725 59.1471 60.73 58.4158 63.3925 54.777C67.5475 49.1002 70 42.129 70 34.5846C70 15.484 54.33 0 35 0ZM7.5 37.0549C6.12 37.0549 5 35.9482 5 34.5846C5 33.221 6.12 32.1143 7.5 32.1143C8.88 32.1143 10 33.221 10 34.5846C10 35.9482 8.88 37.0549 7.5 37.0549ZM35 4.94066C36.38 4.94066 37.5 6.04736 37.5 7.41098C37.5 8.7746 36.38 9.88131 35 9.88131C33.62 9.88131 32.5 8.7746 32.5 7.41098C32.5 6.04736 33.62 4.94066 35 4.94066ZM17.3225 17.1169C16.345 18.0828 14.7625 18.0828 13.7875 17.1169C12.81 16.151 12.81 14.5873 13.7875 13.6239C14.765 12.6604 16.3475 12.658 17.3225 13.6239C18.2975 14.5873 18.2975 16.151 17.3225 17.1169ZM53.385 25.5778L37.3775 41.3953C37.4275 41.5904 37.5 41.7831 37.5 41.9956C37.5 43.3592 36.38 44.4659 35 44.4659C33.62 44.4659 32.5 43.3592 32.5 41.9956C32.5 40.632 33.62 39.5252 35 39.5252C35.215 39.5252 35.41 39.5969 35.61 39.6463L51.6175 23.8288C52.105 23.3471 52.8975 23.3471 53.385 23.8288C53.8725 24.3105 53.8725 25.0936 53.385 25.5778ZM56.2125 17.1169C55.235 18.0828 53.6525 18.0828 52.6775 17.1169C51.7 16.151 51.7 14.5873 52.6775 13.6239C53.655 12.658 55.2375 12.658 56.2125 13.6239C57.1875 14.5898 57.19 16.151 56.2125 17.1169ZM62.5 37.0549C61.12 37.0549 60 35.9482 60 34.5846C60 33.221 61.12 32.1143 62.5 32.1143C63.88 32.1143 65 33.221 65 34.5846C65 35.9482 63.88 37.0549 62.5 37.0549Z" fill="#576993"/>
<path d="M35 0C15.67 0 0 15.484 0 34.5846C0 42.129 2.4525 49.1002 6.6075 54.777C9.27 58.4158 14.6275 59.1446 17.9425 56.0764C22.405 51.9411 28.3975 49.4066 35 49.4066C41.6025 49.4066 47.595 51.9411 52.0575 56.0764C55.3725 59.1471 60.73 58.4158 63.3925 54.777C67.5475 49.1002 70 42.129 70 34.5846C70 15.484 54.33 0 35 0ZM7.5 37.0549C6.12 37.0549 5 35.9482 5 34.5846C5 33.221 6.12 32.1143 7.5 32.1143C8.88 32.1143 10 33.221 10 34.5846C10 35.9482 8.88 37.0549 7.5 37.0549ZM35 4.94066C36.38 4.94066 37.5 6.04736 37.5 7.41098C37.5 8.7746 36.38 9.88131 35 9.88131C33.62 9.88131 32.5 8.7746 32.5 7.41098C32.5 6.04736 33.62 4.94066 35 4.94066ZM17.3225 17.1169C16.345 18.0828 14.7625 18.0828 13.7875 17.1169C12.81 16.151 12.81 14.5873 13.7875 13.6239C14.765 12.6604 16.3475 12.658 17.3225 13.6239C18.2975 14.5873 18.2975 16.151 17.3225 17.1169ZM53.385 25.5778L37.3775 41.3953C37.4275 41.5904 37.5 41.7831 37.5 41.9956C37.5 43.3592 36.38 44.4659 35 44.4659C33.62 44.4659 32.5 43.3592 32.5 41.9956C32.5 40.632 33.62 39.5252 35 39.5252C35.215 39.5252 35.41 39.5969 35.61 39.6463L51.6175 23.8288C52.105 23.3471 52.8975 23.3471 53.385 23.8288C53.8725 24.3105 53.8725 25.0936 53.385 25.5778ZM56.2125 17.1169C55.235 18.0828 53.6525 18.0828 52.6775 17.1169C51.7 16.151 51.7 14.5873 52.6775 13.6239C53.655 12.658 55.2375 12.658 56.2125 13.6239C57.1875 14.5898 57.19 16.151 56.2125 17.1169ZM62.5 37.0549C61.12 37.0549 60 35.9482 60 34.5846C60 33.221 61.12 32.1143 62.5 32.1143C63.88 32.1143 65 33.221 65 34.5846C65 35.9482 63.88 37.0549 62.5 37.0549Z" fill="url(#paint0_linear_3540_5747)"/>
<defs>
<linearGradient id="paint0_linear_3540_5747" x1="-8.75" y1="21.8551" x2="81.9176" y2="24.754" gradientUnits="userSpaceOnUse">
<stop offset="0.411458" stop-color="#6396F9"/>
<stop offset="1" stop-color="#00D1FF"/>
</linearGradient>
</defs>
</svg>
