<svg width="64" height="64" viewBox="0 0 64 64" fill="none" xmlns="http://www.w3.org/2000/svg">
<path d="M63.7624 61.9434L20.6602 0.555667C20.3329 0.0893813 19.741 -0.110847 19.1977 0.0607772C18.6545 0.232402 18.2852 0.736304 18.2852 1.30616V18.2858H24.8158V20.898H18.2852V27.4286H24.8158V30.0409H18.2852V36.5715H24.8158V39.1837H18.2852V45.7143H24.8158V48.3266H18.2852V54.8572H24.8158V57.4694H18.2852V62.6939C18.2852 63.4153 18.8699 64 19.5913 64H62.6933C63.1806 64 63.6275 63.7286 63.8522 63.2963C64.077 62.8638 64.0423 62.3422 63.7624 61.9434ZM45.184 51.5229C44.9627 51.9654 44.5105 52.2449 44.0158 52.2449H30.3015C29.5801 52.2449 28.9954 51.6602 28.9954 50.9388V32.6531C28.9954 32.0909 29.3551 31.5917 29.8885 31.414C30.4218 31.2361 31.009 31.4196 31.3464 31.8694L45.0607 50.1551C45.3574 50.5509 45.4054 51.0805 45.184 51.5229Z" fill="#576993"/>
<path d="M63.7624 61.9434L20.6602 0.555667C20.3329 0.0893813 19.741 -0.110847 19.1977 0.0607772C18.6545 0.232402 18.2852 0.736304 18.2852 1.30616V18.2858H24.8158V20.898H18.2852V27.4286H24.8158V30.0409H18.2852V36.5715H24.8158V39.1837H18.2852V45.7143H24.8158V48.3266H18.2852V54.8572H24.8158V57.4694H18.2852V62.6939C18.2852 63.4153 18.8699 64 19.5913 64H62.6933C63.1806 64 63.6275 63.7286 63.8522 63.2963C64.077 62.8638 64.0423 62.3422 63.7624 61.9434ZM45.184 51.5229C44.9627 51.9654 44.5105 52.2449 44.0158 52.2449H30.3015C29.5801 52.2449 28.9954 51.6602 28.9954 50.9388V32.6531C28.9954 32.0909 29.3551 31.5917 29.8885 31.414C30.4218 31.2361 31.009 31.4196 31.3464 31.8694L45.0607 50.1551C45.3574 50.5509 45.4054 51.0805 45.184 51.5229Z" fill="url(#paint0_linear_3540_5753)"/>
<path d="M14.3673 0H1.30612C0.584751 0 0 0.584751 0 1.30612V8.48979H6.89345V11.102H0V18.9388H6.89345V21.551H0V30.6939H6.89345V33.3061H0V42.449H6.89345V45.0612H0V52.898H6.89345V55.5102H0V62.6939C0 63.4152 0.584751 64 1.30612 64H14.3673C15.0887 64 15.6735 63.4152 15.6735 62.6939V1.30612C15.6735 0.584751 15.0887 0 14.3673 0Z" fill="#576993"/>
<path d="M14.3673 0H1.30612C0.584751 0 0 0.584751 0 1.30612V8.48979H6.89345V11.102H0V18.9388H6.89345V21.551H0V30.6939H6.89345V33.3061H0V42.449H6.89345V45.0612H0V52.898H6.89345V55.5102H0V62.6939C0 63.4152 0.584751 64 1.30612 64H14.3673C15.0887 64 15.6735 63.4152 15.6735 62.6939V1.30612C15.6735 0.584751 15.0887 0 14.3673 0Z" fill="url(#paint1_linear_3540_5753)"/>
<defs>
<linearGradient id="paint0_linear_3540_5753" x1="12.5709" y1="24.116" x2="71.8217" y2="25.2371" gradientUnits="userSpaceOnUse">
<stop offset="0.411458" stop-color="#6396F9"/>
<stop offset="1" stop-color="#00D1FF"/>
</linearGradient>
<linearGradient id="paint1_linear_3540_5753" x1="-1.95918" y1="24.1159" x2="18.3618" y2="24.2478" gradientUnits="userSpaceOnUse">
<stop offset="0.411458" stop-color="#6396F9"/>
<stop offset="1" stop-color="#00D1FF"/>
</linearGradient>
</defs>
</svg>
