<svg width="45" height="46" viewBox="0 0 45 46" fill="none" xmlns="http://www.w3.org/2000/svg">
<path d="M44.4237 25.6738L43.562 24.4937C42.8501 23.5195 42.8407 22.1988 43.5339 21.206L44.3768 20.0164C45.351 18.6302 44.9014 16.71 43.4027 15.9045L42.1195 15.2113C41.0517 14.64 40.471 13.4504 40.6677 12.2609L40.9112 10.8184C41.1922 9.15114 39.9464 7.60565 38.2511 7.54008L36.7899 7.47452C35.5816 7.42768 34.5419 6.60342 34.2047 5.44196L33.8019 4.03697C33.3336 2.40718 31.5446 1.56418 29.9804 2.23858L28.6409 2.81931C27.5263 3.29701 26.2431 3.01601 25.4282 2.10745L24.4541 1.02092C23.3207 -0.243572 21.3443 -0.224839 20.2297 1.04902L19.2743 2.15428C18.4782 3.06284 17.1949 3.37194 16.0803 2.91298L14.7315 2.36035C13.1673 1.71405 11.3876 2.58515 10.938 4.2243L10.554 5.62929C10.2449 6.80949 9.22395 7.64312 8.01566 7.70868L6.55447 7.79298C4.85911 7.88665 3.64145 9.45087 3.95055 11.1088L4.21282 12.5419C4.42825 13.7314 3.86625 14.9303 2.80782 15.5111L1.53397 16.2229C0.0540407 17.0472 -0.376823 18.9767 0.625404 20.3442L1.48713 21.5244C2.19899 22.4986 2.20836 23.8193 1.51523 24.8121L0.672237 26.0017C-0.30189 27.3879 0.147707 29.3081 1.64636 30.1136L2.92959 30.8067C3.99738 31.3781 4.57811 32.5677 4.38142 33.7572L4.12852 35.1903C3.84752 36.8576 5.09328 38.4031 6.78863 38.4686L8.24983 38.5342C9.45812 38.581 10.4978 39.4053 10.835 40.5668L11.2378 41.9718C11.7061 43.6015 13.4951 44.4445 15.0594 43.7701L16.3988 43.1894C17.5134 42.7117 18.7966 42.9927 19.6115 43.8919L20.5857 44.9784C21.719 46.2429 23.6954 46.2242 24.81 44.9503L25.7654 43.8451C26.5616 42.9365 27.8448 42.6274 28.9594 43.0864L30.3082 43.639C31.8724 44.2853 33.6521 43.4142 34.1017 41.7751L34.4857 40.3701C34.8042 39.2086 35.8345 38.375 37.0428 38.3L38.504 38.2157C40.1993 38.1221 41.417 36.5578 41.1079 34.9L40.8456 33.4669C40.6302 32.2773 41.1922 31.0784 42.2506 30.4977L43.5245 29.7858C44.995 28.9803 45.4165 27.0414 44.4237 25.6738ZM22.5245 37.8036C14.3569 37.8036 7.73466 31.1814 7.73466 23.0137C7.73466 14.846 14.3569 8.22385 22.5245 8.22385C30.6922 8.22385 37.3144 14.846 37.3144 23.0137C37.3144 31.1814 30.6922 37.8036 22.5245 37.8036Z" fill="#576993"/>
<path d="M44.4237 25.6738L43.562 24.4937C42.8501 23.5195 42.8407 22.1988 43.5339 21.206L44.3768 20.0164C45.351 18.6302 44.9014 16.71 43.4027 15.9045L42.1195 15.2113C41.0517 14.64 40.471 13.4504 40.6677 12.2609L40.9112 10.8184C41.1922 9.15114 39.9464 7.60565 38.2511 7.54008L36.7899 7.47452C35.5816 7.42768 34.5419 6.60342 34.2047 5.44196L33.8019 4.03697C33.3336 2.40718 31.5446 1.56418 29.9804 2.23858L28.6409 2.81931C27.5263 3.29701 26.2431 3.01601 25.4282 2.10745L24.4541 1.02092C23.3207 -0.243572 21.3443 -0.224839 20.2297 1.04902L19.2743 2.15428C18.4782 3.06284 17.1949 3.37194 16.0803 2.91298L14.7315 2.36035C13.1673 1.71405 11.3876 2.58515 10.938 4.2243L10.554 5.62929C10.2449 6.80949 9.22395 7.64312 8.01566 7.70868L6.55447 7.79298C4.85911 7.88665 3.64145 9.45087 3.95055 11.1088L4.21282 12.5419C4.42825 13.7314 3.86625 14.9303 2.80782 15.5111L1.53397 16.2229C0.0540407 17.0472 -0.376823 18.9767 0.625404 20.3442L1.48713 21.5244C2.19899 22.4986 2.20836 23.8193 1.51523 24.8121L0.672237 26.0017C-0.30189 27.3879 0.147707 29.3081 1.64636 30.1136L2.92959 30.8067C3.99738 31.3781 4.57811 32.5677 4.38142 33.7572L4.12852 35.1903C3.84752 36.8576 5.09328 38.4031 6.78863 38.4686L8.24983 38.5342C9.45812 38.581 10.4978 39.4053 10.835 40.5668L11.2378 41.9718C11.7061 43.6015 13.4951 44.4445 15.0594 43.7701L16.3988 43.1894C17.5134 42.7117 18.7966 42.9927 19.6115 43.8919L20.5857 44.9784C21.719 46.2429 23.6954 46.2242 24.81 44.9503L25.7654 43.8451C26.5616 42.9365 27.8448 42.6274 28.9594 43.0864L30.3082 43.639C31.8724 44.2853 33.6521 43.4142 34.1017 41.7751L34.4857 40.3701C34.8042 39.2086 35.8345 38.375 37.0428 38.3L38.504 38.2157C40.1993 38.1221 41.417 36.5578 41.1079 34.9L40.8456 33.4669C40.6302 32.2773 41.1922 31.0784 42.2506 30.4977L43.5245 29.7858C44.995 28.9803 45.4165 27.0414 44.4237 25.6738ZM22.5245 37.8036C14.3569 37.8036 7.73466 31.1814 7.73466 23.0137C7.73466 14.846 14.3569 8.22385 22.5245 8.22385C30.6922 8.22385 37.3144 14.846 37.3144 23.0137C37.3144 31.1814 30.6922 37.8036 22.5245 37.8036Z" fill="url(#paint0_linear_3886_7957)"/>
<path d="M20.6352 23.408L19.3239 22.0873C18.5465 21.3005 17.2726 21.3005 16.4858 22.078C15.699 22.8554 15.699 24.1293 16.4764 24.9161L17.7878 26.2368L19.249 27.6979C20.0077 28.466 21.244 28.466 22.0121 27.7073L23.4733 26.2555L28.5687 21.1881C29.3555 20.4107 29.3555 19.1369 28.5781 18.3501C27.8007 17.5633 26.5268 17.5633 25.74 18.3407L20.6352 23.408Z" fill="#576993"/>
<path d="M20.6352 23.408L19.3239 22.0873C18.5465 21.3005 17.2726 21.3005 16.4858 22.078C15.699 22.8554 15.699 24.1293 16.4764 24.9161L17.7878 26.2368L19.249 27.6979C20.0077 28.466 21.244 28.466 22.0121 27.7073L23.4733 26.2555L28.5687 21.1881C29.3555 20.4107 29.3555 19.1369 28.5781 18.3501C27.8007 17.5633 26.5268 17.5633 25.74 18.3407L20.6352 23.408Z" fill="url(#paint1_linear_3886_7957)"/>
<defs>
<linearGradient id="paint0_linear_3886_7957" x1="-5.52814" y1="17.3535" x2="52.6248" y2="18.8621" gradientUnits="userSpaceOnUse">
<stop offset="0.411458" stop-color="#6396F9"/>
<stop offset="1" stop-color="#00D1FF"/>
</linearGradient>
<linearGradient id="paint1_linear_3886_7957" x1="14.2363" y1="21.7215" x2="31.4168" y2="22.2956" gradientUnits="userSpaceOnUse">
<stop offset="0.411458" stop-color="#6396F9"/>
<stop offset="1" stop-color="#00D1FF"/>
</linearGradient>
</defs>
</svg>
