<svg width="56" height="61" viewBox="0 0 56 61" fill="none" xmlns="http://www.w3.org/2000/svg">
<path d="M51.4688 61H34.1219C31.2625 61 28.7844 59.8562 26.6875 57.95L0.571875 31.8344C-0.190625 31.0719 -0.190625 29.9281 0.571875 29.1656C1.33438 28.4031 2.47813 28.4031 3.24063 29.1656L29.3562 55.2812C30.6906 56.425 32.2156 57.1875 34.1219 57.1875H51.4688C52.6125 57.1875 53.375 57.95 53.375 59.0938C53.375 60.2375 52.6125 61 51.4688 61Z" fill="#576993"/>
<path d="M51.4688 61H34.1219C31.2625 61 28.7844 59.8562 26.6875 57.95L0.571875 31.8344C-0.190625 31.0719 -0.190625 29.9281 0.571875 29.1656C1.33438 28.4031 2.47813 28.4031 3.24063 29.1656L29.3562 55.2812C30.6906 56.425 32.2156 57.1875 34.1219 57.1875H51.4688C52.6125 57.1875 53.375 57.95 53.375 59.0938C53.375 60.2375 52.6125 61 51.4688 61Z" fill="url(#paint0_linear_3540_5738)"/>
<path d="M51.6641 43.8437H32.4109C31.2672 43.8437 30.5047 43.0812 30.5047 41.9374C30.5047 40.7937 31.2672 40.0312 32.4109 40.0312H43.4672C42.7047 39.4593 42.1328 38.8874 41.5609 38.1249H28.5984C27.4547 38.1249 26.6922 37.3624 26.6922 36.2187C26.6922 35.0749 27.4547 34.3124 28.5984 34.3124H39.2734C38.5109 32.2155 38.1297 29.7374 38.1297 26.6874C38.1297 26.1155 37.9391 25.7343 37.5578 25.353C37.1766 24.9718 36.7953 24.7812 36.2234 24.7812H34.3172C28.0266 24.7812 20.9734 17.728 20.9734 11.4374C20.9734 10.6749 20.4016 9.91241 19.8297 9.72179C19.0672 9.34054 18.1141 9.53116 17.5422 10.103L4.19844 25.353C3.62656 26.1155 3.62656 27.2593 4.19844 28.0218L28.5984 52.2312C30.5047 54.1374 33.1734 55.2812 36.0328 55.2812H51.4734C52.4266 55.2812 53.1891 54.7093 53.3797 53.7562L54.1422 50.3249C54.5234 48.6093 54.3328 46.8937 53.3797 45.5593C52.9984 44.9874 52.4266 44.4155 51.6641 43.8437ZM20.0203 34.3124C17.3516 34.3124 15.2547 32.2155 15.2547 29.5468C15.2547 26.878 17.3516 24.7812 20.0203 24.7812C22.6891 24.7812 24.7859 26.878 24.7859 29.5468C24.7859 32.2155 22.6891 34.3124 20.0203 34.3124Z" fill="#576993"/>
<path d="M51.6641 43.8437H32.4109C31.2672 43.8437 30.5047 43.0812 30.5047 41.9374C30.5047 40.7937 31.2672 40.0312 32.4109 40.0312H43.4672C42.7047 39.4593 42.1328 38.8874 41.5609 38.1249H28.5984C27.4547 38.1249 26.6922 37.3624 26.6922 36.2187C26.6922 35.0749 27.4547 34.3124 28.5984 34.3124H39.2734C38.5109 32.2155 38.1297 29.7374 38.1297 26.6874C38.1297 26.1155 37.9391 25.7343 37.5578 25.353C37.1766 24.9718 36.7953 24.7812 36.2234 24.7812H34.3172C28.0266 24.7812 20.9734 17.728 20.9734 11.4374C20.9734 10.6749 20.4016 9.91241 19.8297 9.72179C19.0672 9.34054 18.1141 9.53116 17.5422 10.103L4.19844 25.353C3.62656 26.1155 3.62656 27.2593 4.19844 28.0218L28.5984 52.2312C30.5047 54.1374 33.1734 55.2812 36.0328 55.2812H51.4734C52.4266 55.2812 53.1891 54.7093 53.3797 53.7562L54.1422 50.3249C54.5234 48.6093 54.3328 46.8937 53.3797 45.5593C52.9984 44.9874 52.4266 44.4155 51.6641 43.8437ZM20.0203 34.3124C17.3516 34.3124 15.2547 32.2155 15.2547 29.5468C15.2547 26.878 17.3516 24.7812 20.0203 24.7812C22.6891 24.7812 24.7859 26.878 24.7859 29.5468C24.7859 32.2155 22.6891 34.3124 20.0203 34.3124Z" fill="url(#paint1_linear_3540_5738)"/>
<path d="M36.2183 29.9281C35.4558 29.9281 34.6933 29.3563 34.312 28.5938C32.9776 23.6375 34.312 18.1094 38.1245 14.4875L52.0401 0.571875C52.8026 -0.190625 53.9464 -0.190625 54.7089 0.571875C55.4714 1.33438 55.4714 2.47813 54.7089 3.24063L40.7933 17.1562C38.1245 19.825 36.9808 23.8281 37.9339 27.6406C38.1245 28.5938 37.5526 29.7375 36.5995 29.9281C36.5995 29.9281 36.4089 29.9281 36.2183 29.9281Z" fill="#576993"/>
<path d="M36.2183 29.9281C35.4558 29.9281 34.6933 29.3563 34.312 28.5938C32.9776 23.6375 34.312 18.1094 38.1245 14.4875L52.0401 0.571875C52.8026 -0.190625 53.9464 -0.190625 54.7089 0.571875C55.4714 1.33438 55.4714 2.47813 54.7089 3.24063L40.7933 17.1562C38.1245 19.825 36.9808 23.8281 37.9339 27.6406C38.1245 28.5938 37.5526 29.7375 36.5995 29.9281C36.5995 29.9281 36.4089 29.9281 36.2183 29.9281Z" fill="url(#paint2_linear_3540_5738)"/>
<path d="M19.0655 15.2513C18.303 15.2513 17.5405 14.6794 17.3499 13.9169C16.9686 12.9638 17.5405 11.82 18.4936 11.6294C21.7343 10.4857 24.5936 8.38878 26.3093 5.33878L28.978 0.954408C29.3593 0.00128274 30.503 -0.189342 31.4561 0.191908C32.4093 0.763783 32.5999 1.90753 32.2186 2.86066L29.5499 7.24503C27.2624 11.0575 23.8311 13.7263 19.6374 15.0607C19.4468 15.2513 19.2561 15.2513 19.0655 15.2513Z" fill="#576993"/>
<path d="M19.0655 15.2513C18.303 15.2513 17.5405 14.6794 17.3499 13.9169C16.9686 12.9638 17.5405 11.82 18.4936 11.6294C21.7343 10.4857 24.5936 8.38878 26.3093 5.33878L28.978 0.954408C29.3593 0.00128274 30.503 -0.189342 31.4561 0.191908C32.4093 0.763783 32.5999 1.90753 32.2186 2.86066L29.5499 7.24503C27.2624 11.0575 23.8311 13.7263 19.6374 15.0607C19.4468 15.2513 19.2561 15.2513 19.0655 15.2513Z" fill="url(#paint3_linear_3540_5738)"/>
<defs>
<linearGradient id="paint0_linear_3540_5738" x1="-6.67188" y1="40.8048" x2="62.4013" y2="43.8187" gradientUnits="userSpaceOnUse">
<stop offset="0.411458" stop-color="#6396F9"/>
<stop offset="1" stop-color="#00D1FF"/>
</linearGradient>
<linearGradient id="paint1_linear_3540_5738" x1="-2.55006" y1="26.7655" x2="62.9445" y2="28.6825" gradientUnits="userSpaceOnUse">
<stop offset="0.411458" stop-color="#6396F9"/>
<stop offset="1" stop-color="#00D1FF"/>
</linearGradient>
<linearGradient id="paint2_linear_3540_5738" x1="31.1246" y1="11.2773" x2="58.9548" y2="11.8062" gradientUnits="userSpaceOnUse">
<stop offset="0.411458" stop-color="#6396F9"/>
<stop offset="1" stop-color="#00D1FF"/>
</linearGradient>
<linearGradient id="paint3_linear_3540_5738" x1="15.3339" y1="5.75173" x2="34.9922" y2="6.27008" gradientUnits="userSpaceOnUse">
<stop offset="0.411458" stop-color="#6396F9"/>
<stop offset="1" stop-color="#00D1FF"/>
</linearGradient>
</defs>
</svg>
