<svg width="30" height="30" viewBox="0 0 30 30" fill="none" xmlns="http://www.w3.org/2000/svg">
<path d="M24.9781 6.46154C22.5898 4.53967 18.8117 4.21389 18.65 4.20217C18.3992 4.18108 18.1602 4.3217 18.057 4.55373C18.0477 4.56779 17.9656 4.75764 17.8742 5.05295C19.4539 5.32014 21.3945 5.85686 23.15 6.9467C23.4312 7.12014 23.518 7.49045 23.3445 7.7717C23.2297 7.95686 23.0352 8.05764 22.8336 8.05764C22.7258 8.05764 22.6156 8.02717 22.5172 7.96623C19.4984 6.09358 15.7297 5.99983 15.0031 5.99983C14.2766 5.99983 10.5055 6.09358 7.48906 7.96623C7.20781 8.14201 6.8375 8.05529 6.66406 7.77404C6.48828 7.49045 6.575 7.12248 6.85625 6.9467C8.61172 5.8592 10.5523 5.32014 12.132 5.05529C12.0406 4.75764 11.9586 4.57014 11.9516 4.55373C11.8461 4.3217 11.6094 4.17639 11.3562 4.20217C11.1945 4.21389 7.41641 4.53967 4.99531 6.48733C3.73203 7.65686 1.20312 14.4912 1.20312 20.3998C1.20312 20.5053 1.23125 20.6061 1.28281 20.6975C3.02656 23.7631 7.78672 24.5647 8.87187 24.5998C8.87656 24.5998 8.88359 24.5998 8.89062 24.5998C9.08281 24.5998 9.26328 24.5084 9.37578 24.3537L10.4727 22.8444C7.5125 22.0803 6.00078 20.7819 5.91406 20.7045C5.66563 20.4865 5.64219 20.1069 5.8625 19.8584C6.08047 19.61 6.46016 19.5865 6.70859 19.8045C6.74375 19.8373 9.52812 22.1998 15.0031 22.1998C20.4875 22.1998 23.2719 19.828 23.3 19.8045C23.5484 19.5889 23.9258 19.61 24.1461 19.8608C24.3641 20.1092 24.3406 20.4865 24.0922 20.7045C24.0055 20.7819 22.4937 22.0803 19.5336 22.8444L20.6305 24.3537C20.743 24.5084 20.9234 24.5998 21.1156 24.5998C21.1227 24.5998 21.1297 24.5998 21.1344 24.5998C22.2195 24.5647 26.9797 23.7631 28.7234 20.6975C28.775 20.6061 28.8031 20.5053 28.8031 20.3998C28.8031 14.4912 26.2742 7.65686 24.9781 6.46154ZM11.1031 17.9998C9.94297 17.9998 9.00312 16.9264 9.00312 15.5998C9.00312 14.2733 9.94297 13.1998 11.1031 13.1998C12.2633 13.1998 13.2031 14.2733 13.2031 15.5998C13.2031 16.9264 12.2633 17.9998 11.1031 17.9998ZM18.9031 17.9998C17.743 17.9998 16.8031 16.9264 16.8031 15.5998C16.8031 14.2733 17.743 13.1998 18.9031 13.1998C20.0633 13.1998 21.0031 14.2733 21.0031 15.5998C21.0031 16.9264 20.0633 17.9998 18.9031 17.9998Z" fill="#576993"/>
<path d="M24.9781 6.46154C22.5898 4.53967 18.8117 4.21389 18.65 4.20217C18.3992 4.18108 18.1602 4.3217 18.057 4.55373C18.0477 4.56779 17.9656 4.75764 17.8742 5.05295C19.4539 5.32014 21.3945 5.85686 23.15 6.9467C23.4312 7.12014 23.518 7.49045 23.3445 7.7717C23.2297 7.95686 23.0352 8.05764 22.8336 8.05764C22.7258 8.05764 22.6156 8.02717 22.5172 7.96623C19.4984 6.09358 15.7297 5.99983 15.0031 5.99983C14.2766 5.99983 10.5055 6.09358 7.48906 7.96623C7.20781 8.14201 6.8375 8.05529 6.66406 7.77404C6.48828 7.49045 6.575 7.12248 6.85625 6.9467C8.61172 5.8592 10.5523 5.32014 12.132 5.05529C12.0406 4.75764 11.9586 4.57014 11.9516 4.55373C11.8461 4.3217 11.6094 4.17639 11.3562 4.20217C11.1945 4.21389 7.41641 4.53967 4.99531 6.48733C3.73203 7.65686 1.20312 14.4912 1.20312 20.3998C1.20312 20.5053 1.23125 20.6061 1.28281 20.6975C3.02656 23.7631 7.78672 24.5647 8.87187 24.5998C8.87656 24.5998 8.88359 24.5998 8.89062 24.5998C9.08281 24.5998 9.26328 24.5084 9.37578 24.3537L10.4727 22.8444C7.5125 22.0803 6.00078 20.7819 5.91406 20.7045C5.66563 20.4865 5.64219 20.1069 5.8625 19.8584C6.08047 19.61 6.46016 19.5865 6.70859 19.8045C6.74375 19.8373 9.52812 22.1998 15.0031 22.1998C20.4875 22.1998 23.2719 19.828 23.3 19.8045C23.5484 19.5889 23.9258 19.61 24.1461 19.8608C24.3641 20.1092 24.3406 20.4865 24.0922 20.7045C24.0055 20.7819 22.4937 22.0803 19.5336 22.8444L20.6305 24.3537C20.743 24.5084 20.9234 24.5998 21.1156 24.5998C21.1227 24.5998 21.1297 24.5998 21.1344 24.5998C22.2195 24.5647 26.9797 23.7631 28.7234 20.6975C28.775 20.6061 28.8031 20.5053 28.8031 20.3998C28.8031 14.4912 26.2742 7.65686 24.9781 6.46154ZM11.1031 17.9998C9.94297 17.9998 9.00312 16.9264 9.00312 15.5998C9.00312 14.2733 9.94297 13.1998 11.1031 13.1998C12.2633 13.1998 13.2031 14.2733 13.2031 15.5998C13.2031 16.9264 12.2633 17.9998 11.1031 17.9998ZM18.9031 17.9998C17.743 17.9998 16.8031 16.9264 16.8031 15.5998C16.8031 14.2733 17.743 13.1998 18.9031 13.1998C20.0633 13.1998 21.0031 14.2733 21.0031 15.5998C21.0031 16.9264 20.0633 17.9998 18.9031 17.9998Z" fill="url(#paint0_linear_2185_895)"/>
<defs>
<linearGradient id="paint0_linear_2185_895" x1="-2.24687" y1="11.8864" x2="33.4927" y2="13.1673" gradientUnits="userSpaceOnUse">
<stop offset="0.411458" stop-color="#6396F9"/>
<stop offset="1" stop-color="#00D1FF"/>
</linearGradient>
</defs>
</svg>
