<svg width="33" height="33" viewBox="0 0 33 33" fill="none" xmlns="http://www.w3.org/2000/svg">
<path d="M20.1821 28.1777H12.818C12.5401 28.1777 12.2969 28.421 12.2969 28.6989V30.4358C12.2969 30.7137 12.5401 30.9569 12.818 30.9569H14.2423C14.4159 32.0686 15.354 32.9021 16.4654 32.9021C17.6117 32.9021 18.5495 32.0684 18.6885 30.9569H20.1128C20.3907 30.9569 20.6339 30.7137 20.6339 30.4358V28.6989C20.7033 28.421 20.46 28.1777 20.1821 28.1777H20.1821Z" fill="#576993"/>
<path d="M20.1821 28.1777H12.818C12.5401 28.1777 12.2969 28.421 12.2969 28.6989V30.4358C12.2969 30.7137 12.5401 30.9569 12.818 30.9569H14.2423C14.4159 32.0686 15.354 32.9021 16.4654 32.9021C17.6117 32.9021 18.5495 32.0684 18.6885 30.9569H20.1128C20.3907 30.9569 20.6339 30.7137 20.6339 30.4358V28.6989C20.7033 28.421 20.46 28.1777 20.1821 28.1777H20.1821Z" fill="url(#paint0_linear_2341_1934)"/>
<path d="M16.504 5.98341C17.1988 5.98341 17.7893 5.42758 17.7893 4.69814V1.3634C17.7893 0.668596 17.2334 0.078125 16.504 0.078125C15.7746 0.078125 15.2188 0.633961 15.2188 1.3634L15.219 4.69814C15.219 5.39294 15.8095 5.98341 16.5041 5.98341H16.504Z" fill="#576993"/>
<path d="M16.504 5.98341C17.1988 5.98341 17.7893 5.42758 17.7893 4.69814V1.3634C17.7893 0.668596 17.2334 0.078125 16.504 0.078125C15.7746 0.078125 15.2188 0.633961 15.2188 1.3634L15.219 4.69814C15.219 5.39294 15.8095 5.98341 16.5041 5.98341H16.504Z" fill="url(#paint1_linear_2341_1934)"/>
<path d="M8.99378 7.30285L6.63178 4.94083C6.14556 4.45462 5.34651 4.45462 4.8256 4.94083C4.33938 5.42705 4.33938 6.22611 4.8256 6.74702L7.1876 9.10904C7.43085 9.35229 7.74344 9.49125 8.09066 9.49125C8.43788 9.49125 8.7505 9.35229 8.99371 9.10904C9.48021 8.58787 9.48021 7.78907 8.99371 7.30285H8.99378Z" fill="#576993"/>
<path d="M8.99378 7.30285L6.63178 4.94083C6.14556 4.45462 5.34651 4.45462 4.8256 4.94083C4.33938 5.42705 4.33938 6.22611 4.8256 6.74702L7.1876 9.10904C7.43085 9.35229 7.74344 9.49125 8.09066 9.49125C8.43788 9.49125 8.7505 9.35229 8.99371 9.10904C9.48021 8.58787 9.48021 7.78907 8.99371 7.30285H8.99378Z" fill="url(#paint2_linear_2341_1934)"/>
<path d="M4.61972 15.3262H1.28527C0.59047 15.3262 0 15.882 0 16.6114C0 17.3409 0.555835 17.8967 1.28527 17.8967H4.62002C5.31482 17.8967 5.90529 17.3409 5.90529 16.6114C5.905 15.882 5.31449 15.3262 4.61972 15.3262Z" fill="#576993"/>
<path d="M4.61972 15.3262H1.28527C0.59047 15.3262 0 15.882 0 16.6114C0 17.3409 0.555835 17.8967 1.28527 17.8967H4.62002C5.31482 17.8967 5.90529 17.3409 5.90529 16.6114C5.905 15.882 5.31449 15.3262 4.61972 15.3262Z" fill="url(#paint3_linear_2341_1934)"/>
<path d="M31.7138 15.3262H28.379C27.6842 15.3262 27.0938 15.882 27.0938 16.6114C27.0938 17.3409 27.6496 17.8967 28.379 17.8967H31.7138C32.4086 17.8967 32.999 17.3409 32.999 16.6114C32.999 15.882 32.4432 15.3262 31.7138 15.3262Z" fill="#576993"/>
<path d="M31.7138 15.3262H28.379C27.6842 15.3262 27.0938 15.882 27.0938 16.6114C27.0938 17.3409 27.6496 17.8967 28.379 17.8967H31.7138C32.4086 17.8967 32.999 17.3409 32.999 16.6114C32.999 15.882 32.4432 15.3262 31.7138 15.3262Z" fill="url(#paint4_linear_2341_1934)"/>
<path d="M28.1735 4.94083C27.6873 4.45462 26.8882 4.45462 26.3673 4.94083L24.0053 7.30284C23.5191 7.78906 23.5191 8.58811 24.0053 9.10902C24.2485 9.35227 24.5611 9.49123 24.9083 9.49123C25.2209 9.49123 25.5682 9.35227 25.8114 9.10902L28.1734 6.74701C28.6596 6.22584 28.6596 5.42705 28.1734 4.94083H28.1735Z" fill="#576993"/>
<path d="M28.1735 4.94083C27.6873 4.45462 26.8882 4.45462 26.3673 4.94083L24.0053 7.30284C23.5191 7.78906 23.5191 8.58811 24.0053 9.10902C24.2485 9.35227 24.5611 9.49123 24.9083 9.49123C25.2209 9.49123 25.5682 9.35227 25.8114 9.10902L28.1734 6.74701C28.6596 6.22584 28.6596 5.42705 28.1734 4.94083H28.1735Z" fill="url(#paint5_linear_2341_1934)"/>
<path d="M14.5158 8.62437C11.6326 9.28421 9.27059 11.6116 8.54115 14.5294C7.67271 18.0031 9.06232 21.2335 11.4937 23.1089C12.0149 23.5258 12.2925 24.1856 12.2925 24.8804V26.0614C12.2925 26.4783 12.6051 26.7909 13.022 26.7909H19.9694C20.3863 26.7909 20.6988 26.4783 20.6988 26.0614V24.8108C20.6988 24.1509 20.9768 23.5255 21.4977 23.1086C23.4428 21.615 24.7281 19.253 24.7281 16.613C24.6935 11.4031 19.9001 7.37342 14.5159 8.624L14.5158 8.62437ZM19.9694 15.5368L16.1484 19.6357C15.9748 19.844 15.7315 19.9482 15.4536 19.9482C15.1757 19.9482 14.9324 19.844 14.7588 19.6357L12.744 17.482C12.3968 17.0998 12.3968 16.5092 12.7787 16.1273C13.1609 15.78 13.7514 15.78 14.1333 16.162L15.4533 17.5862L18.5794 14.2168C18.9267 13.8346 19.5522 13.7999 19.9341 14.1821C20.2819 14.5294 20.3166 15.1546 19.9693 15.5368H19.9694Z" fill="#576993"/>
<path d="M14.5158 8.62437C11.6326 9.28421 9.27059 11.6116 8.54115 14.5294C7.67271 18.0031 9.06232 21.2335 11.4937 23.1089C12.0149 23.5258 12.2925 24.1856 12.2925 24.8804V26.0614C12.2925 26.4783 12.6051 26.7909 13.022 26.7909H19.9694C20.3863 26.7909 20.6988 26.4783 20.6988 26.0614V24.8108C20.6988 24.1509 20.9768 23.5255 21.4977 23.1086C23.4428 21.615 24.7281 19.253 24.7281 16.613C24.6935 11.4031 19.9001 7.37342 14.5159 8.624L14.5158 8.62437ZM19.9694 15.5368L16.1484 19.6357C15.9748 19.844 15.7315 19.9482 15.4536 19.9482C15.1757 19.9482 14.9324 19.844 14.7588 19.6357L12.744 17.482C12.3968 17.0998 12.3968 16.5092 12.7787 16.1273C13.1609 15.78 13.7514 15.78 14.1333 16.162L15.4533 17.5862L18.5794 14.2168C18.9267 13.8346 19.5522 13.7999 19.9341 14.1821C20.2819 14.5294 20.3166 15.1546 19.9693 15.5368H19.9694Z" fill="url(#paint6_linear_2341_1934)"/>
<defs>
<linearGradient id="paint0_linear_2341_1934" x1="11.2533" y1="29.9579" x2="22.0547" y2="30.4636" gradientUnits="userSpaceOnUse">
<stop offset="0.411458" stop-color="#6396F9"/>
<stop offset="1" stop-color="#00D1FF"/>
</linearGradient>
<linearGradient id="paint1_linear_2341_1934" x1="14.8974" y1="2.30331" x2="18.2299" y2="2.34173" gradientUnits="userSpaceOnUse">
<stop offset="0.411458" stop-color="#6396F9"/>
<stop offset="1" stop-color="#00D1FF"/>
</linearGradient>
<linearGradient id="paint2_linear_2341_1934" x1="3.84873" y1="6.42823" x2="10.1945" y2="6.59574" gradientUnits="userSpaceOnUse">
<stop offset="0.411458" stop-color="#6396F9"/>
<stop offset="1" stop-color="#00D1FF"/>
</linearGradient>
<linearGradient id="paint3_linear_2341_1934" x1="-0.738161" y1="16.2948" x2="6.89023" y2="16.759" gradientUnits="userSpaceOnUse">
<stop offset="0.411458" stop-color="#6396F9"/>
<stop offset="1" stop-color="#00D1FF"/>
</linearGradient>
<linearGradient id="paint4_linear_2341_1934" x1="26.3556" y1="16.2948" x2="33.984" y2="16.759" gradientUnits="userSpaceOnUse">
<stop offset="0.411458" stop-color="#6396F9"/>
<stop offset="1" stop-color="#00D1FF"/>
</linearGradient>
<linearGradient id="paint5_linear_2341_1934" x1="23.0284" y1="6.42822" x2="29.3739" y2="6.59572" gradientUnits="userSpaceOnUse">
<stop offset="0.411458" stop-color="#6396F9"/>
<stop offset="1" stop-color="#00D1FF"/>
</linearGradient>
<linearGradient id="paint6_linear_2341_1934" x1="6.22539" y1="15.3265" x2="27.538" y2="15.8313" gradientUnits="userSpaceOnUse">
<stop offset="0.411458" stop-color="#6396F9"/>
<stop offset="1" stop-color="#00D1FF"/>
</linearGradient>
</defs>
</svg>
