<svg width="55" height="55" viewBox="0 0 55 55" fill="none" xmlns="http://www.w3.org/2000/svg">
<path fill-rule="evenodd" clip-rule="evenodd" d="M27.5 55C12.3114 55 0 42.6886 0 27.5C0 12.3114 12.3114 0 27.5 0C42.6886 0 55 12.3114 55 27.5C55 42.6886 42.6886 55 27.5 55ZM42.1094 33.1152V19.0214L27.5 10.3125L12.8906 19.0214V36.1316L27.5 44.6875L39.557 37.6269L26.6011 29.9441L28.9472 28.6464V15.0683L38.8128 20.9498V27.1941L35.7414 25.3808L34.9164 28.7994L42.1094 33.1152ZM16.1872 20.9516L25.6712 15.2969V26.5856L16.1872 32.0856V20.9516ZM23.2289 31.8553L32.957 37.6183L27.5 40.8117L17.8355 35.1519L23.2289 31.8553Z" fill="#576993"/>
<path fill-rule="evenodd" clip-rule="evenodd" d="M27.5 55C12.3114 55 0 42.6886 0 27.5C0 12.3114 12.3114 0 27.5 0C42.6886 0 55 12.3114 55 27.5C55 42.6886 42.6886 55 27.5 55ZM42.1094 33.1152V19.0214L27.5 10.3125L12.8906 19.0214V36.1316L27.5 44.6875L39.557 37.6269L26.6011 29.9441L28.9472 28.6464V15.0683L38.8128 20.9498V27.1941L35.7414 25.3808L34.9164 28.7994L42.1094 33.1152ZM16.1872 20.9516L25.6712 15.2969V26.5856L16.1872 32.0856V20.9516ZM23.2289 31.8553L32.957 37.6183L27.5 40.8117L17.8355 35.1519L23.2289 31.8553Z" fill="url(#paint0_linear_3526_4762)"/>
<defs>
<linearGradient id="paint0_linear_3526_4762" x1="-6.875" y1="20.7246" x2="64.3866" y2="22.6125" gradientUnits="userSpaceOnUse">
<stop offset="0.411458" stop-color="#6396F9"/>
<stop offset="1" stop-color="#00D1FF"/>
</linearGradient>
</defs>
</svg>
