<svg width="46" height="46" viewBox="0 0 46 46" fill="none" xmlns="http://www.w3.org/2000/svg">
<path d="M29.423 44.8808C27.9173 46.3731 25.487 46.3731 23.9916 44.8808L2.83247 25.083C1.64814 23.9755 0.23899 21.8784 0.13705 20.264C-0.133738 15.8956 0.0579423 7.53072 0.190676 3.09755C0.238977 1.47931 1.59943 0.12478 3.22307 0.0890345C8.9021 -0.0445241 20.9345 -0.184912 22.0522 0.931745L45.3504 21.9621C46.8462 23.4556 45.4907 27.2332 43.9851 28.7356L29.423 44.8808ZM10.882 6.51014C9.61093 5.24857 7.5587 5.24857 6.29034 6.51014C5.02422 7.77822 5.02422 9.82288 6.29034 11.0872C7.56142 12.3515 9.61366 12.3515 10.882 11.0872C12.1477 9.82288 12.1477 7.77706 10.882 6.51014Z" fill="#576993"/>
<path d="M29.423 44.8808C27.9173 46.3731 25.487 46.3731 23.9916 44.8808L2.83247 25.083C1.64814 23.9755 0.23899 21.8784 0.13705 20.264C-0.133738 15.8956 0.0579423 7.53072 0.190676 3.09755C0.238977 1.47931 1.59943 0.12478 3.22307 0.0890345C8.9021 -0.0445241 20.9345 -0.184912 22.0522 0.931745L45.3504 21.9621C46.8462 23.4556 45.4907 27.2332 43.9851 28.7356L29.423 44.8808ZM10.882 6.51014C9.61093 5.24857 7.5587 5.24857 6.29034 6.51014C5.02422 7.77822 5.02422 9.82288 6.29034 11.0872C7.56142 12.3515 9.61366 12.3515 10.882 11.0872C12.1477 9.82288 12.1477 7.77706 10.882 6.51014Z" fill="url(#paint0_linear_2185_1160)"/>
<defs>
<linearGradient id="paint0_linear_2185_1160" x1="-5.75" y1="17.3333" x2="53.8506" y2="18.9123" gradientUnits="userSpaceOnUse">
<stop offset="0.411458" stop-color="#6396F9"/>
<stop offset="1" stop-color="#00D1FF"/>
</linearGradient>
</defs>
</svg>
