<svg width="184" height="52" viewBox="0 0 184 52" fill="none" xmlns="http://www.w3.org/2000/svg">
<path d="M14.9786 6.89378L29.4579 31.3588L32.9529 25.3674L21.9686 6.89378H55.4208L58.9158 0.902344H0L3.495 6.89378H14.9786Z" fill="#C4C4C4"/>
<path d="M14.9786 6.89378L29.4579 31.3588L32.9529 25.3674L21.9686 6.89378H55.4208L58.9158 0.902344H0L3.495 6.89378H14.9786Z" fill="url(#paint0_linear_1498_17)"/>
<path d="M28.4554 9.89062L34.9462 20.8749L37.9419 16.3813H42.4355L28.9547 38.8492L12.4783 9.89062H5.48828L29.454 51.3314L53.4198 9.89062H28.4554Z" fill="#C4C4C4"/>
<path d="M28.4554 9.89062L34.9462 20.8749L37.9419 16.3813H42.4355L28.9547 38.8492L12.4783 9.89062H5.48828L29.454 51.3314L53.4198 9.89062H28.4554Z" fill="url(#paint1_linear_1498_17)"/>
<path d="M71.6782 15.0314V10.8917H88.2656V15.0314H82.4986V30.9336H77.4453V15.0314H71.6782ZM101.927 30.9336L100.814 27.4791H93.6765L92.5631 30.9336H87.3099L94.3902 10.8917H100.1L107.181 30.9336H101.927ZM97.2452 16.6302L94.9898 23.4536H99.5006L97.2452 16.6302ZM116.331 27.0508H123.326V30.7337C121.803 31.0383 119.91 31.1905 117.645 31.1905H115.76C113.172 31.1905 111.307 30.6481 110.165 29.5632C109.042 28.4783 108.48 26.7082 108.48 24.253V17.6009C108.48 15.1456 109.042 13.3755 110.165 12.2906C111.307 11.1867 113.172 10.6347 115.76 10.6347H117.502C119.672 10.6347 121.566 10.7965 123.183 11.1201V14.7744H116.331C115.38 14.7744 114.676 15.0028 114.219 15.4596C113.781 15.9164 113.562 16.6587 113.562 17.6865V24.1673C113.562 25.1951 113.781 25.9374 114.219 26.3942C114.676 26.8319 115.38 27.0508 116.331 27.0508Z" fill="white"/>
<path d="M134.947 24.567L139.629 10.8917H144.882L137.802 30.9336H132.092L125.011 10.8917H130.265L134.947 24.567ZM164.54 10.8917V24.253C164.54 26.7082 163.969 28.4783 162.827 29.5632C161.704 30.6481 159.848 31.1905 157.26 31.1905H154.519C151.93 31.1905 150.065 30.6481 148.923 29.5632C147.8 28.4783 147.239 26.7082 147.239 24.253V10.8917H152.32V24.1673C152.32 25.1951 152.539 25.9374 152.977 26.3942C153.434 26.8319 154.138 27.0508 155.09 27.0508H156.689C158.535 27.0508 159.458 26.0897 159.458 24.1673V10.8917H164.54ZM182.276 30.9336H168.429V10.8917H182.133V14.9172H173.511V18.6287H181.562V22.5971H173.511V26.9366H182.276V30.9336Z" fill="black"/>
<path d="M134.947 24.567L139.629 10.8917H144.882L137.802 30.9336H132.092L125.011 10.8917H130.265L134.947 24.567ZM164.54 10.8917V24.253C164.54 26.7082 163.969 28.4783 162.827 29.5632C161.704 30.6481 159.848 31.1905 157.26 31.1905H154.519C151.93 31.1905 150.065 30.6481 148.923 29.5632C147.8 28.4783 147.239 26.7082 147.239 24.253V10.8917H152.32V24.1673C152.32 25.1951 152.539 25.9374 152.977 26.3942C153.434 26.8319 154.138 27.0508 155.09 27.0508H156.689C158.535 27.0508 159.458 26.0897 159.458 24.1673V10.8917H164.54ZM182.276 30.9336H168.429V10.8917H182.133V14.9172H173.511V18.6287H181.562V22.5971H173.511V26.9366H182.276V30.9336Z" fill="url(#paint2_linear_1498_17)"/>
<defs>
<linearGradient id="paint0_linear_1498_17" x1="28.9586" y1="29.3617" x2="21.0101" y2="-7.22578" gradientUnits="userSpaceOnUse">
<stop offset="0.290306" stop-color="#6396F9"/>
<stop offset="1" stop-color="#00D1FF"/>
</linearGradient>
<linearGradient id="paint1_linear_1498_17" x1="30.4526" y1="48.8349" x2="24.577" y2="-3.70501" gradientUnits="userSpaceOnUse">
<stop offset="0.21807" stop-color="#6396F9"/>
<stop offset="1" stop-color="#00D1FF"/>
</linearGradient>
<linearGradient id="paint2_linear_1498_17" x1="142.394" y1="42.5111" x2="138.815" y2="0.355727" gradientUnits="userSpaceOnUse">
<stop offset="0.21513" stop-color="#6396F9"/>
<stop offset="0.949066" stop-color="#00D1FF"/>
</linearGradient>
</defs>
</svg>
