<svg width="202" height="50" viewBox="0 0 202 50" fill="none" xmlns="http://www.w3.org/2000/svg">
<rect width="50" height="50" rx="10" fill="#4267B2"/>
<path d="M26.6696 41.6662V26.4612H31.7733L32.5374 20.5356H26.6696V16.7523C26.6696 15.0367 27.146 13.8675 29.6064 13.8675L32.7442 13.866V8.56625C32.2013 8.49429 30.3388 8.33301 28.1719 8.33301C23.6478 8.33301 20.5505 11.0944 20.5505 16.1657V20.5358H15.4336V26.4614H20.5503V41.6663L26.6696 41.6662Z" fill="white"/>
<rect x="76" width="50" height="50" rx="10" fill="url(#paint0_radial_3842_8747)"/>
<rect x="76" width="50" height="50" rx="10" fill="url(#paint1_radial_3842_8747)"/>
<rect x="76" width="50" height="50" rx="10" fill="url(#paint2_radial_3842_8747)"/>
<path d="M113.502 15.1783C113.502 16.6576 112.302 17.8569 110.823 17.8569C109.344 17.8569 108.145 16.6576 108.145 15.1783C108.145 13.699 109.344 12.4997 110.823 12.4997C112.302 12.4997 113.502 13.699 113.502 15.1783Z" fill="white"/>
<path fill-rule="evenodd" clip-rule="evenodd" d="M101.002 33.9283C105.933 33.9283 109.93 29.9308 109.93 24.9997C109.93 20.0686 105.933 16.0711 101.002 16.0711C96.0706 16.0711 92.0731 20.0686 92.0731 24.9997C92.0731 29.9308 96.0706 33.9283 101.002 33.9283ZM101.002 30.3569C103.96 30.3569 106.359 27.9584 106.359 24.9997C106.359 22.0411 103.96 19.6426 101.002 19.6426C98.043 19.6426 95.6445 22.0411 95.6445 24.9997C95.6445 27.9584 98.043 30.3569 101.002 30.3569Z" fill="white"/>
<path fill-rule="evenodd" clip-rule="evenodd" d="M83.1445 24.2854C83.1445 18.2849 83.1445 15.2846 84.3123 12.9927C85.3395 10.9767 86.9786 9.33758 88.9946 8.31037C91.2865 7.14258 94.2868 7.14258 100.287 7.14258H101.716C107.717 7.14258 110.717 7.14258 113.009 8.31037C115.025 9.33758 116.664 10.9767 117.691 12.9927C118.859 15.2846 118.859 18.2849 118.859 24.2854V25.714C118.859 31.7146 118.859 34.7149 117.691 37.0068C116.664 39.0228 115.025 40.6619 113.009 41.6891C110.717 42.8569 107.717 42.8569 101.716 42.8569H100.287C94.2868 42.8569 91.2865 42.8569 88.9946 41.6891C86.9786 40.6619 85.3395 39.0228 84.3123 37.0068C83.1445 34.7149 83.1445 31.7146 83.1445 25.714V24.2854ZM100.287 10.714H101.716C104.775 10.714 106.855 10.7168 108.462 10.8481C110.028 10.976 110.829 11.2079 111.387 11.4925C112.731 12.1773 113.824 13.2701 114.509 14.6141C114.793 15.1726 115.025 15.9734 115.153 17.5391C115.285 19.1466 115.287 21.2262 115.287 24.2854V25.714C115.287 28.7732 115.285 30.8528 115.153 32.4603C115.025 34.0261 114.793 34.8268 114.509 35.3854C113.824 36.7294 112.731 37.8221 111.387 38.5069C110.829 38.7915 110.028 39.0234 108.462 39.1513C106.855 39.2827 104.775 39.2854 101.716 39.2854H100.287C97.2282 39.2854 95.1486 39.2827 93.5411 39.1513C91.9753 39.0234 91.1746 38.7915 90.616 38.5069C89.272 37.8221 88.1793 36.7294 87.4945 35.3854C87.2099 34.8268 86.978 34.0261 86.8501 32.4603C86.7187 30.8528 86.716 28.7732 86.716 25.714V24.2854C86.716 21.2262 86.7187 19.1466 86.8501 17.5391C86.978 15.9734 87.2099 15.1726 87.4945 14.6141C88.1793 13.2701 89.272 12.1773 90.616 11.4925C91.1746 11.2079 91.9753 10.976 93.5411 10.8481C95.1486 10.7168 97.2282 10.714 100.287 10.714Z" fill="white"/>
<rect x="152" width="50" height="50" rx="10" fill="#1DA1F2"/>
<path d="M189.254 19.5967C189.254 19.8701 189.254 20.1436 189.254 20.3779C189.254 28.4639 183.082 37.7998 171.832 37.7998C168.355 37.7998 165.152 36.7842 162.418 35.0654C162.887 35.1045 163.395 35.1436 163.863 35.1436C166.715 35.1436 169.371 34.167 171.48 32.5264C168.785 32.4873 166.52 30.6904 165.777 28.2686C166.168 28.3467 166.52 28.3857 166.949 28.3857C167.496 28.3857 168.043 28.3076 168.551 28.1514C165.738 27.6045 163.629 25.1436 163.629 22.1748C163.629 22.1357 163.629 22.1357 163.629 22.0967C164.449 22.5654 165.387 22.8389 166.402 22.8779C164.762 21.7842 163.668 19.9092 163.668 17.7607C163.668 16.6279 163.98 15.5732 164.488 14.6748C167.496 18.3857 172.027 20.8076 177.105 21.0811C176.988 20.6514 176.949 20.1436 176.949 19.6748C176.949 16.2764 179.684 13.542 183.082 13.542C184.84 13.542 186.441 14.2842 187.535 15.4561C188.941 15.1826 190.23 14.6748 191.441 13.9717C190.973 15.417 189.996 16.5889 188.746 17.3701C189.996 17.2139 191.168 16.9014 192.262 16.3936C191.48 17.6436 190.465 18.7373 189.254 19.5967Z" fill="white"/>
<defs>
<radialGradient id="paint0_radial_3842_8747" cx="0" cy="0" r="1" gradientUnits="userSpaceOnUse" gradientTransform="translate(93.8571 37.5) rotate(-55.3758) scale(45.5707)">
<stop stop-color="#B13589"/>
<stop offset="0.79309" stop-color="#C62F94"/>
<stop offset="1" stop-color="#8A3AC8"/>
</radialGradient>
<radialGradient id="paint1_radial_3842_8747" cx="0" cy="0" r="1" gradientUnits="userSpaceOnUse" gradientTransform="translate(92.0714 51.7857) rotate(-65.1363) scale(40.3469)">
<stop stop-color="#E0E8B7"/>
<stop offset="0.444662" stop-color="#FB8A2E"/>
<stop offset="0.71474" stop-color="#E2425C"/>
<stop offset="1" stop-color="#E2425C" stop-opacity="0"/>
</radialGradient>
<radialGradient id="paint2_radial_3842_8747" cx="0" cy="0" r="1" gradientUnits="userSpaceOnUse" gradientTransform="translate(73.3214 1.78571) rotate(-8.1301) scale(69.448 14.8542)">
<stop offset="0.156701" stop-color="#406ADC"/>
<stop offset="0.467799" stop-color="#6A45BE"/>
<stop offset="1" stop-color="#6A45BE" stop-opacity="0"/>
</radialGradient>
</defs>
</svg>
