<svg width="170" height="170" viewBox="0 0 170 170" fill="none" xmlns="http://www.w3.org/2000/svg">
<g opacity="0.2">
<ellipse cx="85.069" cy="85" rx="82.069" ry="85" fill="#576993"/>
<ellipse cx="85.069" cy="85" rx="82.069" ry="85" fill="url(#paint0_linear_2420_2289)"/>
</g>
<g filter="url(#filter0_b_2420_2289)">
<ellipse cx="84.7586" cy="85" rx="62.7586" ry="65" fill="#576993"/>
<ellipse cx="84.7586" cy="85" rx="62.7586" ry="65" fill="url(#paint1_linear_2420_2289)"/>
</g>
<circle opacity="0.2" cx="85" cy="85" r="85" fill="url(#paint2_linear_2420_2289)"/>
<g filter="url(#filter1_b_2420_2289)">
<circle cx="85" cy="85" r="65" fill="#576993"/>
<circle cx="85" cy="85" r="65" fill="url(#paint3_linear_2420_2289)"/>
</g>
<path d="M101 79.8038C105 82.1132 107 83.2679 107 85C107 86.732 105 87.8868 101 90.1962L81.5 101.454C77.5 103.764 75.5 104.919 74 104.053C72.5 103.187 72.5 100.877 72.5 96.2583L72.5 73.7417C72.5 69.1229 72.5 66.8135 74 65.9474C75.5 65.0814 77.5 66.2361 81.5 68.5455L101 79.8038Z" fill="white"/>
<defs>
<filter id="filter0_b_2420_2289" x="7" y="5" width="155.516" height="160" filterUnits="userSpaceOnUse" color-interpolation-filters="sRGB">
<feFlood flood-opacity="0" result="BackgroundImageFix"/>
<feGaussianBlur in="BackgroundImage" stdDeviation="7.5"/>
<feComposite in2="SourceAlpha" operator="in" result="effect1_backgroundBlur_2420_2289"/>
<feBlend mode="normal" in="SourceGraphic" in2="effect1_backgroundBlur_2420_2289" result="shape"/>
</filter>
<filter id="filter1_b_2420_2289" x="5" y="5" width="160" height="160" filterUnits="userSpaceOnUse" color-interpolation-filters="sRGB">
<feFlood flood-opacity="0" result="BackgroundImageFix"/>
<feGaussianBlur in="BackgroundImage" stdDeviation="7.5"/>
<feComposite in2="SourceAlpha" operator="in" result="effect1_backgroundBlur_2420_2289"/>
<feBlend mode="normal" in="SourceGraphic" in2="effect1_backgroundBlur_2420_2289" result="shape"/>
</filter>
<linearGradient id="paint0_linear_2420_2289" x1="-17.5172" y1="64.058" x2="195.161" y2="69.4979" gradientUnits="userSpaceOnUse">
<stop offset="0.411458" stop-color="#6396F9"/>
<stop offset="1" stop-color="#00D1FF"/>
</linearGradient>
<linearGradient id="paint1_linear_2420_2289" x1="6.31034" y1="68.9855" x2="168.946" y2="73.1455" gradientUnits="userSpaceOnUse">
<stop offset="0.411458" stop-color="#6396F9"/>
<stop offset="1" stop-color="#00D1FF"/>
</linearGradient>
<linearGradient id="paint2_linear_2420_2289" x1="-21.25" y1="64.058" x2="199.013" y2="69.8932" gradientUnits="userSpaceOnUse">
<stop offset="0.411458" stop-color="#6396F9"/>
<stop offset="1" stop-color="#00D1FF"/>
</linearGradient>
<linearGradient id="paint3_linear_2420_2289" x1="3.75" y1="68.9855" x2="172.187" y2="73.4477" gradientUnits="userSpaceOnUse">
<stop offset="0.411458" stop-color="#6396F9"/>
<stop offset="1" stop-color="#00D1FF"/>
</linearGradient>
</defs>
</svg>
