<svg width="65" height="58" viewBox="0 0 65 58" fill="none" xmlns="http://www.w3.org/2000/svg">
<path d="M37.1744 41.9184C37.1744 42.7231 36.5221 43.3762 35.7166 43.3762H28.4276C27.6228 43.3762 26.9698 42.7231 26.9698 41.9184V36.797L0 30.6699V55.0848C0 56.695 1.30552 58.0004 2.91562 58.0004H61.2285C62.8387 58.0004 64.1441 56.6949 64.1441 55.0848V30.6947L37.1744 36.8007V41.9184Z" fill="#576993"/>
<path d="M37.1744 41.9184C37.1744 42.7231 36.5221 43.3762 35.7166 43.3762H28.4276C27.6228 43.3762 26.9698 42.7231 26.9698 41.9184V36.797L0 30.6699V55.0848C0 56.695 1.30552 58.0004 2.91562 58.0004H61.2285C62.8387 58.0004 64.1441 56.6949 64.1441 55.0848V30.6947L37.1744 36.8007V41.9184Z" fill="url(#paint0_linear_3540_5757)"/>
<path d="M61.2285 14.2656H2.91562C1.30552 14.2656 0 15.571 0 17.1812V26.9333L26.9697 33.0598V30.2557C26.9697 29.451 27.6227 28.7979 28.4275 28.7979H35.7165C36.522 28.7979 37.1743 29.451 37.1743 30.2557V33.0635L64.1441 26.9574V17.1812C64.1441 15.571 62.8386 14.2656 61.2285 14.2656Z" fill="#576993"/>
<path d="M61.2285 14.2656H2.91562C1.30552 14.2656 0 15.571 0 17.1812V26.9333L26.9697 33.0598V30.2557C26.9697 29.451 27.6227 28.7979 28.4275 28.7979H35.7165C36.522 28.7979 37.1743 29.451 37.1743 30.2557V33.0635L64.1441 26.9574V17.1812C64.1441 15.571 62.8386 14.2656 61.2285 14.2656Z" fill="url(#paint1_linear_3540_5757)"/>
<path d="M20.8234 7.49913C20.8234 5.32117 22.5953 3.54913 24.7727 3.54913H39.3734C41.5514 3.54913 43.3234 5.32106 43.3234 7.49913V11.35H46.7515V7.49913C46.7515 3.43038 43.4422 0.121094 39.3734 0.121094H24.7726C20.7046 0.121094 17.3945 3.43038 17.3945 7.49913V11.35H20.8233L20.8234 7.49913Z" fill="#576993"/>
<path d="M20.8234 7.49913C20.8234 5.32117 22.5953 3.54913 24.7727 3.54913H39.3734C41.5514 3.54913 43.3234 5.32106 43.3234 7.49913V11.35H46.7515V7.49913C46.7515 3.43038 43.4422 0.121094 39.3734 0.121094H24.7726C20.7046 0.121094 17.3945 3.43038 17.3945 7.49913V11.35H20.8233L20.8234 7.49913Z" fill="url(#paint2_linear_3540_5757)"/>
<defs>
<linearGradient id="paint0_linear_3540_5757" x1="-8.01801" y1="40.9684" x2="74.8294" y2="46.1195" gradientUnits="userSpaceOnUse">
<stop offset="0.411458" stop-color="#6396F9"/>
<stop offset="1" stop-color="#00D1FF"/>
</linearGradient>
<linearGradient id="paint1_linear_3540_5757" x1="-8.01801" y1="21.3489" x2="74.4755" y2="28.8061" gradientUnits="userSpaceOnUse">
<stop offset="0.411458" stop-color="#6396F9"/>
<stop offset="1" stop-color="#00D1FF"/>
</linearGradient>
<linearGradient id="paint2_linear_3540_5757" x1="13.7249" y1="4.35227" x2="51.6067" y2="6.97597" gradientUnits="userSpaceOnUse">
<stop offset="0.411458" stop-color="#6396F9"/>
<stop offset="1" stop-color="#00D1FF"/>
</linearGradient>
</defs>
</svg>
