<svg width="50" height="50" viewBox="0 0 50 50" fill="none" xmlns="http://www.w3.org/2000/svg">
<path d="M25 50C38.8071 50 50 38.8071 50 25C50 11.1929 38.8071 0 25 0C11.1929 0 0 11.1929 0 25C0 38.8071 11.1929 50 25 50Z" fill="url(#paint0_linear_3267_4370)"/>
<path d="M15.0011 24.9267C15.5022 23.4394 16.018 21.9568 16.5008 20.4638C17.5976 17.0697 18.6761 13.6686 19.7649 10.2722C20.0857 9.26805 20.4406 9.00288 21.4575 9.00173C24.2332 8.99942 27.0088 8.99942 29.7833 9.00173C30.4932 9.00173 30.7352 9.23577 30.75 9.96324C30.7546 10.2077 30.7283 10.4671 30.6507 10.6965C29.6247 13.7494 28.5872 16.7988 27.5498 19.8493C27.5076 19.9715 27.4391 20.0857 27.3067 20.3612C27.2804 20.088 27.2428 19.9727 27.2622 19.8666C27.7153 17.3395 28.1729 14.8135 28.6329 12.2875C28.7835 11.4597 28.4925 11.0965 27.6491 11.0942C25.9577 11.0896 24.2651 11.1046 22.5737 11.0862C22.0316 11.0804 21.7314 11.311 21.5671 11.8206C20.3676 15.5248 19.1578 19.2245 17.9548 22.9275C17.7152 23.6666 17.8133 23.7911 18.6122 23.7899C23.6693 23.7865 28.7253 23.8003 33.7813 23.7599C34.7788 23.7519 35.5172 24.0378 36 24.9267V25.6184C33.4035 29.4091 30.8048 33.1975 28.2117 36.9894C26.0182 40.1991 23.8314 43.4133 21.639 46.6242C21.5477 46.7579 21.4312 46.8755 21.3274 47C21.2783 46.9827 21.2281 46.9654 21.179 46.9481C21.7942 41.5364 22.4105 36.1247 23.0257 30.713L23.1535 30.7165C23.1683 30.8387 23.1923 30.9609 23.1957 31.0831C23.2391 33.118 23.279 35.154 23.3213 37.1889C23.3235 37.3042 23.3144 37.4206 23.3304 37.5347C23.3943 38.0166 23.4514 38.5205 24.0243 38.6726C24.5801 38.8214 24.8517 38.4317 25.1177 38.0385C27.4585 34.5822 29.8039 31.1281 32.1412 27.6683C32.2782 27.4665 32.4095 27.2382 32.4585 27.003C32.5613 26.5211 32.252 26.1291 31.7692 26.068C31.6562 26.0542 31.5409 26.0611 31.4268 26.06C26.4655 26.0219 21.5043 25.9758 16.543 25.9574C15.9016 25.9551 15.3938 25.7775 15 25.2702V24.9244L15.0011 24.9267Z" fill="white"/>
<defs>
<linearGradient id="paint0_linear_3267_4370" x1="-6.25" y1="18.8406" x2="58.5333" y2="20.5568" gradientUnits="userSpaceOnUse">
<stop offset="0.411458" stop-color="#6396F9"/>
<stop offset="1" stop-color="#00D1FF"/>
</linearGradient>
</defs>
</svg>
