<svg width="57" height="42" viewBox="0 0 57 42" fill="none" xmlns="http://www.w3.org/2000/svg">
<path d="M44.3236 12.5316H52.1264H52.1259C52.4528 12.5285 52.7793 12.5542 53.101 12.6098V7.65526C53.0995 5.84504 52.3792 4.10996 51.0992 2.82999C49.8192 1.55004 48.0841 0.829707 46.2739 0.828125H7.26073C5.45104 0.82967 3.71542 1.54997 2.43546 2.82999C1.15551 4.10994 0.435703 5.84504 0.433594 7.65526V34.9641C0.435653 36.7743 1.15544 38.5094 2.43546 39.7894C3.71541 41.0693 5.45104 41.7891 7.26073 41.7912H46.2739C48.0841 41.7892 49.8192 41.0694 51.0992 39.7894C52.3791 38.5094 53.0995 36.7743 53.101 34.9641V30.0095C52.7793 30.0646 52.4528 30.0909 52.1259 30.0873H44.3237C41.1876 30.0873 38.2895 28.4145 36.7216 25.6985C35.1534 22.9827 35.1534 19.6365 36.7216 16.9205C38.2895 14.2047 41.1876 12.5313 44.3237 12.5313L44.3236 12.5316ZM15.0641 4.72934H7.26133C6.48594 4.7314 5.74293 5.04032 5.19514 5.58865C4.6468 6.13699 4.33789 6.87994 4.33532 7.65536V11.5565C4.33532 12.0951 3.89871 12.5317 3.36017 12.5317C2.82162 12.5317 2.38502 12.0951 2.38502 11.5565V7.65536C2.38553 6.36202 2.89936 5.12166 3.81379 4.20733C4.72822 3.29299 5.96802 2.77908 7.2613 2.77855H15.0641C15.6026 2.77855 16.0392 3.21516 16.0392 3.75422C16.0392 4.29276 15.6026 4.72937 15.0641 4.72937L15.0641 4.72934ZM18.9653 4.72934C18.5709 4.72934 18.2151 4.49147 18.0643 4.12695C17.9134 3.76294 17.9968 3.34333 18.2759 3.06427C18.5544 2.78521 18.974 2.7018 19.3386 2.85265C19.7031 3.00402 19.9404 3.35929 19.9404 3.75418C19.9389 4.2917 19.5033 4.72779 18.9653 4.72933L18.9653 4.72934Z" fill="#576993"/>
<path d="M44.3236 12.5316H52.1264H52.1259C52.4528 12.5285 52.7793 12.5542 53.101 12.6098V7.65526C53.0995 5.84504 52.3792 4.10996 51.0992 2.82999C49.8192 1.55004 48.0841 0.829707 46.2739 0.828125H7.26073C5.45104 0.82967 3.71542 1.54997 2.43546 2.82999C1.15551 4.10994 0.435703 5.84504 0.433594 7.65526V34.9641C0.435653 36.7743 1.15544 38.5094 2.43546 39.7894C3.71541 41.0693 5.45104 41.7891 7.26073 41.7912H46.2739C48.0841 41.7892 49.8192 41.0694 51.0992 39.7894C52.3791 38.5094 53.0995 36.7743 53.101 34.9641V30.0095C52.7793 30.0646 52.4528 30.0909 52.1259 30.0873H44.3237C41.1876 30.0873 38.2895 28.4145 36.7216 25.6985C35.1534 22.9827 35.1534 19.6365 36.7216 16.9205C38.2895 14.2047 41.1876 12.5313 44.3237 12.5313L44.3236 12.5316ZM15.0641 4.72934H7.26133C6.48594 4.7314 5.74293 5.04032 5.19514 5.58865C4.6468 6.13699 4.33789 6.87994 4.33532 7.65536V11.5565C4.33532 12.0951 3.89871 12.5317 3.36017 12.5317C2.82162 12.5317 2.38502 12.0951 2.38502 11.5565V7.65536C2.38553 6.36202 2.89936 5.12166 3.81379 4.20733C4.72822 3.29299 5.96802 2.77908 7.2613 2.77855H15.0641C15.6026 2.77855 16.0392 3.21516 16.0392 3.75422C16.0392 4.29276 15.6026 4.72937 15.0641 4.72937L15.0641 4.72934ZM18.9653 4.72934C18.5709 4.72934 18.2151 4.49147 18.0643 4.12695C17.9134 3.76294 17.9968 3.34333 18.2759 3.06427C18.5544 2.78521 18.974 2.7018 19.3386 2.85265C19.7031 3.00402 19.9404 3.35929 19.9404 3.75418C19.9389 4.2917 19.5033 4.72779 18.9653 4.72933L18.9653 4.72934Z" fill="url(#paint0_linear_2185_1151)"/>
<path d="M52.1219 14.4806H44.3196C41.8802 14.4806 39.6267 15.7817 38.407 17.8941C37.1873 20.0066 37.1873 22.6092 38.407 24.7212C39.6267 26.8337 41.8803 28.1353 44.3196 28.1353H52.1224H52.1219C53.4152 28.1348 54.6556 27.6209 55.5699 26.706C56.4843 25.7916 56.9982 24.5517 56.9987 23.2585V19.3573C56.9982 18.0639 56.4844 16.8236 55.5699 15.9092C54.6555 14.9949 53.4152 14.481 52.1219 14.4805L52.1219 14.4806ZM44.3191 22.2834H44.3196C43.9247 22.2834 43.5695 22.0455 43.4181 21.681C43.2673 21.3164 43.3507 20.8973 43.6297 20.6183C43.9088 20.3392 44.3284 20.2558 44.6924 20.4067C45.0569 20.5575 45.2948 20.9133 45.2948 21.3077C45.2932 21.8457 44.8572 22.2818 44.3196 22.2833L44.3191 22.2834Z" fill="#576993"/>
<path d="M52.1219 14.4806H44.3196C41.8802 14.4806 39.6267 15.7817 38.407 17.8941C37.1873 20.0066 37.1873 22.6092 38.407 24.7212C39.6267 26.8337 41.8803 28.1353 44.3196 28.1353H52.1224H52.1219C53.4152 28.1348 54.6556 27.6209 55.5699 26.706C56.4843 25.7916 56.9982 24.5517 56.9987 23.2585V19.3573C56.9982 18.0639 56.4844 16.8236 55.5699 15.9092C54.6555 14.9949 53.4152 14.481 52.1219 14.4805L52.1219 14.4806ZM44.3191 22.2834H44.3196C43.9247 22.2834 43.5695 22.0455 43.4181 21.681C43.2673 21.3164 43.3507 20.8973 43.6297 20.6183C43.9088 20.3392 44.3284 20.2558 44.6924 20.4067C45.0569 20.5575 45.2948 20.9133 45.2948 21.3077C45.2932 21.8457 44.8572 22.2818 44.3196 22.2833L44.3191 22.2834Z" fill="url(#paint1_linear_2185_1151)"/>
<defs>
<linearGradient id="paint0_linear_2185_1151" x1="-6.14984" y1="16.2635" x2="62.0583" y2="18.5868" gradientUnits="userSpaceOnUse">
<stop offset="0.411458" stop-color="#6396F9"/>
<stop offset="1" stop-color="#00D1FF"/>
</linearGradient>
<linearGradient id="paint1_linear_2185_1151" x1="35.0539" y1="19.6258" x2="60.3094" y2="20.5815" gradientUnits="userSpaceOnUse">
<stop offset="0.411458" stop-color="#6396F9"/>
<stop offset="1" stop-color="#00D1FF"/>
</linearGradient>
</defs>
</svg>
