<svg width="15" height="14" viewBox="0 0 15 14" fill="none" xmlns="http://www.w3.org/2000/svg">
<g clip-path="url(#clip0_1687_1589)">
<path d="M10.61 9.51239C10.191 9.51239 9.80065 9.63423 9.47152 9.84371L6.14971 7.52456C6.20304 7.33839 6.23219 7.14203 6.23219 6.93877C6.23219 6.73548 6.20304 6.53912 6.14971 6.35298L9.38184 4.09642C9.72863 4.34275 10.1522 4.48808 10.61 4.48808C11.783 4.48808 12.7339 3.53716 12.7339 2.36417C12.7339 1.19118 11.783 0.240234 10.61 0.240234C9.43705 0.240234 8.48613 1.19115 8.48613 2.36414C8.48613 2.51906 8.50317 2.66993 8.53466 2.81542L5.22046 5.12929C4.89695 4.93004 4.51613 4.81486 4.10828 4.81486C2.93529 4.81486 1.98438 5.76578 1.98438 6.93877C1.98438 8.11176 2.93527 9.06268 4.10828 9.06268C4.5161 9.06268 4.89695 8.9475 5.22046 8.74825L8.56025 11.08C8.51222 11.2574 8.48613 11.4438 8.48613 11.6363C8.48613 12.8093 9.43705 13.7602 10.61 13.7602C11.783 13.7602 12.734 12.8093 12.734 11.6363C12.734 10.4633 11.783 9.51239 10.61 9.51239Z" fill="white"/>
</g>
<defs>
<clipPath id="clip0_1687_1589">
<rect width="13.52" height="13.52" fill="white" transform="translate(0.597656 0.240234)"/>
</clipPath>
</defs>
</svg>
