<svg width="211" height="58" viewBox="0 0 211 58" fill="none" xmlns="http://www.w3.org/2000/svg">
<path d="M79.7478 19.9452V15.1332H99.0288V19.9452H92.3252V38.4297H86.4513V19.9452H79.7478ZM114.909 38.4297L113.615 34.4142H105.318L104.024 38.4297H97.9178L106.148 15.1332H112.785L121.015 38.4297H114.909ZM109.466 21.8036L106.845 29.735H112.088L109.466 21.8036ZM131.652 33.9164H139.783V38.1974C138.013 38.5514 135.811 38.7284 133.179 38.7284H130.988C127.979 38.7284 125.811 38.0978 124.484 36.8368C123.179 35.5757 122.526 33.5182 122.526 30.6642V22.9319C122.526 20.0779 123.179 18.0204 124.484 16.7593C125.811 15.4761 127.979 14.8346 130.988 14.8346H133.013C135.535 14.8346 137.736 15.0226 139.617 15.3987V19.6465H131.652C130.546 19.6465 129.727 19.912 129.196 20.443C128.687 20.9739 128.433 21.8368 128.433 23.0315V30.5646C128.433 31.7593 128.687 32.6222 129.196 33.1531C129.727 33.662 130.546 33.9164 131.652 33.9164Z" fill="white"/>
<path d="M153.283 31.0292L158.725 15.1332H164.831L156.601 38.4297H149.964L141.734 15.1332H147.84L153.283 31.0292ZM187.681 15.1332V30.6642C187.681 33.5182 187.017 35.5757 185.69 36.8368C184.385 38.0978 182.228 38.7284 179.219 38.7284H176.033C173.024 38.7284 170.856 38.0978 169.529 36.8368C168.223 35.5757 167.571 33.5182 167.571 30.6642V15.1332H173.478V30.5646C173.478 31.7593 173.732 32.6222 174.241 33.1531C174.772 33.662 175.59 33.9164 176.697 33.9164H178.555C180.701 33.9164 181.774 32.7992 181.774 30.5646V15.1332H187.681ZM208.297 38.4297H192.202V15.1332H208.131V19.8124H198.109V24.1266H207.468V28.7394H198.109V33.7837H208.297V38.4297Z" fill="black"/>
<path d="M153.283 31.0292L158.725 15.1332H164.831L156.601 38.4297H149.964L141.734 15.1332H147.84L153.283 31.0292ZM187.681 15.1332V30.6642C187.681 33.5182 187.017 35.5757 185.69 36.8368C184.385 38.0978 182.228 38.7284 179.219 38.7284H176.033C173.024 38.7284 170.856 38.0978 169.529 36.8368C168.223 35.5757 167.571 33.5182 167.571 30.6642V15.1332H173.478V30.5646C173.478 31.7593 173.732 32.6222 174.241 33.1531C174.772 33.662 175.59 33.9164 176.697 33.9164H178.555C180.701 33.9164 181.774 32.7992 181.774 30.5646V15.1332H187.681ZM208.297 38.4297H192.202V15.1332H208.131V19.8124H198.109V24.1266H207.468V28.7394H198.109V33.7837H208.297V38.4297Z" fill="url(#paint0_linear_1668_9)"/>
<path d="M17.2427 6.89113L33.9107 35.0299L37.934 28.1388L25.2894 6.89113H63.7982L67.8215 0H0L4.02331 6.89113H17.2427Z" fill="#C4C4C4"/>
<path d="M17.2427 6.89113L33.9107 35.0299L37.934 28.1388L25.2894 6.89113H63.7982L67.8215 0H0L4.02331 6.89113H17.2427Z" fill="#6396F9"/>
<path d="M17.2427 6.89113L33.9107 35.0299L37.934 28.1388L25.2894 6.89113H63.7982L67.8215 0H0L4.02331 6.89113H17.2427Z" fill="url(#paint1_linear_1668_9)"/>
<path d="M32.7609 10.3367L40.2328 22.9704L43.6813 17.8021H48.8542L33.3357 43.6438L14.3687 10.3367H6.32204L33.9104 58.0003L61.4988 10.3367H32.7609Z" fill="#C4C4C4"/>
<path d="M32.7609 10.3367L40.2328 22.9704L43.6813 17.8021H48.8542L33.3357 43.6438L14.3687 10.3367H6.32204L33.9104 58.0003L61.4988 10.3367H32.7609Z" fill="#6396F9"/>
<path d="M32.7609 10.3367L40.2328 22.9704L43.6813 17.8021H48.8542L33.3357 43.6438L14.3687 10.3367H6.32204L33.9104 58.0003L61.4988 10.3367H32.7609Z" fill="url(#paint2_linear_1668_9)"/>
<defs>
<linearGradient id="paint0_linear_1668_9" x1="161.939" y1="51.9469" x2="157.779" y2="2.94605" gradientUnits="userSpaceOnUse">
<stop offset="0.335078" stop-color="#6396F9"/>
<stop offset="0.864583" stop-color="#00D1FF"/>
</linearGradient>
<linearGradient id="paint1_linear_1668_9" x1="-27.4235" y1="20.0584" x2="78.4713" y2="18.9571" gradientUnits="userSpaceOnUse">
<stop stop-color="#00D1FF"/>
<stop offset="0.835258" stop-color="#6396F9"/>
</linearGradient>
<linearGradient id="paint2_linear_1668_9" x1="-27.4235" y1="20.0584" x2="78.4713" y2="18.9571" gradientUnits="userSpaceOnUse">
<stop stop-color="#00D1FF"/>
<stop offset="0.835258" stop-color="#6396F9"/>
</linearGradient>
</defs>
</svg>
