<svg width="1001" height="899" viewBox="0 0 1001 899" fill="none" xmlns="http://www.w3.org/2000/svg">
<g filter="url(#filter0_f_2185_719)">
<ellipse cx="237" cy="318" rx="76" ry="62" fill="#8C00FA" fill-opacity="0.45"/>
</g>
<g filter="url(#filter1_f_2185_719)">
<ellipse cx="705" cy="503" rx="105" ry="62" fill="#00D1FF" fill-opacity="0.34"/>
</g>
<path d="M317.153 183.537L500 491.996L544.136 416.455L405.424 183.537H827.864L872 107.996H128L172.136 183.537H317.153Z" stroke="#6396F9" stroke-width="3"/>
<path d="M484.75 199.996L570.875 345.514L610.625 285.984H670.25L491.375 583.635L272.75 199.996H180L498 748.996L816 199.996H484.75Z" stroke="#6396F9" stroke-width="3"/>
<g opacity="0.38" filter="url(#filter2_f_2185_719)">
<path d="M327.511 220.404L500.071 511.972L541.724 440.567L410.816 220.404H809.49L851.142 149H149L190.652 220.404H327.511Z" fill="#C4C4C4"/>
<path d="M327.511 220.404L500.071 511.972L541.724 440.567L410.816 220.404H809.49L851.142 149H149L190.652 220.404H327.511Z" fill="url(#paint0_linear_2185_719)"/>
<path d="M488.173 256.121L565.528 387.029L601.23 333.476H654.783L494.124 601.242L297.762 256.121H214.457L500.074 750.001L785.691 256.121H488.173Z" fill="#C4C4C4"/>
<path d="M488.173 256.121L565.528 387.029L601.23 333.476H654.783L494.124 601.242L297.762 256.121H214.457L500.074 750.001L785.691 256.121H488.173Z" fill="url(#paint1_linear_2185_719)"/>
</g>
<g opacity="0.4">
<g filter="url(#filter3_f_2185_719)">
<circle cx="859.312" cy="114.25" r="5.4375" fill="#576993"/>
<circle cx="859.312" cy="114.25" r="5.4375" fill="url(#paint2_linear_2185_719)"/>
</g>
<circle cx="859.312" cy="114.25" r="18.125" fill="url(#paint3_linear_2185_719)" fill-opacity="0.04"/>
<g filter="url(#filter4_f_2185_719)">
<circle cx="902.812" cy="68.9375" r="5.4375" fill="#576993"/>
<circle cx="902.812" cy="68.9375" r="5.4375" fill="url(#paint4_linear_2185_719)"/>
</g>
<circle cx="902.812" cy="68.9375" r="18.125" fill="url(#paint5_linear_2185_719)" fill-opacity="0.04"/>
<g filter="url(#filter5_f_2185_719)">
<circle cx="877.438" cy="148.688" r="2.71875" fill="#576993"/>
<circle cx="877.438" cy="148.688" r="2.71875" fill="url(#paint6_linear_2185_719)"/>
</g>
<circle cx="877.438" cy="148.688" r="9.0625" fill="url(#paint7_linear_2185_719)" fill-opacity="0.04"/>
<g filter="url(#filter6_f_2185_719)">
<circle cx="920.938" cy="103.375" r="2.71875" fill="#576993"/>
<circle cx="920.938" cy="103.375" r="2.71875" fill="url(#paint8_linear_2185_719)"/>
</g>
<circle cx="920.938" cy="103.375" r="9.0625" fill="url(#paint9_linear_2185_719)" fill-opacity="0.04"/>
<g filter="url(#filter7_f_2185_719)">
<circle cx="839.375" cy="137.812" r="2.71875" fill="#576993"/>
<circle cx="839.375" cy="137.812" r="2.71875" fill="url(#paint10_linear_2185_719)"/>
</g>
<circle cx="839.375" cy="137.812" r="9.0625" fill="url(#paint11_linear_2185_719)" fill-opacity="0.04"/>
<g filter="url(#filter8_f_2185_719)">
<circle cx="882.875" cy="92.5" r="2.71875" fill="#576993"/>
<circle cx="882.875" cy="92.5" r="2.71875" fill="url(#paint12_linear_2185_719)"/>
</g>
<circle cx="882.875" cy="92.5" r="9.0625" fill="url(#paint13_linear_2185_719)" fill-opacity="0.04"/>
<g filter="url(#filter9_f_2185_719)">
<circle cx="823.062" cy="103.375" r="2.71875" fill="#576993"/>
<circle cx="823.062" cy="103.375" r="2.71875" fill="url(#paint14_linear_2185_719)"/>
</g>
<circle cx="823.062" cy="103.375" r="9.0625" fill="url(#paint15_linear_2185_719)" fill-opacity="0.04"/>
<g filter="url(#filter10_f_2185_719)">
<circle cx="866.562" cy="58.0625" r="2.71875" fill="#576993"/>
<circle cx="866.562" cy="58.0625" r="2.71875" fill="url(#paint16_linear_2185_719)"/>
</g>
<circle cx="866.562" cy="58.0625" r="9.0625" fill="url(#paint17_linear_2185_719)" fill-opacity="0.04"/>
</g>
<g opacity="0.4">
<g filter="url(#filter11_f_2185_719)">
<circle cx="241.312" cy="365.25" r="5.4375" fill="#576993"/>
<circle cx="241.312" cy="365.25" r="5.4375" fill="url(#paint18_linear_2185_719)"/>
</g>
<circle cx="241.312" cy="365.25" r="18.125" fill="url(#paint19_linear_2185_719)" fill-opacity="0.04"/>
<g filter="url(#filter12_f_2185_719)">
<circle cx="284.812" cy="319.938" r="5.4375" fill="#576993"/>
<circle cx="284.812" cy="319.938" r="5.4375" fill="url(#paint20_linear_2185_719)"/>
</g>
<circle cx="284.812" cy="319.938" r="18.125" fill="url(#paint21_linear_2185_719)" fill-opacity="0.04"/>
<g filter="url(#filter13_f_2185_719)">
<circle cx="259.438" cy="399.688" r="2.71875" fill="#576993"/>
<circle cx="259.438" cy="399.688" r="2.71875" fill="url(#paint22_linear_2185_719)"/>
</g>
<circle cx="259.438" cy="399.688" r="9.0625" fill="url(#paint23_linear_2185_719)" fill-opacity="0.04"/>
<g filter="url(#filter14_f_2185_719)">
<circle cx="302.938" cy="354.375" r="2.71875" fill="#576993"/>
<circle cx="302.938" cy="354.375" r="2.71875" fill="url(#paint24_linear_2185_719)"/>
</g>
<circle cx="302.938" cy="354.375" r="9.0625" fill="url(#paint25_linear_2185_719)" fill-opacity="0.04"/>
<g filter="url(#filter15_f_2185_719)">
<circle cx="221.375" cy="388.812" r="2.71875" fill="#576993"/>
<circle cx="221.375" cy="388.812" r="2.71875" fill="url(#paint26_linear_2185_719)"/>
</g>
<circle cx="221.375" cy="388.812" r="9.0625" fill="url(#paint27_linear_2185_719)" fill-opacity="0.04"/>
<g filter="url(#filter16_f_2185_719)">
<circle cx="264.875" cy="343.5" r="2.71875" fill="#576993"/>
<circle cx="264.875" cy="343.5" r="2.71875" fill="url(#paint28_linear_2185_719)"/>
</g>
<circle cx="264.875" cy="343.5" r="9.0625" fill="url(#paint29_linear_2185_719)" fill-opacity="0.04"/>
<g filter="url(#filter17_f_2185_719)">
<circle cx="205.062" cy="354.375" r="2.71875" fill="#576993"/>
<circle cx="205.062" cy="354.375" r="2.71875" fill="url(#paint30_linear_2185_719)"/>
</g>
<circle cx="205.062" cy="354.375" r="9.0625" fill="url(#paint31_linear_2185_719)" fill-opacity="0.04"/>
<g filter="url(#filter18_f_2185_719)">
<circle cx="248.562" cy="309.062" r="2.71875" fill="#576993"/>
<circle cx="248.562" cy="309.062" r="2.71875" fill="url(#paint32_linear_2185_719)"/>
</g>
<circle cx="248.562" cy="309.062" r="9.0625" fill="url(#paint33_linear_2185_719)" fill-opacity="0.04"/>
</g>
<path d="M325.539 164.215L500.059 459.095L542.185 386.88L409.79 164.215H812.992L855.118 92H145L187.126 164.215H325.539Z" fill="#C4C4C4"/>
<path d="M325.539 164.215L500.059 459.095L542.185 386.88L409.79 164.215H812.992L855.118 92H145L187.126 164.215H325.539Z" fill="url(#paint34_linear_2185_719)"/>
<path d="M488.025 200.338L566.258 332.733L602.366 278.571H656.528L494.043 549.379L295.451 200.338H211.199L500.061 699.828L788.922 200.338H488.025Z" fill="#C4C4C4"/>
<path d="M488.025 200.338L566.258 332.733L602.366 278.571H656.528L494.043 549.379L295.451 200.338H211.199L500.061 699.828L788.922 200.338H488.025Z" fill="url(#paint35_linear_2185_719)"/>
<g filter="url(#filter19_d_2185_719)">
<rect x="513" y="441" width="326" height="117" rx="18" fill="white"/>
<rect x="513" y="441" width="326" height="117" rx="18" fill="url(#paint36_linear_2185_719)"/>
<path d="M553.779 480.545C553.779 481.794 553.488 482.846 552.904 483.703C552.321 484.551 551.519 485.193 550.498 485.631C549.486 486.059 548.338 486.273 547.053 486.273C545.768 486.273 544.615 486.059 543.594 485.631C542.573 485.193 541.766 484.551 541.174 483.703C540.581 482.846 540.285 481.794 540.285 480.545C540.285 479.706 540.454 478.95 540.791 478.275C541.128 477.592 541.598 477.008 542.199 476.525C542.81 476.033 543.525 475.66 544.346 475.404C545.166 475.14 546.059 475.008 547.025 475.008C548.32 475.008 549.477 475.236 550.498 475.691C551.519 476.147 552.321 476.79 552.904 477.619C553.488 478.449 553.779 479.424 553.779 480.545ZM549.814 480.285C549.814 479.674 549.696 479.15 549.459 478.713C549.231 478.266 548.908 477.924 548.488 477.688C548.069 477.451 547.581 477.332 547.025 477.332C546.469 477.332 545.982 477.451 545.562 477.688C545.143 477.924 544.815 478.266 544.578 478.713C544.35 479.15 544.236 479.674 544.236 480.285C544.236 480.887 544.35 481.406 544.578 481.844C544.815 482.281 545.143 482.618 545.562 482.855C545.991 483.083 546.488 483.197 547.053 483.197C547.618 483.197 548.105 483.083 548.516 482.855C548.935 482.618 549.254 482.281 549.473 481.844C549.701 481.406 549.814 480.887 549.814 480.285ZM553.355 471.371C553.355 472.383 553.087 473.281 552.549 474.064C552.011 474.839 551.264 475.445 550.307 475.883C549.359 476.32 548.274 476.539 547.053 476.539C545.822 476.539 544.729 476.32 543.771 475.883C542.814 475.445 542.067 474.839 541.529 474.064C540.992 473.281 540.723 472.383 540.723 471.371C540.723 470.168 540.992 469.156 541.529 468.336C542.076 467.507 542.824 466.878 543.771 466.449C544.729 466.021 545.813 465.807 547.025 465.807C548.256 465.807 549.345 466.021 550.293 466.449C551.25 466.878 551.997 467.507 552.535 468.336C553.082 469.156 553.355 470.168 553.355 471.371ZM549.418 471.549C549.418 471.011 549.322 470.546 549.131 470.154C548.939 469.753 548.666 469.443 548.311 469.225C547.964 469.006 547.536 468.896 547.025 468.896C546.533 468.896 546.109 469.001 545.754 469.211C545.408 469.421 545.139 469.726 544.947 470.127C544.765 470.519 544.674 470.993 544.674 471.549C544.674 472.087 544.765 472.561 544.947 472.971C545.139 473.372 545.412 473.686 545.768 473.914C546.123 474.142 546.551 474.256 547.053 474.256C547.554 474.256 547.978 474.142 548.324 473.914C548.68 473.686 548.949 473.372 549.131 472.971C549.322 472.561 549.418 472.087 549.418 471.549ZM569.844 474.297V477.742C569.844 479.237 569.684 480.527 569.365 481.611C569.046 482.687 568.586 483.571 567.984 484.264C567.392 484.947 566.686 485.453 565.865 485.781C565.045 486.109 564.133 486.273 563.131 486.273C562.329 486.273 561.581 486.173 560.889 485.973C560.196 485.763 559.572 485.439 559.016 485.002C558.469 484.564 557.995 484.013 557.594 483.348C557.202 482.673 556.901 481.871 556.691 480.941C556.482 480.012 556.377 478.945 556.377 477.742V474.297C556.377 472.802 556.536 471.521 556.855 470.455C557.184 469.38 557.644 468.5 558.236 467.816C558.838 467.133 559.549 466.632 560.369 466.312C561.189 465.984 562.101 465.82 563.104 465.82C563.906 465.82 564.648 465.925 565.332 466.135C566.025 466.335 566.649 466.65 567.205 467.078C567.761 467.507 568.235 468.058 568.627 468.732C569.019 469.398 569.32 470.195 569.529 471.125C569.739 472.046 569.844 473.103 569.844 474.297ZM565.893 478.262V473.764C565.893 473.044 565.852 472.415 565.77 471.877C565.697 471.339 565.583 470.883 565.428 470.51C565.273 470.127 565.081 469.817 564.854 469.58C564.626 469.343 564.366 469.17 564.074 469.061C563.783 468.951 563.459 468.896 563.104 468.896C562.657 468.896 562.26 468.983 561.914 469.156C561.577 469.329 561.29 469.607 561.053 469.99C560.816 470.364 560.633 470.865 560.506 471.494C560.387 472.114 560.328 472.87 560.328 473.764V478.262C560.328 478.982 560.365 479.615 560.438 480.162C560.52 480.709 560.638 481.178 560.793 481.57C560.957 481.953 561.148 482.268 561.367 482.514C561.595 482.751 561.855 482.924 562.146 483.033C562.447 483.143 562.775 483.197 563.131 483.197C563.568 483.197 563.956 483.111 564.293 482.938C564.639 482.755 564.931 482.473 565.168 482.09C565.414 481.698 565.596 481.188 565.715 480.559C565.833 479.93 565.893 479.164 565.893 478.262ZM572.469 470.975V469.922C572.469 469.165 572.633 468.477 572.961 467.857C573.289 467.238 573.772 466.741 574.41 466.367C575.048 465.993 575.832 465.807 576.762 465.807C577.719 465.807 578.516 465.993 579.154 466.367C579.801 466.741 580.285 467.238 580.604 467.857C580.932 468.477 581.096 469.165 581.096 469.922V470.975C581.096 471.713 580.932 472.392 580.604 473.012C580.285 473.632 579.806 474.128 579.168 474.502C578.53 474.876 577.742 475.062 576.803 475.062C575.855 475.062 575.057 474.876 574.41 474.502C573.772 474.128 573.289 473.632 572.961 473.012C572.633 472.392 572.469 471.713 572.469 470.975ZM575.08 469.922V470.975C575.08 471.294 575.139 471.599 575.258 471.891C575.385 472.173 575.577 472.406 575.832 472.588C576.096 472.761 576.415 472.848 576.789 472.848C577.181 472.848 577.5 472.761 577.746 472.588C577.992 472.406 578.174 472.173 578.293 471.891C578.411 471.599 578.471 471.294 578.471 470.975V469.922C578.471 469.585 578.407 469.275 578.279 468.992C578.161 468.701 577.974 468.468 577.719 468.295C577.473 468.113 577.154 468.021 576.762 468.021C576.397 468.021 576.087 468.113 575.832 468.295C575.577 468.468 575.385 468.701 575.258 468.992C575.139 469.275 575.08 469.585 575.08 469.922ZM581.984 482.172V481.119C581.984 480.372 582.148 479.688 582.477 479.068C582.814 478.449 583.301 477.952 583.939 477.578C584.587 477.204 585.38 477.018 586.318 477.018C587.266 477.018 588.059 477.204 588.697 477.578C589.335 477.952 589.818 478.449 590.146 479.068C590.475 479.688 590.639 480.372 590.639 481.119V482.172C590.639 482.919 590.475 483.603 590.146 484.223C589.827 484.842 589.349 485.339 588.711 485.713C588.073 486.087 587.285 486.273 586.346 486.273C585.398 486.273 584.6 486.087 583.953 485.713C583.306 485.339 582.814 484.842 582.477 484.223C582.148 483.603 581.984 482.919 581.984 482.172ZM584.609 481.119V482.172C584.609 482.5 584.682 482.81 584.828 483.102C584.974 483.393 585.174 483.626 585.43 483.799C585.694 483.972 585.999 484.059 586.346 484.059C586.783 484.059 587.125 483.972 587.371 483.799C587.617 483.626 587.786 483.393 587.877 483.102C587.977 482.81 588.027 482.5 588.027 482.172V481.119C588.027 480.791 587.964 480.486 587.836 480.203C587.708 479.911 587.517 479.679 587.262 479.506C587.016 479.324 586.701 479.232 586.318 479.232C585.936 479.232 585.617 479.324 585.361 479.506C585.115 479.679 584.928 479.911 584.801 480.203C584.673 480.486 584.609 480.791 584.609 481.119ZM587.289 468.938L577.568 484.496L575.654 483.484L585.375 467.926L587.289 468.938Z" fill="white"/>
<path d="M551.797 518.982H554.971C554.869 520.193 554.531 521.272 553.955 522.22C553.38 523.159 552.571 523.9 551.53 524.441C550.489 524.983 549.224 525.254 547.734 525.254C546.592 525.254 545.563 525.051 544.649 524.645C543.735 524.23 542.952 523.646 542.301 522.893C541.649 522.131 541.15 521.213 540.803 520.138C540.464 519.063 540.295 517.861 540.295 516.532V514.996C540.295 513.667 540.468 512.465 540.815 511.391C541.171 510.316 541.679 509.397 542.339 508.636C542.999 507.866 543.79 507.277 544.713 506.871C545.644 506.465 546.689 506.262 547.849 506.262C549.321 506.262 550.565 506.533 551.581 507.074C552.597 507.616 553.384 508.365 553.942 509.321C554.509 510.278 554.856 511.374 554.983 512.609H551.81C551.725 511.814 551.539 511.132 551.251 510.565C550.972 509.998 550.557 509.567 550.007 509.271C549.457 508.966 548.737 508.813 547.849 508.813C547.121 508.813 546.486 508.949 545.944 509.22C545.403 509.491 544.95 509.888 544.586 510.413C544.222 510.938 543.947 511.585 543.761 512.355C543.583 513.117 543.494 513.989 543.494 514.971V516.532C543.494 517.463 543.575 518.31 543.735 519.071C543.905 519.825 544.159 520.472 544.497 521.014C544.844 521.555 545.284 521.974 545.817 522.271C546.351 522.567 546.99 522.715 547.734 522.715C548.64 522.715 549.372 522.571 549.931 522.283C550.498 521.995 550.925 521.576 551.213 521.026C551.509 520.468 551.704 519.786 551.797 518.982ZM560.836 505.5V525H557.764V505.5H560.836ZM567.463 511.264V525H564.391V511.264H567.463ZM564.188 507.658C564.188 507.193 564.34 506.808 564.645 506.503C564.958 506.19 565.389 506.033 565.939 506.033C566.481 506.033 566.909 506.19 567.222 506.503C567.535 506.808 567.691 507.193 567.691 507.658C567.691 508.115 567.535 508.496 567.222 508.801C566.909 509.105 566.481 509.258 565.939 509.258C565.389 509.258 564.958 509.105 564.645 508.801C564.34 508.496 564.188 508.115 564.188 507.658ZM576.87 525.254C575.854 525.254 574.936 525.089 574.115 524.759C573.303 524.42 572.609 523.951 572.033 523.35C571.466 522.749 571.03 522.042 570.726 521.229C570.421 520.417 570.269 519.541 570.269 518.602V518.094C570.269 517.019 570.425 516.046 570.738 515.174C571.051 514.302 571.487 513.557 572.046 512.939C572.604 512.313 573.265 511.835 574.026 511.505C574.788 511.175 575.613 511.01 576.502 511.01C577.484 511.01 578.343 511.175 579.079 511.505C579.815 511.835 580.425 512.3 580.907 512.901C581.398 513.494 581.762 514.201 581.999 515.021C582.244 515.842 582.367 516.748 582.367 517.738V519.046H571.754V516.85H579.346V516.608C579.329 516.058 579.219 515.542 579.016 515.06C578.821 514.577 578.521 514.188 578.114 513.892C577.708 513.595 577.166 513.447 576.489 513.447C575.981 513.447 575.529 513.557 575.131 513.777C574.742 513.989 574.416 514.298 574.153 514.704C573.891 515.11 573.688 515.601 573.544 516.177C573.409 516.744 573.341 517.383 573.341 518.094V518.602C573.341 519.202 573.421 519.761 573.582 520.277C573.751 520.785 573.997 521.229 574.318 521.61C574.64 521.991 575.029 522.292 575.486 522.512C575.943 522.723 576.464 522.829 577.048 522.829C577.784 522.829 578.44 522.681 579.016 522.385C579.591 522.089 580.09 521.67 580.514 521.128L582.126 522.689C581.83 523.121 581.445 523.536 580.971 523.934C580.497 524.323 579.917 524.64 579.231 524.886C578.554 525.131 577.767 525.254 576.87 525.254ZM587.788 514.196V525H584.729V511.264H587.61L587.788 514.196ZM587.242 517.624L586.252 517.611C586.26 516.638 586.396 515.745 586.658 514.933C586.929 514.12 587.301 513.422 587.775 512.838C588.258 512.254 588.833 511.805 589.502 511.492C590.171 511.171 590.915 511.01 591.736 511.01C592.396 511.01 592.993 511.103 593.526 511.289C594.068 511.467 594.529 511.759 594.91 512.165C595.299 512.571 595.596 513.1 595.799 513.752C596.002 514.395 596.104 515.187 596.104 516.126V525H593.031V516.113C593.031 515.453 592.934 514.933 592.739 514.552C592.553 514.162 592.278 513.887 591.914 513.727C591.559 513.557 591.114 513.473 590.581 513.473C590.056 513.473 589.587 513.583 589.172 513.803C588.757 514.023 588.406 514.323 588.118 514.704C587.839 515.085 587.623 515.525 587.471 516.024C587.318 516.524 587.242 517.057 587.242 517.624ZM605.523 511.264V513.498H597.779V511.264H605.523ZM600.014 507.899H603.073V521.204C603.073 521.627 603.132 521.953 603.251 522.182C603.378 522.402 603.551 522.55 603.771 522.626C603.992 522.702 604.25 522.74 604.546 522.74C604.757 522.74 604.961 522.728 605.155 522.702C605.35 522.677 605.507 522.651 605.625 522.626L605.638 524.962C605.384 525.038 605.088 525.106 604.749 525.165C604.419 525.224 604.038 525.254 603.606 525.254C602.904 525.254 602.282 525.131 601.74 524.886C601.199 524.632 600.775 524.221 600.471 523.654C600.166 523.087 600.014 522.334 600.014 521.395V507.899ZM624.389 520.239C624.389 519.858 624.329 519.52 624.211 519.224C624.101 518.927 623.902 518.657 623.614 518.411C623.326 518.166 622.92 517.929 622.396 517.7C621.879 517.463 621.219 517.222 620.415 516.977C619.535 516.706 618.722 516.405 617.978 516.075C617.241 515.737 616.598 515.347 616.048 514.907C615.498 514.459 615.07 513.947 614.766 513.371C614.461 512.787 614.309 512.114 614.309 511.353C614.309 510.599 614.465 509.914 614.778 509.296C615.1 508.678 615.553 508.145 616.137 507.696C616.729 507.239 617.427 506.888 618.231 506.643C619.035 506.389 619.924 506.262 620.897 506.262C622.269 506.262 623.449 506.516 624.439 507.023C625.438 507.531 626.204 508.213 626.737 509.067C627.279 509.922 627.55 510.866 627.55 511.898H624.389C624.389 511.289 624.257 510.752 623.995 510.286C623.741 509.812 623.352 509.44 622.827 509.169C622.311 508.898 621.655 508.763 620.859 508.763C620.106 508.763 619.48 508.877 618.98 509.105C618.481 509.334 618.109 509.643 617.863 510.032C617.618 510.422 617.495 510.862 617.495 511.353C617.495 511.7 617.576 512.017 617.736 512.305C617.897 512.584 618.143 512.846 618.473 513.092C618.803 513.329 619.217 513.553 619.717 513.765C620.216 513.976 620.804 514.179 621.481 514.374C622.506 514.679 623.398 515.017 624.16 515.39C624.922 515.754 625.557 516.168 626.064 516.634C626.572 517.099 626.953 517.628 627.207 518.221C627.461 518.805 627.588 519.469 627.588 520.214C627.588 520.993 627.431 521.695 627.118 522.321C626.805 522.939 626.356 523.468 625.772 523.908C625.197 524.34 624.503 524.674 623.69 524.911C622.886 525.14 621.989 525.254 620.999 525.254C620.11 525.254 619.234 525.135 618.371 524.898C617.516 524.661 616.738 524.302 616.035 523.819C615.333 523.328 614.774 522.719 614.359 521.991C613.945 521.255 613.737 520.396 613.737 519.414H616.924C616.924 520.015 617.025 520.527 617.229 520.95C617.44 521.373 617.732 521.72 618.104 521.991C618.477 522.254 618.909 522.448 619.399 522.575C619.899 522.702 620.432 522.766 620.999 522.766C621.744 522.766 622.366 522.66 622.865 522.448C623.373 522.237 623.754 521.94 624.008 521.56C624.262 521.179 624.389 520.739 624.389 520.239ZM637.846 522.245V515.694C637.846 515.203 637.757 514.78 637.579 514.425C637.401 514.069 637.131 513.794 636.767 513.6C636.411 513.405 635.963 513.308 635.421 513.308C634.922 513.308 634.49 513.392 634.126 513.562C633.762 513.731 633.479 513.959 633.275 514.247C633.072 514.535 632.971 514.861 632.971 515.225H629.924C629.924 514.683 630.055 514.158 630.317 513.65C630.58 513.143 630.961 512.69 631.46 512.292C631.959 511.894 632.556 511.581 633.25 511.353C633.944 511.124 634.723 511.01 635.586 511.01C636.618 511.01 637.533 511.183 638.328 511.53C639.132 511.877 639.763 512.402 640.22 513.104C640.685 513.799 640.918 514.67 640.918 515.72V521.826C640.918 522.452 640.96 523.015 641.045 523.515C641.138 524.006 641.269 524.433 641.438 524.797V525H638.303C638.159 524.67 638.045 524.251 637.96 523.743C637.884 523.227 637.846 522.728 637.846 522.245ZM638.29 516.646L638.315 518.538H636.119C635.552 518.538 635.053 518.593 634.621 518.703C634.189 518.805 633.83 518.957 633.542 519.16C633.254 519.363 633.038 519.609 632.895 519.896C632.751 520.184 632.679 520.51 632.679 520.874C632.679 521.238 632.763 521.572 632.933 521.877C633.102 522.173 633.347 522.406 633.669 522.575C633.999 522.744 634.397 522.829 634.862 522.829C635.489 522.829 636.035 522.702 636.5 522.448C636.974 522.186 637.346 521.868 637.617 521.496C637.888 521.115 638.032 520.756 638.049 520.417L639.039 521.775C638.938 522.122 638.764 522.495 638.519 522.893C638.273 523.29 637.951 523.671 637.554 524.035C637.164 524.391 636.695 524.683 636.145 524.911C635.603 525.14 634.977 525.254 634.266 525.254C633.368 525.254 632.569 525.076 631.866 524.721C631.164 524.357 630.614 523.87 630.216 523.261C629.818 522.643 629.619 521.945 629.619 521.166C629.619 520.438 629.755 519.795 630.025 519.236C630.305 518.669 630.711 518.195 631.244 517.814C631.786 517.434 632.446 517.146 633.225 516.951C634.003 516.748 634.892 516.646 635.891 516.646H638.29ZM650.414 511.264V513.498H642.67V511.264H650.414ZM644.904 507.899H647.964V521.204C647.964 521.627 648.023 521.953 648.142 522.182C648.269 522.402 648.442 522.55 648.662 522.626C648.882 522.702 649.14 522.74 649.437 522.74C649.648 522.74 649.851 522.728 650.046 522.702C650.241 522.677 650.397 522.651 650.516 522.626L650.528 524.962C650.274 525.038 649.978 525.106 649.64 525.165C649.31 525.224 648.929 525.254 648.497 525.254C647.795 525.254 647.173 525.131 646.631 524.886C646.089 524.632 645.666 524.221 645.361 523.654C645.057 523.087 644.904 522.334 644.904 521.395V507.899ZM656.051 511.264V525H652.979V511.264H656.051ZM652.775 507.658C652.775 507.193 652.928 506.808 653.232 506.503C653.546 506.19 653.977 506.033 654.527 506.033C655.069 506.033 655.496 506.19 655.81 506.503C656.123 506.808 656.279 507.193 656.279 507.658C656.279 508.115 656.123 508.496 655.81 508.801C655.496 509.105 655.069 509.258 654.527 509.258C653.977 509.258 653.546 509.105 653.232 508.801C652.928 508.496 652.775 508.115 652.775 507.658ZM667.108 521.28C667.108 520.976 667.032 520.701 666.88 520.455C666.728 520.201 666.436 519.973 666.004 519.77C665.581 519.566 664.954 519.38 664.125 519.211C663.397 519.05 662.729 518.86 662.119 518.64C661.518 518.411 661.002 518.136 660.57 517.814C660.139 517.493 659.804 517.112 659.567 516.672C659.33 516.232 659.212 515.724 659.212 515.148C659.212 514.59 659.335 514.061 659.58 513.562C659.826 513.062 660.177 512.622 660.634 512.241C661.091 511.86 661.645 511.56 662.297 511.34C662.957 511.12 663.693 511.01 664.506 511.01C665.657 511.01 666.643 511.204 667.464 511.594C668.293 511.975 668.928 512.495 669.368 513.155C669.808 513.807 670.028 514.543 670.028 515.364H666.969C666.969 515 666.876 514.662 666.689 514.349C666.512 514.027 666.241 513.769 665.877 513.574C665.513 513.371 665.056 513.27 664.506 513.27C663.981 513.27 663.545 513.354 663.198 513.523C662.86 513.684 662.606 513.896 662.437 514.158C662.276 514.421 662.195 514.708 662.195 515.021C662.195 515.25 662.238 515.457 662.322 515.644C662.415 515.821 662.568 515.986 662.779 516.139C662.991 516.283 663.279 516.418 663.643 516.545C664.015 516.672 664.48 516.795 665.039 516.913C666.089 517.133 666.99 517.417 667.743 517.764C668.505 518.102 669.089 518.542 669.495 519.084C669.901 519.617 670.104 520.294 670.104 521.115C670.104 521.725 669.973 522.283 669.711 522.791C669.457 523.29 669.085 523.726 668.594 524.099C668.103 524.463 667.515 524.746 666.829 524.949C666.152 525.152 665.39 525.254 664.544 525.254C663.3 525.254 662.246 525.034 661.383 524.594C660.52 524.145 659.864 523.574 659.415 522.88C658.975 522.177 658.755 521.45 658.755 520.696H661.713C661.747 521.263 661.903 521.716 662.183 522.055C662.47 522.385 662.826 522.626 663.249 522.778C663.681 522.922 664.125 522.994 664.582 522.994C665.132 522.994 665.593 522.922 665.966 522.778C666.338 522.626 666.622 522.423 666.816 522.169C667.011 521.907 667.108 521.61 667.108 521.28ZM676.922 525H673.862V509.943C673.862 508.919 674.053 508.06 674.434 507.366C674.823 506.664 675.377 506.135 676.097 505.779C676.816 505.415 677.667 505.233 678.648 505.233C678.953 505.233 679.254 505.255 679.55 505.297C679.846 505.331 680.134 505.386 680.413 505.462L680.337 507.823C680.168 507.781 679.981 507.751 679.778 507.734C679.584 507.717 679.372 507.709 679.144 507.709C678.678 507.709 678.276 507.798 677.938 507.976C677.607 508.145 677.354 508.395 677.176 508.725C677.007 509.055 676.922 509.461 676.922 509.943V525ZM679.753 511.264V513.498H671.755V511.264H679.753ZM689.719 522.245V515.694C689.719 515.203 689.63 514.78 689.452 514.425C689.274 514.069 689.004 513.794 688.64 513.6C688.284 513.405 687.836 513.308 687.294 513.308C686.795 513.308 686.363 513.392 685.999 513.562C685.635 513.731 685.352 513.959 685.148 514.247C684.945 514.535 684.844 514.861 684.844 515.225H681.797C681.797 514.683 681.928 514.158 682.19 513.65C682.453 513.143 682.834 512.69 683.333 512.292C683.832 511.894 684.429 511.581 685.123 511.353C685.817 511.124 686.596 511.01 687.459 511.01C688.492 511.01 689.406 511.183 690.201 511.53C691.005 511.877 691.636 512.402 692.093 513.104C692.558 513.799 692.791 514.67 692.791 515.72V521.826C692.791 522.452 692.833 523.015 692.918 523.515C693.011 524.006 693.142 524.433 693.312 524.797V525H690.176C690.032 524.67 689.918 524.251 689.833 523.743C689.757 523.227 689.719 522.728 689.719 522.245ZM690.163 516.646L690.188 518.538H687.992C687.425 518.538 686.926 518.593 686.494 518.703C686.062 518.805 685.703 518.957 685.415 519.16C685.127 519.363 684.911 519.609 684.768 519.896C684.624 520.184 684.552 520.51 684.552 520.874C684.552 521.238 684.636 521.572 684.806 521.877C684.975 522.173 685.22 522.406 685.542 522.575C685.872 522.744 686.27 522.829 686.735 522.829C687.362 522.829 687.908 522.702 688.373 522.448C688.847 522.186 689.219 521.868 689.49 521.496C689.761 521.115 689.905 520.756 689.922 520.417L690.912 521.775C690.811 522.122 690.637 522.495 690.392 522.893C690.146 523.29 689.825 523.671 689.427 524.035C689.037 524.391 688.568 524.683 688.018 524.911C687.476 525.14 686.85 525.254 686.139 525.254C685.242 525.254 684.442 525.076 683.739 524.721C683.037 524.357 682.487 523.87 682.089 523.261C681.691 522.643 681.492 521.945 681.492 521.166C681.492 520.438 681.628 519.795 681.898 519.236C682.178 518.669 682.584 518.195 683.117 517.814C683.659 517.434 684.319 517.146 685.098 516.951C685.876 516.748 686.765 516.646 687.764 516.646H690.163ZM701.602 522.816C702.101 522.816 702.549 522.719 702.947 522.524C703.354 522.321 703.679 522.042 703.925 521.687C704.179 521.331 704.318 520.921 704.344 520.455H707.226C707.209 521.344 706.946 522.152 706.438 522.88C705.931 523.608 705.258 524.188 704.42 524.619C703.582 525.042 702.655 525.254 701.64 525.254C700.59 525.254 699.676 525.076 698.897 524.721C698.119 524.357 697.471 523.857 696.955 523.223C696.439 522.588 696.049 521.856 695.787 521.026C695.533 520.197 695.406 519.308 695.406 518.36V517.916C695.406 516.968 695.533 516.079 695.787 515.25C696.049 514.412 696.439 513.676 696.955 513.041C697.471 512.406 698.119 511.911 698.897 511.556C699.676 511.192 700.586 511.01 701.627 511.01C702.727 511.01 703.692 511.23 704.521 511.67C705.351 512.102 706.003 512.707 706.477 513.485C706.959 514.256 707.209 515.153 707.226 516.177H704.344C704.318 515.669 704.191 515.212 703.963 514.806C703.743 514.391 703.43 514.061 703.023 513.815C702.626 513.57 702.147 513.447 701.589 513.447C700.971 513.447 700.459 513.574 700.053 513.828C699.646 514.074 699.329 514.412 699.101 514.844C698.872 515.267 698.707 515.745 698.605 516.278C698.512 516.803 698.466 517.349 698.466 517.916V518.36C698.466 518.927 698.512 519.478 698.605 520.011C698.699 520.544 698.859 521.022 699.088 521.445C699.325 521.86 699.646 522.194 700.053 522.448C700.459 522.694 700.975 522.816 701.602 522.816ZM715.871 511.264V513.498H708.127V511.264H715.871ZM710.361 507.899H713.421V521.204C713.421 521.627 713.48 521.953 713.599 522.182C713.726 522.402 713.899 522.55 714.119 522.626C714.339 522.702 714.597 522.74 714.894 522.74C715.105 522.74 715.308 522.728 715.503 522.702C715.698 522.677 715.854 522.651 715.973 522.626L715.985 524.962C715.731 525.038 715.435 525.106 715.097 525.165C714.767 525.224 714.386 525.254 713.954 525.254C713.252 525.254 712.63 525.131 712.088 524.886C711.546 524.632 711.123 524.221 710.818 523.654C710.514 523.087 710.361 522.334 710.361 521.395V507.899ZM721.508 511.264V525H718.436V511.264H721.508ZM718.232 507.658C718.232 507.193 718.385 506.808 718.689 506.503C719.003 506.19 719.434 506.033 719.984 506.033C720.526 506.033 720.953 506.19 721.267 506.503C721.58 506.808 721.736 507.193 721.736 507.658C721.736 508.115 721.58 508.496 721.267 508.801C720.953 509.105 720.526 509.258 719.984 509.258C719.434 509.258 719.003 509.105 718.689 508.801C718.385 508.496 718.232 508.115 718.232 507.658ZM724.275 518.284V517.992C724.275 517.002 724.419 516.084 724.707 515.237C724.995 514.382 725.41 513.642 725.951 513.016C726.501 512.381 727.17 511.89 727.957 511.543C728.753 511.188 729.65 511.01 730.648 511.01C731.656 511.01 732.553 511.188 733.34 511.543C734.135 511.89 734.808 512.381 735.358 513.016C735.909 513.642 736.327 514.382 736.615 515.237C736.903 516.084 737.047 517.002 737.047 517.992V518.284C737.047 519.274 736.903 520.193 736.615 521.039C736.327 521.885 735.909 522.626 735.358 523.261C734.808 523.887 734.14 524.378 733.353 524.733C732.565 525.08 731.673 525.254 730.674 525.254C729.667 525.254 728.765 525.08 727.97 524.733C727.183 524.378 726.514 523.887 725.964 523.261C725.414 522.626 724.995 521.885 724.707 521.039C724.419 520.193 724.275 519.274 724.275 518.284ZM727.335 517.992V518.284C727.335 518.902 727.398 519.486 727.525 520.036C727.652 520.586 727.851 521.069 728.122 521.483C728.393 521.898 728.74 522.224 729.163 522.461C729.586 522.698 730.09 522.816 730.674 522.816C731.241 522.816 731.732 522.698 732.146 522.461C732.57 522.224 732.917 521.898 733.188 521.483C733.458 521.069 733.657 520.586 733.784 520.036C733.92 519.486 733.987 518.902 733.987 518.284V517.992C733.987 517.383 733.92 516.807 733.784 516.266C733.657 515.715 733.454 515.229 733.175 514.806C732.904 514.382 732.557 514.052 732.134 513.815C731.719 513.57 731.224 513.447 730.648 513.447C730.073 513.447 729.574 513.57 729.15 513.815C728.736 514.052 728.393 514.382 728.122 514.806C727.851 515.229 727.652 515.715 727.525 516.266C727.398 516.807 727.335 517.383 727.335 517.992ZM742.646 514.196V525H739.586V511.264H742.468L742.646 514.196ZM742.1 517.624L741.109 517.611C741.118 516.638 741.253 515.745 741.516 514.933C741.786 514.12 742.159 513.422 742.633 512.838C743.115 512.254 743.691 511.805 744.359 511.492C745.028 511.171 745.773 511.01 746.594 511.01C747.254 511.01 747.851 511.103 748.384 511.289C748.925 511.467 749.387 511.759 749.768 512.165C750.157 512.571 750.453 513.1 750.656 513.752C750.859 514.395 750.961 515.187 750.961 516.126V525H747.889V516.113C747.889 515.453 747.791 514.933 747.597 514.552C747.41 514.162 747.135 513.887 746.771 513.727C746.416 513.557 745.972 513.473 745.438 513.473C744.914 513.473 744.444 513.583 744.029 513.803C743.615 514.023 743.263 514.323 742.976 514.704C742.696 515.085 742.48 515.525 742.328 516.024C742.176 516.524 742.1 517.057 742.1 517.624Z" fill="white"/>
</g>
<g filter="url(#filter20_d_2185_719)">
<rect x="122" y="256" width="326" height="117" rx="18" fill="url(#paint37_linear_2185_719)"/>
<path d="M159.525 280.889H160.1V284.033H159.867C158.828 284.033 157.903 284.188 157.092 284.498C156.281 284.808 155.592 285.25 155.027 285.824C154.471 286.389 154.043 287.073 153.742 287.875C153.451 288.677 153.305 289.575 153.305 290.568V293.877C153.305 294.588 153.373 295.217 153.51 295.764C153.656 296.301 153.861 296.753 154.125 297.117C154.398 297.473 154.717 297.742 155.082 297.924C155.447 298.097 155.857 298.184 156.312 298.184C156.741 298.184 157.128 298.092 157.475 297.91C157.83 297.728 158.131 297.473 158.377 297.145C158.632 296.807 158.824 296.415 158.951 295.969C159.088 295.513 159.156 295.016 159.156 294.479C159.156 293.941 159.088 293.444 158.951 292.988C158.824 292.533 158.632 292.141 158.377 291.812C158.122 291.475 157.812 291.215 157.447 291.033C157.083 290.851 156.673 290.76 156.217 290.76C155.597 290.76 155.05 290.906 154.576 291.197C154.111 291.48 153.747 291.844 153.482 292.291C153.218 292.738 153.077 293.207 153.059 293.699L151.869 292.934C151.896 292.232 152.042 291.566 152.307 290.938C152.58 290.309 152.954 289.753 153.428 289.27C153.911 288.777 154.49 288.395 155.164 288.121C155.839 287.839 156.6 287.697 157.447 287.697C158.377 287.697 159.193 287.875 159.895 288.23C160.605 288.586 161.198 289.074 161.672 289.693C162.146 290.313 162.501 291.029 162.738 291.84C162.975 292.651 163.094 293.517 163.094 294.438C163.094 295.404 162.934 296.301 162.615 297.131C162.305 297.96 161.854 298.685 161.262 299.305C160.678 299.924 159.977 300.408 159.156 300.754C158.336 301.1 157.415 301.273 156.395 301.273C155.337 301.273 154.376 301.082 153.51 300.699C152.653 300.307 151.915 299.76 151.295 299.059C150.675 298.357 150.197 297.523 149.859 296.557C149.531 295.59 149.367 294.533 149.367 293.385V291.854C149.367 290.249 149.6 288.782 150.064 287.451C150.538 286.111 151.217 284.954 152.102 283.979C152.986 282.994 154.052 282.233 155.301 281.695C156.549 281.158 157.958 280.889 159.525 280.889ZM168.234 298.006H168.494C169.588 298.006 170.527 297.874 171.311 297.609C172.104 297.336 172.755 296.944 173.266 296.434C173.776 295.923 174.154 295.299 174.4 294.561C174.646 293.813 174.77 292.965 174.77 292.018V288.244C174.77 287.524 174.697 286.891 174.551 286.344C174.414 285.797 174.214 285.346 173.949 284.99C173.694 284.626 173.393 284.352 173.047 284.17C172.71 283.988 172.336 283.896 171.926 283.896C171.488 283.896 171.101 284.006 170.764 284.225C170.426 284.434 170.139 284.721 169.902 285.086C169.674 285.451 169.497 285.87 169.369 286.344C169.251 286.809 169.191 287.296 169.191 287.807C169.191 288.317 169.251 288.805 169.369 289.27C169.488 289.725 169.665 290.131 169.902 290.486C170.139 290.833 170.436 291.111 170.791 291.32C171.146 291.521 171.566 291.621 172.049 291.621C172.514 291.621 172.928 291.535 173.293 291.361C173.667 291.179 173.981 290.942 174.236 290.65C174.501 290.359 174.701 290.035 174.838 289.68C174.984 289.324 175.057 288.964 175.057 288.6L176.355 289.311C176.355 289.949 176.219 290.577 175.945 291.197C175.672 291.817 175.289 292.382 174.797 292.893C174.314 293.394 173.753 293.795 173.115 294.096C172.477 294.396 171.794 294.547 171.064 294.547C170.135 294.547 169.31 294.378 168.59 294.041C167.87 293.695 167.259 293.221 166.758 292.619C166.266 292.008 165.892 291.298 165.637 290.486C165.382 289.675 165.254 288.796 165.254 287.848C165.254 286.882 165.409 285.975 165.719 285.127C166.038 284.279 166.489 283.532 167.072 282.885C167.665 282.238 168.371 281.732 169.191 281.367C170.021 280.993 170.941 280.807 171.953 280.807C172.965 280.807 173.885 281.003 174.715 281.395C175.544 281.786 176.255 282.342 176.848 283.062C177.44 283.773 177.896 284.626 178.215 285.619C178.543 286.613 178.707 287.715 178.707 288.928V290.295C178.707 291.589 178.566 292.792 178.283 293.904C178.01 295.016 177.595 296.023 177.039 296.926C176.492 297.819 175.809 298.585 174.988 299.223C174.177 299.861 173.234 300.348 172.158 300.686C171.083 301.023 169.88 301.191 168.549 301.191H168.234V298.006ZM181.469 285.975V284.922C181.469 284.165 181.633 283.477 181.961 282.857C182.289 282.238 182.772 281.741 183.41 281.367C184.048 280.993 184.832 280.807 185.762 280.807C186.719 280.807 187.516 280.993 188.154 281.367C188.801 281.741 189.285 282.238 189.604 282.857C189.932 283.477 190.096 284.165 190.096 284.922V285.975C190.096 286.713 189.932 287.392 189.604 288.012C189.285 288.632 188.806 289.128 188.168 289.502C187.53 289.876 186.742 290.062 185.803 290.062C184.855 290.062 184.057 289.876 183.41 289.502C182.772 289.128 182.289 288.632 181.961 288.012C181.633 287.392 181.469 286.713 181.469 285.975ZM184.08 284.922V285.975C184.08 286.294 184.139 286.599 184.258 286.891C184.385 287.173 184.577 287.406 184.832 287.588C185.096 287.761 185.415 287.848 185.789 287.848C186.181 287.848 186.5 287.761 186.746 287.588C186.992 287.406 187.174 287.173 187.293 286.891C187.411 286.599 187.471 286.294 187.471 285.975V284.922C187.471 284.585 187.407 284.275 187.279 283.992C187.161 283.701 186.974 283.468 186.719 283.295C186.473 283.113 186.154 283.021 185.762 283.021C185.397 283.021 185.087 283.113 184.832 283.295C184.577 283.468 184.385 283.701 184.258 283.992C184.139 284.275 184.08 284.585 184.08 284.922ZM190.984 297.172V296.119C190.984 295.372 191.148 294.688 191.477 294.068C191.814 293.449 192.301 292.952 192.939 292.578C193.587 292.204 194.38 292.018 195.318 292.018C196.266 292.018 197.059 292.204 197.697 292.578C198.335 292.952 198.818 293.449 199.146 294.068C199.475 294.688 199.639 295.372 199.639 296.119V297.172C199.639 297.919 199.475 298.603 199.146 299.223C198.827 299.842 198.349 300.339 197.711 300.713C197.073 301.087 196.285 301.273 195.346 301.273C194.398 301.273 193.6 301.087 192.953 300.713C192.306 300.339 191.814 299.842 191.477 299.223C191.148 298.603 190.984 297.919 190.984 297.172ZM193.609 296.119V297.172C193.609 297.5 193.682 297.81 193.828 298.102C193.974 298.393 194.174 298.626 194.43 298.799C194.694 298.972 194.999 299.059 195.346 299.059C195.783 299.059 196.125 298.972 196.371 298.799C196.617 298.626 196.786 298.393 196.877 298.102C196.977 297.81 197.027 297.5 197.027 297.172V296.119C197.027 295.791 196.964 295.486 196.836 295.203C196.708 294.911 196.517 294.679 196.262 294.506C196.016 294.324 195.701 294.232 195.318 294.232C194.936 294.232 194.617 294.324 194.361 294.506C194.115 294.679 193.928 294.911 193.801 295.203C193.673 295.486 193.609 295.791 193.609 296.119ZM196.289 283.938L186.568 299.496L184.654 298.484L194.375 282.926L196.289 283.938Z" fill="white"/>
<path d="M159.604 335.239C159.604 334.858 159.544 334.52 159.426 334.224C159.316 333.927 159.117 333.657 158.829 333.411C158.541 333.166 158.135 332.929 157.61 332.7C157.094 332.463 156.434 332.222 155.63 331.977C154.75 331.706 153.937 331.405 153.192 331.075C152.456 330.737 151.813 330.347 151.263 329.907C150.713 329.459 150.285 328.947 149.98 328.371C149.676 327.787 149.523 327.114 149.523 326.353C149.523 325.599 149.68 324.914 149.993 324.296C150.315 323.678 150.768 323.145 151.352 322.696C151.944 322.239 152.642 321.888 153.446 321.643C154.25 321.389 155.139 321.262 156.112 321.262C157.483 321.262 158.664 321.516 159.654 322.023C160.653 322.531 161.419 323.213 161.952 324.067C162.494 324.922 162.765 325.866 162.765 326.898H159.604C159.604 326.289 159.472 325.752 159.21 325.286C158.956 324.812 158.567 324.44 158.042 324.169C157.526 323.898 156.87 323.763 156.074 323.763C155.321 323.763 154.695 323.877 154.195 324.105C153.696 324.334 153.324 324.643 153.078 325.032C152.833 325.422 152.71 325.862 152.71 326.353C152.71 326.7 152.79 327.017 152.951 327.305C153.112 327.584 153.357 327.846 153.688 328.092C154.018 328.329 154.432 328.553 154.932 328.765C155.431 328.976 156.019 329.179 156.696 329.374C157.72 329.679 158.613 330.017 159.375 330.39C160.137 330.754 160.771 331.168 161.279 331.634C161.787 332.099 162.168 332.628 162.422 333.221C162.676 333.805 162.803 334.469 162.803 335.214C162.803 335.993 162.646 336.695 162.333 337.321C162.02 337.939 161.571 338.468 160.987 338.908C160.412 339.34 159.718 339.674 158.905 339.911C158.101 340.14 157.204 340.254 156.214 340.254C155.325 340.254 154.449 340.135 153.586 339.898C152.731 339.661 151.952 339.302 151.25 338.819C150.548 338.328 149.989 337.719 149.574 336.991C149.16 336.255 148.952 335.396 148.952 334.414H152.139C152.139 335.015 152.24 335.527 152.443 335.95C152.655 336.373 152.947 336.72 153.319 336.991C153.692 337.254 154.123 337.448 154.614 337.575C155.114 337.702 155.647 337.766 156.214 337.766C156.959 337.766 157.581 337.66 158.08 337.448C158.588 337.237 158.969 336.94 159.223 336.56C159.477 336.179 159.604 335.739 159.604 335.239ZM171.613 326.264V328.498H163.869V326.264H171.613ZM166.104 322.899H169.163V336.204C169.163 336.627 169.222 336.953 169.341 337.182C169.468 337.402 169.641 337.55 169.861 337.626C170.081 337.702 170.34 337.74 170.636 337.74C170.847 337.74 171.05 337.728 171.245 337.702C171.44 337.677 171.596 337.651 171.715 337.626L171.728 339.962C171.474 340.038 171.177 340.106 170.839 340.165C170.509 340.224 170.128 340.254 169.696 340.254C168.994 340.254 168.372 340.131 167.83 339.886C167.288 339.632 166.865 339.221 166.561 338.654C166.256 338.087 166.104 337.334 166.104 336.395V322.899ZM181.719 337.245V330.694C181.719 330.203 181.63 329.78 181.452 329.425C181.274 329.069 181.004 328.794 180.64 328.6C180.284 328.405 179.836 328.308 179.294 328.308C178.795 328.308 178.363 328.392 177.999 328.562C177.635 328.731 177.352 328.959 177.148 329.247C176.945 329.535 176.844 329.861 176.844 330.225H173.797C173.797 329.683 173.928 329.158 174.19 328.65C174.453 328.143 174.834 327.69 175.333 327.292C175.832 326.894 176.429 326.581 177.123 326.353C177.817 326.124 178.596 326.01 179.459 326.01C180.492 326.01 181.406 326.183 182.201 326.53C183.005 326.877 183.636 327.402 184.093 328.104C184.558 328.799 184.791 329.67 184.791 330.72V336.826C184.791 337.452 184.833 338.015 184.918 338.515C185.011 339.006 185.142 339.433 185.312 339.797V340H182.176C182.032 339.67 181.918 339.251 181.833 338.743C181.757 338.227 181.719 337.728 181.719 337.245ZM182.163 331.646L182.188 333.538H179.992C179.425 333.538 178.926 333.593 178.494 333.703C178.062 333.805 177.703 333.957 177.415 334.16C177.127 334.363 176.911 334.609 176.768 334.896C176.624 335.184 176.552 335.51 176.552 335.874C176.552 336.238 176.636 336.572 176.806 336.877C176.975 337.173 177.22 337.406 177.542 337.575C177.872 337.744 178.27 337.829 178.735 337.829C179.362 337.829 179.908 337.702 180.373 337.448C180.847 337.186 181.219 336.868 181.49 336.496C181.761 336.115 181.905 335.756 181.922 335.417L182.912 336.775C182.811 337.122 182.637 337.495 182.392 337.893C182.146 338.29 181.825 338.671 181.427 339.035C181.037 339.391 180.568 339.683 180.018 339.911C179.476 340.14 178.85 340.254 178.139 340.254C177.242 340.254 176.442 340.076 175.739 339.721C175.037 339.357 174.487 338.87 174.089 338.261C173.691 337.643 173.492 336.945 173.492 336.166C173.492 335.438 173.628 334.795 173.898 334.236C174.178 333.669 174.584 333.195 175.117 332.814C175.659 332.434 176.319 332.146 177.098 331.951C177.876 331.748 178.765 331.646 179.764 331.646H182.163ZM191.062 328.879V340H188.003V326.264H190.923L191.062 328.879ZM195.265 326.175L195.239 329.019C195.053 328.985 194.85 328.959 194.63 328.942C194.418 328.925 194.207 328.917 193.995 328.917C193.47 328.917 193.009 328.993 192.611 329.146C192.214 329.289 191.879 329.501 191.608 329.78C191.346 330.051 191.143 330.381 190.999 330.771C190.855 331.16 190.771 331.596 190.745 332.078L190.047 332.129C190.047 331.266 190.132 330.466 190.301 329.729C190.47 328.993 190.724 328.346 191.062 327.787C191.41 327.229 191.841 326.793 192.357 326.479C192.882 326.166 193.487 326.01 194.173 326.01C194.359 326.01 194.558 326.027 194.77 326.061C194.99 326.094 195.155 326.132 195.265 326.175ZM204.113 326.264V328.498H196.369V326.264H204.113ZM198.604 322.899H201.663V336.204C201.663 336.627 201.722 336.953 201.841 337.182C201.968 337.402 202.141 337.55 202.361 337.626C202.581 337.702 202.84 337.74 203.136 337.74C203.347 337.74 203.55 337.728 203.745 337.702C203.94 337.677 204.096 337.651 204.215 337.626L204.228 339.962C203.974 340.038 203.677 340.106 203.339 340.165C203.009 340.224 202.628 340.254 202.196 340.254C201.494 340.254 200.872 340.131 200.33 339.886C199.788 339.632 199.365 339.221 199.061 338.654C198.756 338.087 198.604 337.334 198.604 336.395V322.899ZM214.739 336.763V326.264H217.812V340H214.917L214.739 336.763ZM215.171 333.906L216.199 333.881C216.199 334.803 216.098 335.654 215.895 336.433C215.691 337.203 215.378 337.876 214.955 338.451C214.532 339.018 213.99 339.463 213.33 339.784C212.67 340.097 211.879 340.254 210.956 340.254C210.287 340.254 209.674 340.157 209.115 339.962C208.557 339.767 208.074 339.467 207.668 339.061C207.27 338.654 206.961 338.125 206.741 337.474C206.521 336.822 206.411 336.043 206.411 335.138V326.264H209.471V335.163C209.471 335.662 209.53 336.081 209.648 336.42C209.767 336.75 209.928 337.017 210.131 337.22C210.334 337.423 210.571 337.567 210.842 337.651C211.113 337.736 211.4 337.778 211.705 337.778C212.577 337.778 213.262 337.609 213.762 337.271C214.27 336.924 214.629 336.458 214.841 335.874C215.061 335.29 215.171 334.634 215.171 333.906ZM224.02 328.904V345.281H220.96V326.264H223.778L224.02 328.904ZM232.97 333.005V333.271C232.97 334.27 232.851 335.197 232.614 336.052C232.386 336.898 232.043 337.639 231.586 338.273C231.137 338.9 230.583 339.386 229.923 339.733C229.263 340.08 228.501 340.254 227.638 340.254C226.783 340.254 226.034 340.097 225.391 339.784C224.756 339.463 224.218 339.01 223.778 338.426C223.338 337.842 222.983 337.156 222.712 336.369C222.45 335.574 222.263 334.702 222.153 333.754V332.726C222.263 331.718 222.45 330.804 222.712 329.983C222.983 329.162 223.338 328.456 223.778 327.863C224.218 327.271 224.756 326.814 225.391 326.492C226.025 326.171 226.766 326.01 227.612 326.01C228.476 326.01 229.242 326.179 229.91 326.518C230.579 326.848 231.142 327.322 231.599 327.939C232.056 328.549 232.398 329.285 232.627 330.148C232.855 331.003 232.97 331.955 232.97 333.005ZM229.91 333.271V333.005C229.91 332.37 229.851 331.782 229.732 331.24C229.614 330.69 229.428 330.208 229.174 329.793C228.92 329.378 228.594 329.057 228.196 328.828C227.807 328.591 227.337 328.473 226.787 328.473C226.245 328.473 225.78 328.566 225.391 328.752C225.001 328.93 224.675 329.179 224.413 329.501C224.151 329.823 223.948 330.199 223.804 330.631C223.66 331.054 223.558 331.515 223.499 332.015V334.478C223.601 335.087 223.774 335.646 224.02 336.153C224.265 336.661 224.612 337.067 225.061 337.372C225.518 337.668 226.102 337.816 226.812 337.816C227.363 337.816 227.832 337.698 228.222 337.461C228.611 337.224 228.928 336.898 229.174 336.483C229.428 336.06 229.614 335.574 229.732 335.023C229.851 334.473 229.91 333.889 229.91 333.271ZM243.278 336.28C243.278 335.976 243.202 335.701 243.05 335.455C242.897 335.201 242.605 334.973 242.174 334.77C241.751 334.566 241.124 334.38 240.295 334.211C239.567 334.05 238.898 333.86 238.289 333.64C237.688 333.411 237.172 333.136 236.74 332.814C236.309 332.493 235.974 332.112 235.737 331.672C235.5 331.232 235.382 330.724 235.382 330.148C235.382 329.59 235.505 329.061 235.75 328.562C235.995 328.062 236.347 327.622 236.804 327.241C237.261 326.86 237.815 326.56 238.467 326.34C239.127 326.12 239.863 326.01 240.676 326.01C241.827 326.01 242.813 326.204 243.634 326.594C244.463 326.975 245.098 327.495 245.538 328.155C245.978 328.807 246.198 329.543 246.198 330.364H243.139C243.139 330 243.046 329.662 242.859 329.349C242.682 329.027 242.411 328.769 242.047 328.574C241.683 328.371 241.226 328.27 240.676 328.27C240.151 328.27 239.715 328.354 239.368 328.523C239.03 328.684 238.776 328.896 238.606 329.158C238.446 329.421 238.365 329.708 238.365 330.021C238.365 330.25 238.408 330.457 238.492 330.644C238.585 330.821 238.738 330.986 238.949 331.139C239.161 331.283 239.449 331.418 239.812 331.545C240.185 331.672 240.65 331.795 241.209 331.913C242.258 332.133 243.16 332.417 243.913 332.764C244.675 333.102 245.259 333.542 245.665 334.084C246.071 334.617 246.274 335.294 246.274 336.115C246.274 336.725 246.143 337.283 245.881 337.791C245.627 338.29 245.255 338.726 244.764 339.099C244.273 339.463 243.685 339.746 242.999 339.949C242.322 340.152 241.56 340.254 240.714 340.254C239.47 340.254 238.416 340.034 237.553 339.594C236.689 339.145 236.034 338.574 235.585 337.88C235.145 337.177 234.925 336.45 234.925 335.696H237.883C237.917 336.263 238.073 336.716 238.353 337.055C238.64 337.385 238.996 337.626 239.419 337.778C239.851 337.922 240.295 337.994 240.752 337.994C241.302 337.994 241.763 337.922 242.136 337.778C242.508 337.626 242.792 337.423 242.986 337.169C243.181 336.907 243.278 336.61 243.278 336.28ZM259.135 321.516V340H255.948V321.516H259.135ZM265.825 329.196V340H262.766V326.264H265.647L265.825 329.196ZM265.279 332.624L264.289 332.611C264.298 331.638 264.433 330.745 264.695 329.933C264.966 329.12 265.339 328.422 265.812 327.838C266.295 327.254 266.87 326.805 267.539 326.492C268.208 326.171 268.952 326.01 269.773 326.01C270.434 326.01 271.03 326.103 271.563 326.289C272.105 326.467 272.566 326.759 272.947 327.165C273.337 327.571 273.633 328.1 273.836 328.752C274.039 329.395 274.141 330.187 274.141 331.126V340H271.068V331.113C271.068 330.453 270.971 329.933 270.776 329.552C270.59 329.162 270.315 328.887 269.951 328.727C269.596 328.557 269.151 328.473 268.618 328.473C268.093 328.473 267.624 328.583 267.209 328.803C266.794 329.023 266.443 329.323 266.155 329.704C265.876 330.085 265.66 330.525 265.508 331.024C265.355 331.524 265.279 332.057 265.279 332.624ZM281.732 337.575L285.097 326.264H288.271L283.497 340H281.517L281.732 337.575ZM279.155 326.264L282.583 337.626L282.748 340H280.768L275.969 326.264H279.155ZM296.04 340.254C295.024 340.254 294.106 340.089 293.285 339.759C292.473 339.42 291.779 338.951 291.203 338.35C290.636 337.749 290.2 337.042 289.896 336.229C289.591 335.417 289.438 334.541 289.438 333.602V333.094C289.438 332.019 289.595 331.046 289.908 330.174C290.221 329.302 290.657 328.557 291.216 327.939C291.774 327.313 292.435 326.835 293.196 326.505C293.958 326.175 294.783 326.01 295.672 326.01C296.654 326.01 297.513 326.175 298.249 326.505C298.985 326.835 299.595 327.3 300.077 327.901C300.568 328.494 300.932 329.201 301.169 330.021C301.414 330.842 301.537 331.748 301.537 332.738V334.046H290.924V331.85H298.516V331.608C298.499 331.058 298.389 330.542 298.186 330.06C297.991 329.577 297.69 329.188 297.284 328.892C296.878 328.595 296.336 328.447 295.659 328.447C295.151 328.447 294.699 328.557 294.301 328.777C293.911 328.989 293.586 329.298 293.323 329.704C293.061 330.11 292.858 330.601 292.714 331.177C292.578 331.744 292.511 332.383 292.511 333.094V333.602C292.511 334.202 292.591 334.761 292.752 335.277C292.921 335.785 293.167 336.229 293.488 336.61C293.81 336.991 294.199 337.292 294.656 337.512C295.113 337.723 295.634 337.829 296.218 337.829C296.954 337.829 297.61 337.681 298.186 337.385C298.761 337.089 299.26 336.67 299.684 336.128L301.296 337.689C301 338.121 300.615 338.536 300.141 338.934C299.667 339.323 299.087 339.64 298.401 339.886C297.724 340.131 296.937 340.254 296.04 340.254ZM311.63 336.28C311.63 335.976 311.554 335.701 311.401 335.455C311.249 335.201 310.957 334.973 310.525 334.77C310.102 334.566 309.476 334.38 308.646 334.211C307.919 334.05 307.25 333.86 306.641 333.64C306.04 333.411 305.523 333.136 305.092 332.814C304.66 332.493 304.326 332.112 304.089 331.672C303.852 331.232 303.733 330.724 303.733 330.148C303.733 329.59 303.856 329.061 304.102 328.562C304.347 328.062 304.698 327.622 305.155 327.241C305.612 326.86 306.167 326.56 306.818 326.34C307.479 326.12 308.215 326.01 309.027 326.01C310.178 326.01 311.164 326.204 311.985 326.594C312.815 326.975 313.45 327.495 313.89 328.155C314.33 328.807 314.55 329.543 314.55 330.364H311.49C311.49 330 311.397 329.662 311.211 329.349C311.033 329.027 310.762 328.769 310.398 328.574C310.035 328.371 309.577 328.27 309.027 328.27C308.503 328.27 308.067 328.354 307.72 328.523C307.381 328.684 307.127 328.896 306.958 329.158C306.797 329.421 306.717 329.708 306.717 330.021C306.717 330.25 306.759 330.457 306.844 330.644C306.937 330.821 307.089 330.986 307.301 331.139C307.512 331.283 307.8 331.418 308.164 331.545C308.536 331.672 309.002 331.795 309.561 331.913C310.61 332.133 311.511 332.417 312.265 332.764C313.026 333.102 313.61 333.542 314.017 334.084C314.423 334.617 314.626 335.294 314.626 336.115C314.626 336.725 314.495 337.283 314.232 337.791C313.979 338.29 313.606 338.726 313.115 339.099C312.624 339.463 312.036 339.746 311.351 339.949C310.674 340.152 309.912 340.254 309.065 340.254C307.821 340.254 306.768 340.034 305.904 339.594C305.041 339.145 304.385 338.574 303.937 337.88C303.496 337.177 303.276 336.45 303.276 335.696H306.234C306.268 336.263 306.425 336.716 306.704 337.055C306.992 337.385 307.347 337.626 307.771 337.778C308.202 337.922 308.646 337.994 309.104 337.994C309.654 337.994 310.115 337.922 310.487 337.778C310.86 337.626 311.143 337.423 311.338 337.169C311.533 336.907 311.63 336.61 311.63 336.28ZM323.602 326.264V328.498H315.857V326.264H323.602ZM318.092 322.899H321.151V336.204C321.151 336.627 321.211 336.953 321.329 337.182C321.456 337.402 321.63 337.55 321.85 337.626C322.07 337.702 322.328 337.74 322.624 337.74C322.836 337.74 323.039 337.728 323.233 337.702C323.428 337.677 323.585 337.651 323.703 337.626L323.716 339.962C323.462 340.038 323.166 340.106 322.827 340.165C322.497 340.224 322.116 340.254 321.685 340.254C320.982 340.254 320.36 340.131 319.818 339.886C319.277 339.632 318.854 339.221 318.549 338.654C318.244 338.087 318.092 337.334 318.092 336.395V322.899ZM325.074 333.284V332.992C325.074 332.002 325.218 331.084 325.506 330.237C325.794 329.382 326.208 328.642 326.75 328.016C327.3 327.381 327.969 326.89 328.756 326.543C329.551 326.188 330.449 326.01 331.447 326.01C332.454 326.01 333.352 326.188 334.139 326.543C334.934 326.89 335.607 327.381 336.157 328.016C336.707 328.642 337.126 329.382 337.414 330.237C337.702 331.084 337.846 332.002 337.846 332.992V333.284C337.846 334.274 337.702 335.193 337.414 336.039C337.126 336.885 336.707 337.626 336.157 338.261C335.607 338.887 334.938 339.378 334.151 339.733C333.364 340.08 332.471 340.254 331.473 340.254C330.465 340.254 329.564 340.08 328.769 339.733C327.981 339.378 327.313 338.887 326.763 338.261C326.213 337.626 325.794 336.885 325.506 336.039C325.218 335.193 325.074 334.274 325.074 333.284ZM328.134 332.992V333.284C328.134 333.902 328.197 334.486 328.324 335.036C328.451 335.586 328.65 336.069 328.921 336.483C329.192 336.898 329.539 337.224 329.962 337.461C330.385 337.698 330.889 337.816 331.473 337.816C332.04 337.816 332.531 337.698 332.945 337.461C333.368 337.224 333.715 336.898 333.986 336.483C334.257 336.069 334.456 335.586 334.583 335.036C334.718 334.486 334.786 333.902 334.786 333.284V332.992C334.786 332.383 334.718 331.807 334.583 331.266C334.456 330.715 334.253 330.229 333.974 329.806C333.703 329.382 333.356 329.052 332.933 328.815C332.518 328.57 332.023 328.447 331.447 328.447C330.872 328.447 330.372 328.57 329.949 328.815C329.535 329.052 329.192 329.382 328.921 329.806C328.65 330.229 328.451 330.715 328.324 331.266C328.197 331.807 328.134 332.383 328.134 332.992ZM343.482 328.879V340H340.423V326.264H343.343L343.482 328.879ZM347.685 326.175L347.659 329.019C347.473 328.985 347.27 328.959 347.05 328.942C346.838 328.925 346.627 328.917 346.415 328.917C345.89 328.917 345.429 328.993 345.031 329.146C344.633 329.289 344.299 329.501 344.028 329.78C343.766 330.051 343.563 330.381 343.419 330.771C343.275 331.16 343.19 331.596 343.165 332.078L342.467 332.129C342.467 331.266 342.551 330.466 342.721 329.729C342.89 328.993 343.144 328.346 343.482 327.787C343.829 327.229 344.261 326.793 344.777 326.479C345.302 326.166 345.907 326.01 346.593 326.01C346.779 326.01 346.978 326.027 347.189 326.061C347.41 326.094 347.575 326.132 347.685 326.175ZM357.308 336.28C357.308 335.976 357.231 335.701 357.079 335.455C356.927 335.201 356.635 334.973 356.203 334.77C355.78 334.566 355.154 334.38 354.324 334.211C353.596 334.05 352.928 333.86 352.318 333.64C351.717 333.411 351.201 333.136 350.77 332.814C350.338 332.493 350.004 332.112 349.767 331.672C349.53 331.232 349.411 330.724 349.411 330.148C349.411 329.59 349.534 329.061 349.779 328.562C350.025 328.062 350.376 327.622 350.833 327.241C351.29 326.86 351.844 326.56 352.496 326.34C353.156 326.12 353.893 326.01 354.705 326.01C355.856 326.01 356.842 326.204 357.663 326.594C358.493 326.975 359.127 327.495 359.567 328.155C360.007 328.807 360.228 329.543 360.228 330.364H357.168C357.168 330 357.075 329.662 356.889 329.349C356.711 329.027 356.44 328.769 356.076 328.574C355.712 328.371 355.255 328.27 354.705 328.27C354.18 328.27 353.744 328.354 353.397 328.523C353.059 328.684 352.805 328.896 352.636 329.158C352.475 329.421 352.395 329.708 352.395 330.021C352.395 330.25 352.437 330.457 352.521 330.644C352.615 330.821 352.767 330.986 352.979 331.139C353.19 331.283 353.478 331.418 353.842 331.545C354.214 331.672 354.68 331.795 355.238 331.913C356.288 332.133 357.189 332.417 357.942 332.764C358.704 333.102 359.288 333.542 359.694 334.084C360.101 334.617 360.304 335.294 360.304 336.115C360.304 336.725 360.173 337.283 359.91 337.791C359.656 338.29 359.284 338.726 358.793 339.099C358.302 339.463 357.714 339.746 357.028 339.949C356.351 340.152 355.59 340.254 354.743 340.254C353.499 340.254 352.445 340.034 351.582 339.594C350.719 339.145 350.063 338.574 349.614 337.88C349.174 337.177 348.954 336.45 348.954 335.696H351.912C351.946 336.263 352.103 336.716 352.382 337.055C352.67 337.385 353.025 337.626 353.448 337.778C353.88 337.922 354.324 337.994 354.781 337.994C355.331 337.994 355.793 337.922 356.165 337.778C356.537 337.626 356.821 337.423 357.016 337.169C357.21 336.907 357.308 336.61 357.308 336.28Z" fill="white"/>
<path d="M212.134 286.5C212.519 285.833 213.481 285.833 213.866 286.5L218.196 294C218.581 294.667 218.1 295.5 217.33 295.5H208.67C207.9 295.5 207.419 294.667 207.804 294L212.134 286.5Z" fill="white"/>
</g>
<path d="M604.134 469.5C604.519 468.833 605.481 468.833 605.866 469.5L611.062 478.5C611.447 479.167 610.966 480 610.196 480H599.804C599.034 480 598.553 479.167 598.938 478.5L604.134 469.5Z" fill="white"/>
<defs>
<filter id="filter0_f_2185_719" x="68" y="163" width="338" height="310" filterUnits="userSpaceOnUse" color-interpolation-filters="sRGB">
<feFlood flood-opacity="0" result="BackgroundImageFix"/>
<feBlend mode="normal" in="SourceGraphic" in2="BackgroundImageFix" result="shape"/>
<feGaussianBlur stdDeviation="46.5" result="effect1_foregroundBlur_2185_719"/>
</filter>
<filter id="filter1_f_2185_719" x="507" y="348" width="396" height="310" filterUnits="userSpaceOnUse" color-interpolation-filters="sRGB">
<feFlood flood-opacity="0" result="BackgroundImageFix"/>
<feBlend mode="normal" in="SourceGraphic" in2="BackgroundImageFix" result="shape"/>
<feGaussianBlur stdDeviation="46.5" result="effect1_foregroundBlur_2185_719"/>
</filter>
<filter id="filter2_f_2185_719" x="0" y="0" width="1000.14" height="899" filterUnits="userSpaceOnUse" color-interpolation-filters="sRGB">
<feFlood flood-opacity="0" result="BackgroundImageFix"/>
<feBlend mode="normal" in="SourceGraphic" in2="BackgroundImageFix" result="shape"/>
<feGaussianBlur stdDeviation="74.5" result="effect1_foregroundBlur_2185_719"/>
</filter>
<filter id="filter3_f_2185_719" x="847.875" y="102.812" width="22.875" height="22.875" filterUnits="userSpaceOnUse" color-interpolation-filters="sRGB">
<feFlood flood-opacity="0" result="BackgroundImageFix"/>
<feBlend mode="normal" in="SourceGraphic" in2="BackgroundImageFix" result="shape"/>
<feGaussianBlur stdDeviation="3" result="effect1_foregroundBlur_2185_719"/>
</filter>
<filter id="filter4_f_2185_719" x="891.375" y="57.5" width="22.875" height="22.875" filterUnits="userSpaceOnUse" color-interpolation-filters="sRGB">
<feFlood flood-opacity="0" result="BackgroundImageFix"/>
<feBlend mode="normal" in="SourceGraphic" in2="BackgroundImageFix" result="shape"/>
<feGaussianBlur stdDeviation="3" result="effect1_foregroundBlur_2185_719"/>
</filter>
<filter id="filter5_f_2185_719" x="868.719" y="139.969" width="17.4375" height="17.4375" filterUnits="userSpaceOnUse" color-interpolation-filters="sRGB">
<feFlood flood-opacity="0" result="BackgroundImageFix"/>
<feBlend mode="normal" in="SourceGraphic" in2="BackgroundImageFix" result="shape"/>
<feGaussianBlur stdDeviation="3" result="effect1_foregroundBlur_2185_719"/>
</filter>
<filter id="filter6_f_2185_719" x="912.219" y="94.6562" width="17.4375" height="17.4375" filterUnits="userSpaceOnUse" color-interpolation-filters="sRGB">
<feFlood flood-opacity="0" result="BackgroundImageFix"/>
<feBlend mode="normal" in="SourceGraphic" in2="BackgroundImageFix" result="shape"/>
<feGaussianBlur stdDeviation="3" result="effect1_foregroundBlur_2185_719"/>
</filter>
<filter id="filter7_f_2185_719" x="830.656" y="129.094" width="17.4375" height="17.4375" filterUnits="userSpaceOnUse" color-interpolation-filters="sRGB">
<feFlood flood-opacity="0" result="BackgroundImageFix"/>
<feBlend mode="normal" in="SourceGraphic" in2="BackgroundImageFix" result="shape"/>
<feGaussianBlur stdDeviation="3" result="effect1_foregroundBlur_2185_719"/>
</filter>
<filter id="filter8_f_2185_719" x="874.156" y="83.7812" width="17.4375" height="17.4375" filterUnits="userSpaceOnUse" color-interpolation-filters="sRGB">
<feFlood flood-opacity="0" result="BackgroundImageFix"/>
<feBlend mode="normal" in="SourceGraphic" in2="BackgroundImageFix" result="shape"/>
<feGaussianBlur stdDeviation="3" result="effect1_foregroundBlur_2185_719"/>
</filter>
<filter id="filter9_f_2185_719" x="814.344" y="94.6562" width="17.4375" height="17.4375" filterUnits="userSpaceOnUse" color-interpolation-filters="sRGB">
<feFlood flood-opacity="0" result="BackgroundImageFix"/>
<feBlend mode="normal" in="SourceGraphic" in2="BackgroundImageFix" result="shape"/>
<feGaussianBlur stdDeviation="3" result="effect1_foregroundBlur_2185_719"/>
</filter>
<filter id="filter10_f_2185_719" x="857.844" y="49.3438" width="17.4375" height="17.4375" filterUnits="userSpaceOnUse" color-interpolation-filters="sRGB">
<feFlood flood-opacity="0" result="BackgroundImageFix"/>
<feBlend mode="normal" in="SourceGraphic" in2="BackgroundImageFix" result="shape"/>
<feGaussianBlur stdDeviation="3" result="effect1_foregroundBlur_2185_719"/>
</filter>
<filter id="filter11_f_2185_719" x="229.875" y="353.812" width="22.875" height="22.875" filterUnits="userSpaceOnUse" color-interpolation-filters="sRGB">
<feFlood flood-opacity="0" result="BackgroundImageFix"/>
<feBlend mode="normal" in="SourceGraphic" in2="BackgroundImageFix" result="shape"/>
<feGaussianBlur stdDeviation="3" result="effect1_foregroundBlur_2185_719"/>
</filter>
<filter id="filter12_f_2185_719" x="273.375" y="308.5" width="22.875" height="22.875" filterUnits="userSpaceOnUse" color-interpolation-filters="sRGB">
<feFlood flood-opacity="0" result="BackgroundImageFix"/>
<feBlend mode="normal" in="SourceGraphic" in2="BackgroundImageFix" result="shape"/>
<feGaussianBlur stdDeviation="3" result="effect1_foregroundBlur_2185_719"/>
</filter>
<filter id="filter13_f_2185_719" x="250.719" y="390.969" width="17.4375" height="17.4375" filterUnits="userSpaceOnUse" color-interpolation-filters="sRGB">
<feFlood flood-opacity="0" result="BackgroundImageFix"/>
<feBlend mode="normal" in="SourceGraphic" in2="BackgroundImageFix" result="shape"/>
<feGaussianBlur stdDeviation="3" result="effect1_foregroundBlur_2185_719"/>
</filter>
<filter id="filter14_f_2185_719" x="294.219" y="345.656" width="17.4375" height="17.4375" filterUnits="userSpaceOnUse" color-interpolation-filters="sRGB">
<feFlood flood-opacity="0" result="BackgroundImageFix"/>
<feBlend mode="normal" in="SourceGraphic" in2="BackgroundImageFix" result="shape"/>
<feGaussianBlur stdDeviation="3" result="effect1_foregroundBlur_2185_719"/>
</filter>
<filter id="filter15_f_2185_719" x="212.656" y="380.094" width="17.4375" height="17.4375" filterUnits="userSpaceOnUse" color-interpolation-filters="sRGB">
<feFlood flood-opacity="0" result="BackgroundImageFix"/>
<feBlend mode="normal" in="SourceGraphic" in2="BackgroundImageFix" result="shape"/>
<feGaussianBlur stdDeviation="3" result="effect1_foregroundBlur_2185_719"/>
</filter>
<filter id="filter16_f_2185_719" x="256.156" y="334.781" width="17.4375" height="17.4375" filterUnits="userSpaceOnUse" color-interpolation-filters="sRGB">
<feFlood flood-opacity="0" result="BackgroundImageFix"/>
<feBlend mode="normal" in="SourceGraphic" in2="BackgroundImageFix" result="shape"/>
<feGaussianBlur stdDeviation="3" result="effect1_foregroundBlur_2185_719"/>
</filter>
<filter id="filter17_f_2185_719" x="196.344" y="345.656" width="17.4375" height="17.4375" filterUnits="userSpaceOnUse" color-interpolation-filters="sRGB">
<feFlood flood-opacity="0" result="BackgroundImageFix"/>
<feBlend mode="normal" in="SourceGraphic" in2="BackgroundImageFix" result="shape"/>
<feGaussianBlur stdDeviation="3" result="effect1_foregroundBlur_2185_719"/>
</filter>
<filter id="filter18_f_2185_719" x="239.844" y="300.344" width="17.4375" height="17.4375" filterUnits="userSpaceOnUse" color-interpolation-filters="sRGB">
<feFlood flood-opacity="0" result="BackgroundImageFix"/>
<feBlend mode="normal" in="SourceGraphic" in2="BackgroundImageFix" result="shape"/>
<feGaussianBlur stdDeviation="3" result="effect1_foregroundBlur_2185_719"/>
</filter>
<filter id="filter19_d_2185_719" x="475" y="407" width="402" height="193" filterUnits="userSpaceOnUse" color-interpolation-filters="sRGB">
<feFlood flood-opacity="0" result="BackgroundImageFix"/>
<feColorMatrix in="SourceAlpha" type="matrix" values="0 0 0 0 0 0 0 0 0 0 0 0 0 0 0 0 0 0 127 0" result="hardAlpha"/>
<feOffset dy="4"/>
<feGaussianBlur stdDeviation="19"/>
<feComposite in2="hardAlpha" operator="out"/>
<feColorMatrix type="matrix" values="0 0 0 0 0.388235 0 0 0 0 0.588235 0 0 0 0 0.976471 0 0 0 0.46 0"/>
<feBlend mode="normal" in2="BackgroundImageFix" result="effect1_dropShadow_2185_719"/>
<feBlend mode="normal" in="SourceGraphic" in2="effect1_dropShadow_2185_719" result="shape"/>
</filter>
<filter id="filter20_d_2185_719" x="84" y="222" width="402" height="193" filterUnits="userSpaceOnUse" color-interpolation-filters="sRGB">
<feFlood flood-opacity="0" result="BackgroundImageFix"/>
<feColorMatrix in="SourceAlpha" type="matrix" values="0 0 0 0 0 0 0 0 0 0 0 0 0 0 0 0 0 0 127 0" result="hardAlpha"/>
<feOffset dy="4"/>
<feGaussianBlur stdDeviation="19"/>
<feComposite in2="hardAlpha" operator="out"/>
<feColorMatrix type="matrix" values="0 0 0 0 0.388235 0 0 0 0 0.588235 0 0 0 0 0.976471 0 0 0 0.46 0"/>
<feBlend mode="normal" in2="BackgroundImageFix" result="effect1_dropShadow_2185_719"/>
<feBlend mode="normal" in="SourceGraphic" in2="effect1_dropShadow_2185_719" result="shape"/>
</filter>
<linearGradient id="paint0_linear_2185_719" x1="494.121" y1="488.17" x2="399.393" y2="52.1312" gradientUnits="userSpaceOnUse">
<stop offset="0.290306" stop-color="#6396F9"/>
<stop offset="1" stop-color="#00D1FF"/>
</linearGradient>
<linearGradient id="paint1_linear_2185_719" x1="511.975" y1="720.249" x2="441.951" y2="94.092" gradientUnits="userSpaceOnUse">
<stop offset="0.21807" stop-color="#6396F9"/>
<stop offset="1" stop-color="#00D1FF"/>
</linearGradient>
<linearGradient id="paint2_linear_2185_719" x1="852.516" y1="112.91" x2="866.606" y2="113.284" gradientUnits="userSpaceOnUse">
<stop offset="0.411458" stop-color="#6396F9"/>
<stop offset="1" stop-color="#00D1FF"/>
</linearGradient>
<linearGradient id="paint3_linear_2185_719" x1="859.312" y1="96.125" x2="859.312" y2="126.031" gradientUnits="userSpaceOnUse">
<stop stop-color="white"/>
<stop offset="1" stop-color="white" stop-opacity="0"/>
</linearGradient>
<linearGradient id="paint4_linear_2185_719" x1="896.016" y1="67.5978" x2="910.106" y2="67.9711" gradientUnits="userSpaceOnUse">
<stop offset="0.411458" stop-color="#6396F9"/>
<stop offset="1" stop-color="#00D1FF"/>
</linearGradient>
<linearGradient id="paint5_linear_2185_719" x1="902.812" y1="50.8125" x2="902.812" y2="80.7187" gradientUnits="userSpaceOnUse">
<stop stop-color="white"/>
<stop offset="1" stop-color="white" stop-opacity="0"/>
</linearGradient>
<linearGradient id="paint6_linear_2185_719" x1="874.039" y1="148.018" x2="881.084" y2="148.204" gradientUnits="userSpaceOnUse">
<stop offset="0.411458" stop-color="#6396F9"/>
<stop offset="1" stop-color="#00D1FF"/>
</linearGradient>
<linearGradient id="paint7_linear_2185_719" x1="877.438" y1="139.625" x2="877.437" y2="154.578" gradientUnits="userSpaceOnUse">
<stop stop-color="white"/>
<stop offset="1" stop-color="white" stop-opacity="0"/>
</linearGradient>
<linearGradient id="paint8_linear_2185_719" x1="917.539" y1="102.705" x2="924.584" y2="102.892" gradientUnits="userSpaceOnUse">
<stop offset="0.411458" stop-color="#6396F9"/>
<stop offset="1" stop-color="#00D1FF"/>
</linearGradient>
<linearGradient id="paint9_linear_2185_719" x1="920.938" y1="94.3125" x2="920.937" y2="109.266" gradientUnits="userSpaceOnUse">
<stop stop-color="white"/>
<stop offset="1" stop-color="white" stop-opacity="0"/>
</linearGradient>
<linearGradient id="paint10_linear_2185_719" x1="835.977" y1="137.143" x2="843.022" y2="137.329" gradientUnits="userSpaceOnUse">
<stop offset="0.411458" stop-color="#6396F9"/>
<stop offset="1" stop-color="#00D1FF"/>
</linearGradient>
<linearGradient id="paint11_linear_2185_719" x1="839.375" y1="128.75" x2="839.375" y2="143.703" gradientUnits="userSpaceOnUse">
<stop stop-color="white"/>
<stop offset="1" stop-color="white" stop-opacity="0"/>
</linearGradient>
<linearGradient id="paint12_linear_2185_719" x1="879.477" y1="91.8302" x2="886.522" y2="92.0168" gradientUnits="userSpaceOnUse">
<stop offset="0.411458" stop-color="#6396F9"/>
<stop offset="1" stop-color="#00D1FF"/>
</linearGradient>
<linearGradient id="paint13_linear_2185_719" x1="882.875" y1="83.4375" x2="882.875" y2="98.3906" gradientUnits="userSpaceOnUse">
<stop stop-color="white"/>
<stop offset="1" stop-color="white" stop-opacity="0"/>
</linearGradient>
<linearGradient id="paint14_linear_2185_719" x1="819.664" y1="102.705" x2="826.709" y2="102.892" gradientUnits="userSpaceOnUse">
<stop offset="0.411458" stop-color="#6396F9"/>
<stop offset="1" stop-color="#00D1FF"/>
</linearGradient>
<linearGradient id="paint15_linear_2185_719" x1="823.062" y1="94.3125" x2="823.062" y2="109.266" gradientUnits="userSpaceOnUse">
<stop stop-color="white"/>
<stop offset="1" stop-color="white" stop-opacity="0"/>
</linearGradient>
<linearGradient id="paint16_linear_2185_719" x1="863.164" y1="57.3927" x2="870.209" y2="57.5793" gradientUnits="userSpaceOnUse">
<stop offset="0.411458" stop-color="#6396F9"/>
<stop offset="1" stop-color="#00D1FF"/>
</linearGradient>
<linearGradient id="paint17_linear_2185_719" x1="866.562" y1="49" x2="866.562" y2="63.9531" gradientUnits="userSpaceOnUse">
<stop stop-color="white"/>
<stop offset="1" stop-color="white" stop-opacity="0"/>
</linearGradient>
<linearGradient id="paint18_linear_2185_719" x1="234.516" y1="363.91" x2="248.606" y2="364.284" gradientUnits="userSpaceOnUse">
<stop offset="0.411458" stop-color="#6396F9"/>
<stop offset="1" stop-color="#00D1FF"/>
</linearGradient>
<linearGradient id="paint19_linear_2185_719" x1="241.312" y1="347.125" x2="241.312" y2="377.031" gradientUnits="userSpaceOnUse">
<stop stop-color="white"/>
<stop offset="1" stop-color="white" stop-opacity="0"/>
</linearGradient>
<linearGradient id="paint20_linear_2185_719" x1="278.016" y1="318.598" x2="292.106" y2="318.971" gradientUnits="userSpaceOnUse">
<stop offset="0.411458" stop-color="#6396F9"/>
<stop offset="1" stop-color="#00D1FF"/>
</linearGradient>
<linearGradient id="paint21_linear_2185_719" x1="284.812" y1="301.812" x2="284.812" y2="331.719" gradientUnits="userSpaceOnUse">
<stop stop-color="white"/>
<stop offset="1" stop-color="white" stop-opacity="0"/>
</linearGradient>
<linearGradient id="paint22_linear_2185_719" x1="256.039" y1="399.018" x2="263.084" y2="399.204" gradientUnits="userSpaceOnUse">
<stop offset="0.411458" stop-color="#6396F9"/>
<stop offset="1" stop-color="#00D1FF"/>
</linearGradient>
<linearGradient id="paint23_linear_2185_719" x1="259.438" y1="390.625" x2="259.437" y2="405.578" gradientUnits="userSpaceOnUse">
<stop stop-color="white"/>
<stop offset="1" stop-color="white" stop-opacity="0"/>
</linearGradient>
<linearGradient id="paint24_linear_2185_719" x1="299.539" y1="353.705" x2="306.584" y2="353.892" gradientUnits="userSpaceOnUse">
<stop offset="0.411458" stop-color="#6396F9"/>
<stop offset="1" stop-color="#00D1FF"/>
</linearGradient>
<linearGradient id="paint25_linear_2185_719" x1="302.938" y1="345.312" x2="302.937" y2="360.266" gradientUnits="userSpaceOnUse">
<stop stop-color="white"/>
<stop offset="1" stop-color="white" stop-opacity="0"/>
</linearGradient>
<linearGradient id="paint26_linear_2185_719" x1="217.977" y1="388.143" x2="225.022" y2="388.329" gradientUnits="userSpaceOnUse">
<stop offset="0.411458" stop-color="#6396F9"/>
<stop offset="1" stop-color="#00D1FF"/>
</linearGradient>
<linearGradient id="paint27_linear_2185_719" x1="221.375" y1="379.75" x2="221.375" y2="394.703" gradientUnits="userSpaceOnUse">
<stop stop-color="white"/>
<stop offset="1" stop-color="white" stop-opacity="0"/>
</linearGradient>
<linearGradient id="paint28_linear_2185_719" x1="261.477" y1="342.83" x2="268.522" y2="343.017" gradientUnits="userSpaceOnUse">
<stop offset="0.411458" stop-color="#6396F9"/>
<stop offset="1" stop-color="#00D1FF"/>
</linearGradient>
<linearGradient id="paint29_linear_2185_719" x1="264.875" y1="334.438" x2="264.875" y2="349.391" gradientUnits="userSpaceOnUse">
<stop stop-color="white"/>
<stop offset="1" stop-color="white" stop-opacity="0"/>
</linearGradient>
<linearGradient id="paint30_linear_2185_719" x1="201.664" y1="353.705" x2="208.709" y2="353.892" gradientUnits="userSpaceOnUse">
<stop offset="0.411458" stop-color="#6396F9"/>
<stop offset="1" stop-color="#00D1FF"/>
</linearGradient>
<linearGradient id="paint31_linear_2185_719" x1="205.062" y1="345.312" x2="205.062" y2="360.266" gradientUnits="userSpaceOnUse">
<stop stop-color="white"/>
<stop offset="1" stop-color="white" stop-opacity="0"/>
</linearGradient>
<linearGradient id="paint32_linear_2185_719" x1="245.164" y1="308.393" x2="252.209" y2="308.579" gradientUnits="userSpaceOnUse">
<stop offset="0.411458" stop-color="#6396F9"/>
<stop offset="1" stop-color="#00D1FF"/>
</linearGradient>
<linearGradient id="paint33_linear_2185_719" x1="248.562" y1="300" x2="248.562" y2="314.953" gradientUnits="userSpaceOnUse">
<stop stop-color="white"/>
<stop offset="1" stop-color="white" stop-opacity="0"/>
</linearGradient>
<linearGradient id="paint34_linear_2185_719" x1="516" y1="419" x2="211.261" y2="92.9346" gradientUnits="userSpaceOnUse">
<stop offset="0.121608" stop-color="#00D1FF"/>
<stop offset="1" stop-color="#6663F9"/>
</linearGradient>
<linearGradient id="paint35_linear_2185_719" x1="512.097" y1="669.738" x2="471.286" y2="195.106" gradientUnits="userSpaceOnUse">
<stop stop-color="#776BFF"/>
<stop offset="1" stop-color="#00D1FF"/>
</linearGradient>
<linearGradient id="paint36_linear_2185_719" x1="509.568" y1="466.15" x2="805.885" y2="514.013" gradientUnits="userSpaceOnUse">
<stop stop-color="#11AAF5"/>
<stop offset="1" stop-color="#65D3FF"/>
</linearGradient>
<linearGradient id="paint37_linear_2185_719" x1="117.685" y1="256" x2="452.846" y2="331.926" gradientUnits="userSpaceOnUse">
<stop stop-color="#AD72F3"/>
<stop offset="1" stop-color="#C797FF"/>
</linearGradient>
</defs>
</svg>
