<svg width="194" height="60" viewBox="0 0 194 60" fill="none" xmlns="http://www.w3.org/2000/svg">
<path d="M17.8287 7.12854L35.0631 36.2368L39.2232 29.1082L26.1488 7.12854H65.9662L70.1263 0H0L4.16003 7.12854H17.8287Z" fill="#C4C4C4"/>
<path d="M17.8287 7.12854L35.0631 36.2368L39.2232 29.1082L26.1488 7.12854H65.9662L70.1263 0H0L4.16003 7.12854H17.8287Z" fill="url(#paint0_linear_3842_8717)"/>
<path d="M33.8608 10.6943L41.5866 23.7633L45.1523 18.4169H50.5009L34.4551 45.149L14.8435 10.6943H6.52344L35.0494 60.0001L63.5753 10.6943H33.8608Z" fill="#C4C4C4"/>
<path d="M33.8608 10.6943L41.5866 23.7633L45.1523 18.4169H50.5009L34.4551 45.149L14.8435 10.6943H6.52344L35.0494 60.0001L63.5753 10.6943H33.8608Z" fill="url(#paint1_linear_3842_8717)"/>
<path d="M83.7422 15.0461V10.9064H100.336V15.0461H94.567V30.9483H89.5116V15.0461H83.7422Z" fill="black"/>
<path d="M83.7422 15.0461V10.9064H100.336V15.0461H94.567V30.9483H89.5116V15.0461H83.7422Z" fill="url(#paint2_linear_3842_8717)"/>
<path d="M114.004 30.9483L112.89 27.4938H105.75L104.636 30.9483H99.3803L106.464 10.9064H112.176L119.259 30.9483H114.004ZM109.32 16.6449L107.063 23.4682H111.576L109.32 16.6449Z" fill="black"/>
<path d="M114.004 30.9483L112.89 27.4938H105.75L104.636 30.9483H99.3803L106.464 10.9064H112.176L119.259 30.9483H114.004ZM109.32 16.6449L107.063 23.4682H111.576L109.32 16.6449Z" fill="url(#paint3_linear_3842_8717)"/>
<path d="M128.414 27.0655H135.411V30.7484C133.888 31.053 131.993 31.2052 129.728 31.2052H127.843C125.253 31.2052 123.387 30.6628 122.244 29.5779C121.121 28.493 120.559 26.7229 120.559 24.2676V17.6156C120.559 15.1603 121.121 13.3902 122.244 12.3053C123.387 11.2014 125.253 10.6494 127.843 10.6494H129.585C131.755 10.6494 133.65 10.8112 135.269 11.1348V14.7891H128.414C127.462 14.7891 126.757 15.0175 126.3 15.4743C125.862 15.9311 125.643 16.6734 125.643 17.7012V24.182C125.643 25.2098 125.862 25.9521 126.3 26.4089C126.757 26.8466 127.462 27.0655 128.414 27.0655Z" fill="black"/>
<path d="M128.414 27.0655H135.411V30.7484C133.888 31.053 131.993 31.2052 129.728 31.2052H127.843C125.253 31.2052 123.387 30.6628 122.244 29.5779C121.121 28.493 120.559 26.7229 120.559 24.2676V17.6156C120.559 15.1603 121.121 13.3902 122.244 12.3053C123.387 11.2014 125.253 10.6494 127.843 10.6494H129.585C131.755 10.6494 133.65 10.8112 135.269 11.1348V14.7891H128.414C127.462 14.7891 126.757 15.0175 126.3 15.4743C125.862 15.9311 125.643 16.6734 125.643 17.7012V24.182C125.643 25.2098 125.862 25.9521 126.3 26.4089C126.757 26.8466 127.462 27.0655 128.414 27.0655Z" fill="url(#paint4_linear_3842_8717)"/>
<path d="M146.649 24.5817L151.333 10.9064H156.589L149.506 30.9483H143.793L136.71 10.9064H141.965L146.649 24.5817Z" fill="black"/>
<path d="M146.649 24.5817L151.333 10.9064H156.589L149.506 30.9483H143.793L136.71 10.9064H141.965L146.649 24.5817Z" fill="url(#paint5_linear_3842_8717)"/>
<path d="M176.255 10.9064V24.2676C176.255 26.7229 175.683 28.493 174.541 29.5779C173.417 30.6628 171.561 31.2052 168.971 31.2052H166.229C163.64 31.2052 161.774 30.6628 160.631 29.5779C159.508 28.493 158.946 26.7229 158.946 24.2676V10.9064H164.03V24.182C164.03 25.2098 164.249 25.9521 164.687 26.4089C165.144 26.8466 165.849 27.0655 166.801 27.0655H168.4C170.247 27.0655 171.171 26.1043 171.171 24.182V10.9064H176.255Z" fill="black"/>
<path d="M176.255 10.9064V24.2676C176.255 26.7229 175.683 28.493 174.541 29.5779C173.417 30.6628 171.561 31.2052 168.971 31.2052H166.229C163.64 31.2052 161.774 30.6628 160.631 29.5779C159.508 28.493 158.946 26.7229 158.946 24.2676V10.9064H164.03V24.182C164.03 25.2098 164.249 25.9521 164.687 26.4089C165.144 26.8466 165.849 27.0655 166.801 27.0655H168.4C170.247 27.0655 171.171 26.1043 171.171 24.182V10.9064H176.255Z" fill="url(#paint6_linear_3842_8717)"/>
<path d="M193.998 30.9483H180.146V10.9064H193.855V14.9319H185.23V18.6433H193.284V22.6118H185.23V26.9513H193.998V30.9483Z" fill="black"/>
<path d="M193.998 30.9483H180.146V10.9064H193.855V14.9319H185.23V18.6433H193.284V22.6118H185.23V26.9513H193.998V30.9483Z" fill="url(#paint7_linear_3842_8717)"/>
<defs>
<linearGradient id="paint0_linear_3842_8717" x1="34.4689" y1="33.8606" x2="25.0154" y2="-9.67238" gradientUnits="userSpaceOnUse">
<stop offset="0.290306" stop-color="#6396F9"/>
<stop offset="1" stop-color="#00D1FF"/>
</linearGradient>
<linearGradient id="paint1_linear_3842_8717" x1="36.238" y1="57.0299" x2="29.25" y2="-5.48225" gradientUnits="userSpaceOnUse">
<stop offset="0.21807" stop-color="#6396F9"/>
<stop offset="1" stop-color="#00D1FF"/>
</linearGradient>
<linearGradient id="paint2_linear_3842_8717" x1="123.675" y1="49.9686" x2="121.372" y2="-1.02631" gradientUnits="userSpaceOnUse">
<stop offset="0.21513" stop-color="#6396F9"/>
<stop offset="0.949066" stop-color="#00D1FF"/>
</linearGradient>
<linearGradient id="paint3_linear_3842_8717" x1="123.675" y1="49.9686" x2="121.372" y2="-1.02631" gradientUnits="userSpaceOnUse">
<stop offset="0.21513" stop-color="#6396F9"/>
<stop offset="0.949066" stop-color="#00D1FF"/>
</linearGradient>
<linearGradient id="paint4_linear_3842_8717" x1="123.675" y1="49.9686" x2="121.372" y2="-1.02631" gradientUnits="userSpaceOnUse">
<stop offset="0.21513" stop-color="#6396F9"/>
<stop offset="0.949066" stop-color="#00D1FF"/>
</linearGradient>
<linearGradient id="paint5_linear_3842_8717" x1="123.675" y1="49.9686" x2="121.372" y2="-1.02631" gradientUnits="userSpaceOnUse">
<stop offset="0.21513" stop-color="#6396F9"/>
<stop offset="0.949066" stop-color="#00D1FF"/>
</linearGradient>
<linearGradient id="paint6_linear_3842_8717" x1="123.675" y1="49.9686" x2="121.372" y2="-1.02631" gradientUnits="userSpaceOnUse">
<stop offset="0.21513" stop-color="#6396F9"/>
<stop offset="0.949066" stop-color="#00D1FF"/>
</linearGradient>
<linearGradient id="paint7_linear_3842_8717" x1="123.675" y1="49.9686" x2="121.372" y2="-1.02631" gradientUnits="userSpaceOnUse">
<stop offset="0.21513" stop-color="#6396F9"/>
<stop offset="0.949066" stop-color="#00D1FF"/>
</linearGradient>
</defs>
</svg>
