<svg width="68" height="58" viewBox="0 0 68 58" fill="none" xmlns="http://www.w3.org/2000/svg">
<path d="M17.2427 6.89113L33.9107 35.0299L37.934 28.1388L25.2894 6.89113H63.7982L67.8215 0H0L4.02331 6.89113H17.2427Z" fill="#C4C4C4"/>
<path d="M17.2427 6.89113L33.9107 35.0299L37.934 28.1388L25.2894 6.89113H63.7982L67.8215 0H0L4.02331 6.89113H17.2427Z" fill="#6396F9"/>
<path d="M17.2427 6.89113L33.9107 35.0299L37.934 28.1388L25.2894 6.89113H63.7982L67.8215 0H0L4.02331 6.89113H17.2427Z" fill="url(#paint0_linear_1668_13)"/>
<path d="M32.7609 10.3367L40.2328 22.9704L43.6813 17.8021H48.8542L33.3357 43.6438L14.3687 10.3367H6.32204L33.9104 58.0003L61.4988 10.3367H32.7609Z" fill="#C4C4C4"/>
<path d="M32.7609 10.3367L40.2328 22.9704L43.6813 17.8021H48.8542L33.3357 43.6438L14.3687 10.3367H6.32204L33.9104 58.0003L61.4988 10.3367H32.7609Z" fill="#6396F9"/>
<path d="M32.7609 10.3367L40.2328 22.9704L43.6813 17.8021H48.8542L33.3357 43.6438L14.3687 10.3367H6.32204L33.9104 58.0003L61.4988 10.3367H32.7609Z" fill="url(#paint1_linear_1668_13)"/>
<defs>
<linearGradient id="paint0_linear_1668_13" x1="-27.4235" y1="20.0584" x2="78.4713" y2="18.9571" gradientUnits="userSpaceOnUse">
<stop stop-color="#00D1FF"/>
<stop offset="0.835258" stop-color="#6396F9"/>
</linearGradient>
<linearGradient id="paint1_linear_1668_13" x1="-27.4235" y1="20.0584" x2="78.4713" y2="18.9571" gradientUnits="userSpaceOnUse">
<stop stop-color="#00D1FF"/>
<stop offset="0.835258" stop-color="#6396F9"/>
</linearGradient>
</defs>
</svg>
