<svg width="33" height="33" viewBox="0 0 33 33" fill="none" xmlns="http://www.w3.org/2000/svg">
<path d="M20.25 11.25C20.25 9.18214 18.5678 7.5 16.5 7.5C14.4321 7.5 12.75 9.18214 12.75 11.25V12.7501C12.75 14.8179 14.4321 16.5 16.5 16.5C18.5678 16.5 20.25 14.8179 20.25 12.7501V11.25Z" fill="#576993"/>
<path d="M20.25 11.25C20.25 9.18214 18.5678 7.5 16.5 7.5C14.4321 7.5 12.75 9.18214 12.75 11.25V12.7501C12.75 14.8179 14.4321 16.5 16.5 16.5C18.5678 16.5 20.25 14.8179 20.25 12.7501V11.25Z" fill="url(#paint0_linear_2341_1983)"/>
<path d="M9.00027 24.7499V27.7499C9.00027 28.1647 9.33641 28.4999 9.75033 28.4999H23.2499C23.6638 28.4999 23.9999 28.1647 23.9999 27.7499V24.7499C23.9999 21.0278 20.9715 18 17.25 18H15.7499C12.0284 18 9 21.0275 9 24.7499H9.00027Z" fill="#576993"/>
<path d="M9.00027 24.7499V27.7499C9.00027 28.1647 9.33641 28.4999 9.75033 28.4999H23.2499C23.6638 28.4999 23.9999 28.1647 23.9999 27.7499V24.7499C23.9999 21.0278 20.9715 18 17.25 18H15.7499C12.0284 18 9 21.0275 9 24.7499H9.00027Z" fill="url(#paint1_linear_2341_1983)"/>
<path d="M7.49998 13.5C9.56783 13.5 11.25 11.8179 11.25 9.75007V8.24998C11.25 6.18214 9.56783 4.5 7.49998 4.5C5.43214 4.5 3.75 6.18214 3.75 8.24998V9.75007C3.75 11.8179 5.43244 13.5 7.49998 13.5Z" fill="#576993"/>
<path d="M7.49998 13.5C9.56783 13.5 11.25 11.8179 11.25 9.75007V8.24998C11.25 6.18214 9.56783 4.5 7.49998 4.5C5.43214 4.5 3.75 6.18214 3.75 8.24998V9.75007C3.75 11.8179 5.43244 13.5 7.49998 13.5Z" fill="url(#paint2_linear_2341_1983)"/>
<path d="M7.49988 24.7496C7.49988 21.1573 9.80231 18.0971 13.0122 16.9725C11.79 15.7575 10.1099 15 8.25 15H6.74992C3.02989 15 0 18.0299 0 21.7499V24.7499C0 25.1623 0.337613 25.4999 0.750056 25.4999H7.49998L7.49988 24.7496Z" fill="#576993"/>
<path d="M7.49988 24.7496C7.49988 21.1573 9.80231 18.0971 13.0122 16.9725C11.79 15.7575 10.1099 15 8.25 15H6.74992C3.02989 15 0 18.0299 0 21.7499V24.7499C0 25.1623 0.337613 25.4999 0.750056 25.4999H7.49998L7.49988 24.7496Z" fill="url(#paint3_linear_2341_1983)"/>
<path d="M25.5 13.5C27.5678 13.5 29.25 11.8179 29.25 9.75007V8.24998C29.25 6.18214 27.5678 4.5 25.5 4.5C23.4321 4.5 21.75 6.18214 21.75 8.24998V9.75007C21.75 11.8179 23.4321 13.5 25.5 13.5Z" fill="#576993"/>
<path d="M25.5 13.5C27.5678 13.5 29.25 11.8179 29.25 9.75007V8.24998C29.25 6.18214 27.5678 4.5 25.5 4.5C23.4321 4.5 21.75 6.18214 21.75 8.24998V9.75007C21.75 11.8179 23.4321 13.5 25.5 13.5Z" fill="url(#paint4_linear_2341_1983)"/>
<path d="M26.247 15.0002H24.7469C22.8869 15.0002 21.2069 15.7577 19.9844 16.9727C23.1945 18.0975 25.4972 21.1575 25.4972 24.7499V25.4999H32.2471C32.6596 25.4999 32.9972 25.1623 32.9972 24.7499V21.7499C32.9969 18.0299 29.967 15 26.247 15L26.247 15.0002Z" fill="#576993"/>
<path d="M26.247 15.0002H24.7469C22.8869 15.0002 21.2069 15.7577 19.9844 16.9727C23.1945 18.0975 25.4972 21.1575 25.4972 24.7499V25.4999H32.2471C32.6596 25.4999 32.9972 25.1623 32.9972 24.7499V21.7499C32.9969 18.0299 29.967 15 26.247 15L26.247 15.0002Z" fill="url(#paint5_linear_2341_1983)"/>
<defs>
<linearGradient id="paint0_linear_2341_1983" x1="11.8125" y1="10.8913" x2="21.532" y2="11.1059" gradientUnits="userSpaceOnUse">
<stop offset="0.411458" stop-color="#6396F9"/>
<stop offset="1" stop-color="#00D1FF"/>
</linearGradient>
<linearGradient id="paint1_linear_2341_1983" x1="7.12501" y1="21.9565" x2="26.5457" y2="22.6915" gradientUnits="userSpaceOnUse">
<stop offset="0.411458" stop-color="#6396F9"/>
<stop offset="1" stop-color="#00D1FF"/>
</linearGradient>
<linearGradient id="paint2_linear_2341_1983" x1="2.8125" y1="7.89132" x2="12.532" y2="8.10589" gradientUnits="userSpaceOnUse">
<stop offset="0.411458" stop-color="#6396F9"/>
<stop offset="1" stop-color="#00D1FF"/>
</linearGradient>
<linearGradient id="paint3_linear_2341_1983" x1="-1.62653" y1="18.9565" x2="15.2266" y2="19.5098" gradientUnits="userSpaceOnUse">
<stop offset="0.411458" stop-color="#6396F9"/>
<stop offset="1" stop-color="#00D1FF"/>
</linearGradient>
<linearGradient id="paint4_linear_2341_1983" x1="20.8125" y1="7.89132" x2="30.532" y2="8.10589" gradientUnits="userSpaceOnUse">
<stop offset="0.411458" stop-color="#6396F9"/>
<stop offset="1" stop-color="#00D1FF"/>
</linearGradient>
<linearGradient id="paint5_linear_2341_1983" x1="18.3578" y1="18.9565" x2="35.2117" y2="19.5098" gradientUnits="userSpaceOnUse">
<stop offset="0.411458" stop-color="#6396F9"/>
<stop offset="1" stop-color="#00D1FF"/>
</linearGradient>
</defs>
</svg>
