<svg width="33" height="33" viewBox="0 0 33 33" fill="none" xmlns="http://www.w3.org/2000/svg">
<g clip-path="url(#clip0_2341_1959)">
<path d="M16.433 20.6505C18.5442 20.2633 19.987 19.3134 20.6203 18.7503C21.1128 18.328 21.7464 18.0819 22.3797 18.0819C21.3943 15.654 18.9665 13.9648 16.2571 13.9648H11.5419C8.19919 13.9648 5.34868 16.4632 4.9618 19.8414L4.36361 24.8027C4.25796 25.7526 4.85615 26.6678 5.8064 26.8437C8.375 27.3716 11.0847 27.6178 13.8993 27.6178C14.2865 27.6178 14.6734 27.6178 15.0254 27.5826C14.6031 26.4565 14.2865 25.1899 14.1106 23.7471C13.9345 22.3043 14.9549 20.9321 16.4329 20.6505L16.433 20.6505Z" fill="#576993"/>
<path d="M16.433 20.6505C18.5442 20.2633 19.987 19.3134 20.6203 18.7503C21.1128 18.328 21.7464 18.0819 22.3797 18.0819C21.3943 15.654 18.9665 13.9648 16.2571 13.9648H11.5419C8.19919 13.9648 5.34868 16.4632 4.9618 19.8414L4.36361 24.8027C4.25796 25.7526 4.85615 26.6678 5.8064 26.8437C8.375 27.3716 11.0847 27.6178 13.8993 27.6178C14.2865 27.6178 14.6734 27.6178 15.0254 27.5826C14.6031 26.4565 14.2865 25.1899 14.1106 23.7471C13.9345 22.3043 14.9549 20.9321 16.4329 20.6505L16.433 20.6505Z" fill="url(#paint0_linear_2341_1959)"/>
<path d="M20.1287 6.04856C20.1287 9.50767 17.3244 12.312 13.8653 12.312C10.4059 12.312 7.60156 9.50767 7.60156 6.04856C7.60156 2.58945 10.4059 -0.214844 13.8653 -0.214844C17.3244 -0.214844 20.1287 2.58945 20.1287 6.04856Z" fill="#576993"/>
<path d="M20.1287 6.04856C20.1287 9.50767 17.3244 12.312 13.8653 12.312C10.4059 12.312 7.60156 9.50767 7.60156 6.04856C7.60156 2.58945 10.4059 -0.214844 13.8653 -0.214844C17.3244 -0.214844 20.1287 2.58945 20.1287 6.04856Z" fill="url(#paint1_linear_2341_1959)"/>
<path d="M28.0488 22.7631C25.4447 22.2706 23.6856 21.0742 22.8761 20.4055C22.5946 20.1591 22.2077 20.1591 21.9262 20.4055C21.1521 21.0739 19.3927 22.3057 16.7535 22.7631C16.4369 22.8336 16.1553 23.1854 16.1905 23.5726C16.8943 29.6952 20.8001 32.4048 22.0315 33.1085C22.278 33.2492 22.5595 33.2492 22.7705 33.1085C24.002 32.4046 27.9081 29.6601 28.6116 23.5726C28.7175 23.1854 28.436 22.8337 28.0488 22.7631ZM24.882 25.7543L22.4892 28.1822C22.3485 28.323 22.1726 28.3932 21.9967 28.3932C21.8208 28.3932 21.6449 28.323 21.5042 28.1822L19.9912 26.6692C19.7096 26.3877 19.7096 25.9654 19.9912 25.6838C20.2727 25.4023 20.695 25.4023 20.9766 25.6838L21.997 26.7043L23.9323 24.7689C24.2139 24.4874 24.6362 24.4874 24.9177 24.7689C25.1636 25.0154 25.1636 25.4728 24.882 25.7543H24.882Z" fill="#576993"/>
<path d="M28.0488 22.7631C25.4447 22.2706 23.6856 21.0742 22.8761 20.4055C22.5946 20.1591 22.2077 20.1591 21.9262 20.4055C21.1521 21.0739 19.3927 22.3057 16.7535 22.7631C16.4369 22.8336 16.1553 23.1854 16.1905 23.5726C16.8943 29.6952 20.8001 32.4048 22.0315 33.1085C22.278 33.2492 22.5595 33.2492 22.7705 33.1085C24.002 32.4046 27.9081 29.6601 28.6116 23.5726C28.7175 23.1854 28.436 22.8337 28.0488 22.7631ZM24.882 25.7543L22.4892 28.1822C22.3485 28.323 22.1726 28.3932 21.9967 28.3932C21.8208 28.3932 21.6449 28.323 21.5042 28.1822L19.9912 26.6692C19.7096 26.3877 19.7096 25.9654 19.9912 25.6838C20.2727 25.4023 20.695 25.4023 20.9766 25.6838L21.997 26.7043L23.9323 24.7689C24.2139 24.4874 24.6362 24.4874 24.9177 24.7689C25.1636 25.0154 25.1636 25.4728 24.882 25.7543H24.882Z" fill="url(#paint2_linear_2341_1959)"/>
</g>
<defs>
<linearGradient id="paint0_linear_2341_1959" x1="2.09804" y1="19.1094" x2="25.4443" y2="19.9261" gradientUnits="userSpaceOnUse">
<stop offset="0.411458" stop-color="#6396F9"/>
<stop offset="1" stop-color="#00D1FF"/>
</linearGradient>
<linearGradient id="paint1_linear_2341_1959" x1="6.03568" y1="4.5054" x2="22.2666" y2="4.9354" gradientUnits="userSpaceOnUse">
<stop offset="0.411458" stop-color="#6396F9"/>
<stop offset="1" stop-color="#00D1FF"/>
</linearGradient>
<linearGradient id="paint2_linear_2341_1959" x1="14.6317" y1="25.1167" x2="30.7592" y2="25.526" gradientUnits="userSpaceOnUse">
<stop offset="0.411458" stop-color="#6396F9"/>
<stop offset="1" stop-color="#00D1FF"/>
</linearGradient>
<clipPath id="clip0_2341_1959">
<rect width="33" height="33" fill="white"/>
</clipPath>
</defs>
</svg>
