<svg width="40" height="40" viewBox="0 0 40 40" fill="none" xmlns="http://www.w3.org/2000/svg">
<rect width="40" height="40" rx="20" fill="url(#paint0_linear_3526_5160)"/>
<rect x="1" y="1" width="38" height="38" rx="19" stroke="url(#paint1_linear_3526_5160)" stroke-opacity="0.2" stroke-width="2"/>
<path d="M28.9976 14.2145C28.3361 14.5075 27.6246 14.703 26.8741 14.7955C27.6371 14.3425 28.2241 13.62 28.4996 12.7665C27.7856 13.185 26.9946 13.4925 26.1531 13.6545C25.4811 12.942 24.5226 12.5 23.4606 12.5C21.4206 12.5 19.7671 14.139 19.7671 16.16C19.7671 16.446 19.8006 16.7245 19.8636 16.995C16.7946 16.841 14.0726 15.382 12.2516 13.168C11.9316 13.709 11.7516 14.3425 11.7516 15.011C11.7516 16.2815 12.4021 17.4 13.3941 18.059C12.7886 18.0405 12.2186 17.872 11.7196 17.602C11.7196 17.613 11.7196 17.6295 11.7196 17.645C11.7196 19.4205 12.9931 20.899 14.6811 21.2355C14.3726 21.32 14.0466 21.367 13.7106 21.367C13.4721 21.367 13.2396 21.34 13.0146 21.2995C13.4846 22.7505 14.8481 23.811 16.4636 23.8425C15.1996 24.8225 13.6076 25.4095 11.8766 25.4095C11.5776 25.4095 11.2851 25.3925 10.9961 25.3575C12.6316 26.393 14.5736 27 16.6581 27C23.4506 27 27.1666 21.422 27.1666 16.583C27.1666 16.4245 27.1616 16.2665 27.1541 16.1105C27.8791 15.5985 28.5041 14.9525 28.9976 14.2145Z" fill="white"/>
<defs>
<linearGradient id="paint0_linear_3526_5160" x1="20" y1="0" x2="20" y2="40" gradientUnits="userSpaceOnUse">
<stop stop-color="#2FB6FD" stop-opacity="0.1"/>
<stop offset="1" stop-color="#19C3FE" stop-opacity="0"/>
</linearGradient>
<linearGradient id="paint1_linear_3526_5160" x1="20" y1="-7.94728e-08" x2="20" y2="31.6667" gradientUnits="userSpaceOnUse">
<stop stop-color="#19C3FE"/>
<stop offset="1" stop-color="#19C3FE" stop-opacity="0"/>
</linearGradient>
</defs>
</svg>
