<svg width="18" height="15" viewBox="0 0 18 15" fill="none" xmlns="http://www.w3.org/2000/svg">
<path d="M14.9522 2.34464C15.627 2.21953 16.2732 2.02526 16.8808 1.77723C16.7612 1.98639 16.5776 2.23848 16.3282 2.53401C16.023 2.89579 15.6456 3.21461 15.1953 3.49018L15.163 3.50993L15.1677 3.54748C15.1802 3.64749 15.1895 3.74103 15.1958 3.82818C15.2443 5.18196 14.9203 6.58882 14.4697 7.7626C13.5961 9.94509 12.2589 11.6985 10.3512 12.8889C8.36252 14.0308 6.04382 14.2752 3.90269 14.0676C2.55261 13.9123 1.22542 13.4851 0.193769 12.6956C2.08069 12.8634 3.83539 12.2038 5.23045 11.1634L5.37837 11.053L5.1939 11.0577C3.67406 11.0962 2.55225 10.0254 1.99436 8.74852C2.21509 8.78824 2.4386 8.77959 2.64033 8.76337L2.64112 8.7633C2.93012 8.73611 3.20826 8.70866 3.48254 8.64826L3.6939 8.60172L3.48796 8.53518C2.48123 8.20991 1.6075 7.61433 1.15241 6.72329C0.898362 6.18529 0.776447 5.67253 0.761714 5.09961C1.22157 5.33497 1.76892 5.55611 2.27775 5.53555L2.42797 5.52949L2.31332 5.43223C1.52697 4.76517 0.904215 3.91891 0.78837 2.95492C0.71822 2.17999 0.90093 1.46803 1.17539 0.799462C2.34852 2.07712 3.66499 3.13059 5.18169 3.78393L5.18169 3.78394L5.18265 3.78433C6.23752 4.21691 7.29082 4.44878 8.38068 4.45328L8.44766 4.45356L8.43909 4.38713C8.31535 3.42837 8.41231 2.50738 8.85788 1.7285C9.3835 0.890409 10.1499 0.403361 11.0129 0.160005C12.2418 -0.155292 13.4405 0.290264 14.196 1.14848L14.2161 1.1713L14.2463 1.16803C15.0281 1.08347 15.7766 0.755377 16.3885 0.405239C16.11 1.15917 15.6129 1.88 14.915 2.23468L14.9522 2.34464Z" fill="#47DEFF" stroke="url(#paint0_linear_1687_1624)" stroke-width="0.117298"/>
<defs>
<linearGradient id="paint0_linear_1687_1624" x1="-2.12603" y1="5.34813" x2="19.9043" y2="6.04751" gradientUnits="userSpaceOnUse">
<stop offset="0.411458" stop-color="#6396F9"/>
<stop offset="1" stop-color="#00D1FF"/>
</linearGradient>
</defs>
</svg>
