<svg width="22" height="20" viewBox="0 0 22 20" fill="none" xmlns="http://www.w3.org/2000/svg">
<path d="M5.90272 6.91549H8.12915V13.5202C8.12915 14.1903 8.67248 14.733 9.34189 14.733H12.6522C13.3215 14.733 13.8649 14.1904 13.8649 13.5202V6.91549H16.0906C16.4593 6.91549 16.7907 6.69349 16.9325 6.35275C17.0728 6.0134 16.9948 5.6211 16.7342 5.36058L11.6406 0.266279C11.2848 -0.0887598 10.7085 -0.0887598 10.352 0.266279L5.25913 5.36058C4.99857 5.6211 4.9205 6.01273 5.06157 6.35275C5.20326 6.69282 5.534 6.91549 5.90272 6.91549Z" fill="#9EBBFF"/>
<path d="M20.9061 9.38965C20.3025 9.38965 19.8129 9.87935 19.8129 10.4835V15.0574C19.8129 16.4275 18.6975 17.5422 17.3273 17.5422H4.67258C3.30236 17.5422 2.18774 16.4275 2.18774 15.0574V10.4835C2.18774 9.87935 1.69737 9.38965 1.09387 9.38965C0.48965 9.38965 0 9.87935 0 10.4836V15.0574C0 17.6338 2.09608 19.73 4.67258 19.73H17.3273C19.9038 19.73 22 17.6339 22 15.0574V10.4836C22 9.87935 21.5103 9.38965 20.9061 9.38965Z" fill="#9EBBFF"/>
</svg>
