<svg width="67" height="57" viewBox="0 0 67 57" fill="none" xmlns="http://www.w3.org/2000/svg">
<path d="M40.4316 9.6775C43.5295 11.6199 45.7018 14.9067 46.0973 18.722C47.3607 19.3124 48.7629 19.6518 50.2496 19.6518C55.677 19.6518 60.0759 15.2529 60.0759 9.82633C60.0759 4.39894 55.677 0 50.2496 0C44.874 0.00167228 40.5136 4.32202 40.4316 9.6775ZM33.9942 29.7967C39.4216 29.7967 43.8205 25.397 43.8205 19.9704C43.8205 14.5438 39.4207 10.1449 33.9942 10.1449C28.5676 10.1449 24.1662 14.5447 24.1662 19.9712C24.1662 25.3978 28.5676 29.7967 33.9942 29.7967ZM38.1623 30.4665H29.8243C22.8869 30.4665 17.2429 36.1113 17.2429 43.0487V53.2455L17.2688 53.4052L17.9712 53.6251C24.5918 55.6937 30.3436 56.3835 35.0778 56.3835C44.3247 56.3835 49.6844 53.7472 50.0146 53.5791L50.671 53.2471H50.7412V43.0487C50.7437 36.1113 45.0998 30.4665 38.1623 30.4665ZM54.4194 20.3224H46.1458C46.0563 23.6327 44.6433 26.6135 42.4083 28.7574C48.5748 30.5911 53.0866 36.3094 53.0866 43.0638V46.206C61.2557 45.9067 65.9632 43.5914 66.2734 43.4359L66.9298 43.1031H67V32.903C67 25.9664 61.356 20.3224 54.4194 20.3224ZM16.7521 19.6535C18.6744 19.6535 20.4629 19.0925 21.978 18.1367C22.4596 14.9954 24.1436 12.2503 26.5492 10.3807C26.5592 10.1967 26.5768 10.0145 26.5768 9.82884C26.5768 4.40145 22.177 0.00250824 16.7521 0.00250824C11.3239 0.00250824 6.92576 4.40145 6.92576 9.82884C6.92576 15.2537 11.3239 19.6535 16.7521 19.6535ZM25.5767 28.7574C23.3526 26.6244 21.9445 23.6595 21.8417 20.3692C21.5348 20.3467 21.2313 20.3224 20.9186 20.3224H12.5814C5.64395 20.3224 0 25.9664 0 32.903V43.1014L0.0259204 43.2586L0.728279 43.4802C6.03945 45.1383 10.7795 45.9025 14.8967 46.1433V43.0638C14.8984 36.3094 19.4085 30.5927 25.5767 28.7574Z" fill="#576993"/>
<path d="M40.4316 9.6775C43.5295 11.6199 45.7018 14.9067 46.0973 18.722C47.3607 19.3124 48.7629 19.6518 50.2496 19.6518C55.677 19.6518 60.0759 15.2529 60.0759 9.82633C60.0759 4.39894 55.677 0 50.2496 0C44.874 0.00167228 40.5136 4.32202 40.4316 9.6775ZM33.9942 29.7967C39.4216 29.7967 43.8205 25.397 43.8205 19.9704C43.8205 14.5438 39.4207 10.1449 33.9942 10.1449C28.5676 10.1449 24.1662 14.5447 24.1662 19.9712C24.1662 25.3978 28.5676 29.7967 33.9942 29.7967ZM38.1623 30.4665H29.8243C22.8869 30.4665 17.2429 36.1113 17.2429 43.0487V53.2455L17.2688 53.4052L17.9712 53.6251C24.5918 55.6937 30.3436 56.3835 35.0778 56.3835C44.3247 56.3835 49.6844 53.7472 50.0146 53.5791L50.671 53.2471H50.7412V43.0487C50.7437 36.1113 45.0998 30.4665 38.1623 30.4665ZM54.4194 20.3224H46.1458C46.0563 23.6327 44.6433 26.6135 42.4083 28.7574C48.5748 30.5911 53.0866 36.3094 53.0866 43.0638V46.206C61.2557 45.9067 65.9632 43.5914 66.2734 43.4359L66.9298 43.1031H67V32.903C67 25.9664 61.356 20.3224 54.4194 20.3224ZM16.7521 19.6535C18.6744 19.6535 20.4629 19.0925 21.978 18.1367C22.4596 14.9954 24.1436 12.2503 26.5492 10.3807C26.5592 10.1967 26.5768 10.0145 26.5768 9.82884C26.5768 4.40145 22.177 0.00250824 16.7521 0.00250824C11.3239 0.00250824 6.92576 4.40145 6.92576 9.82884C6.92576 15.2537 11.3239 19.6535 16.7521 19.6535ZM25.5767 28.7574C23.3526 26.6244 21.9445 23.6595 21.8417 20.3692C21.5348 20.3467 21.2313 20.3224 20.9186 20.3224H12.5814C5.64395 20.3224 0 25.9664 0 32.903V43.1014L0.0259204 43.2586L0.728279 43.4802C6.03945 45.1383 10.7795 45.9025 14.8967 46.1433V43.0638C14.8984 36.3094 19.4085 30.5927 25.5767 28.7574Z" fill="url(#paint0_linear_2720_2675)"/>
<defs>
<linearGradient id="paint0_linear_2720_2675" x1="-8.375" y1="21.246" x2="78.4095" y2="23.9779" gradientUnits="userSpaceOnUse">
<stop offset="0.411458" stop-color="#6396F9"/>
<stop offset="1" stop-color="#00D1FF"/>
</linearGradient>
</defs>
</svg>
