<svg width="48" height="61" viewBox="0 0 48 61" fill="none" xmlns="http://www.w3.org/2000/svg">
<path d="M22.0529 22.3974C15.7894 22.3974 10.6944 17.3743 10.6944 11.1993C10.6944 5.02427 15.7899 0 22.0529 0C28.3159 0 33.4114 5.02379 33.4114 11.1991C33.4114 17.3743 28.3164 22.3974 22.0529 22.3974ZM18.7227 55.9622C18.8172 52.3351 21.9208 49.4986 25.6071 49.4986H36.4109V46.7926C36.4109 46.2155 36.8855 45.7476 37.4709 45.7476C38.0562 45.7476 38.5308 46.2155 38.5308 46.7926V51.599H25.6071C23.0905 51.599 20.9729 53.5159 20.8506 56.0612C20.7205 58.7679 23.0937 60.9886 25.842 60.9886H44.7029C46.5239 60.9886 48 59.5333 48 57.738V39.0894C47.7884 31.6818 41.5978 25.7352 34.2432 25.7352H24.2859C25.1737 27.5568 25.2263 29.7445 24.252 31.6868L10.9392 59.321C10.6234 59.9492 10.2186 60.5108 9.74692 61H20.7376C20.6969 60.9596 18.6355 59.3092 18.7227 55.9622ZM2.65162 60.5101C3.32975 60.8444 4.04962 60.9995 4.75917 60.9995C6.51391 60.9995 8.19867 60.0414 9.03049 58.3874L22.337 30.7634C23.4556 28.5405 22.6517 25.818 20.3937 24.5811C19.6944 24.1986 18.9395 24.0229 18.1916 24.0229C16.3637 24.0229 14.5633 25.0807 13.7 26.8073L9.00962 36.1224C8.86133 36.5383 8.46358 36.8384 7.99096 36.8384C7.39238 36.8384 6.90698 36.3599 6.90698 35.7697C6.90698 35.5294 6.99046 35.3098 7.12648 35.1312L11.7877 25.8734C11.7919 25.865 11.797 25.857 11.8014 25.8485C5.12058 26.6853 0.000245503 32.2656 0.000245503 39.0896C0.000245503 39.0896 0 51.0844 0 55.738C0.000245521 57.562 0.790331 59.6021 2.65162 60.5101Z" fill="#576993"/>
<path d="M22.0529 22.3974C15.7894 22.3974 10.6944 17.3743 10.6944 11.1993C10.6944 5.02427 15.7899 0 22.0529 0C28.3159 0 33.4114 5.02379 33.4114 11.1991C33.4114 17.3743 28.3164 22.3974 22.0529 22.3974ZM18.7227 55.9622C18.8172 52.3351 21.9208 49.4986 25.6071 49.4986H36.4109V46.7926C36.4109 46.2155 36.8855 45.7476 37.4709 45.7476C38.0562 45.7476 38.5308 46.2155 38.5308 46.7926V51.599H25.6071C23.0905 51.599 20.9729 53.5159 20.8506 56.0612C20.7205 58.7679 23.0937 60.9886 25.842 60.9886H44.7029C46.5239 60.9886 48 59.5333 48 57.738V39.0894C47.7884 31.6818 41.5978 25.7352 34.2432 25.7352H24.2859C25.1737 27.5568 25.2263 29.7445 24.252 31.6868L10.9392 59.321C10.6234 59.9492 10.2186 60.5108 9.74692 61H20.7376C20.6969 60.9596 18.6355 59.3092 18.7227 55.9622ZM2.65162 60.5101C3.32975 60.8444 4.04962 60.9995 4.75917 60.9995C6.51391 60.9995 8.19867 60.0414 9.03049 58.3874L22.337 30.7634C23.4556 28.5405 22.6517 25.818 20.3937 24.5811C19.6944 24.1986 18.9395 24.0229 18.1916 24.0229C16.3637 24.0229 14.5633 25.0807 13.7 26.8073L9.00962 36.1224C8.86133 36.5383 8.46358 36.8384 7.99096 36.8384C7.39238 36.8384 6.90698 36.3599 6.90698 35.7697C6.90698 35.5294 6.99046 35.3098 7.12648 35.1312L11.7877 25.8734C11.7919 25.865 11.797 25.857 11.8014 25.8485C5.12058 26.6853 0.000245503 32.2656 0.000245503 39.0896C0.000245503 39.0896 0 51.0844 0 55.738C0.000245521 57.562 0.790331 59.6021 2.65162 60.5101Z" fill="url(#paint0_linear_3540_5746)"/>
<defs>
<linearGradient id="paint0_linear_3540_5746" x1="-6" y1="22.9855" x2="56.2086" y2="24.2823" gradientUnits="userSpaceOnUse">
<stop offset="0.411458" stop-color="#6396F9"/>
<stop offset="1" stop-color="#00D1FF"/>
</linearGradient>
</defs>
</svg>
