<svg width="26" height="21" viewBox="0 0 26 21" fill="none" xmlns="http://www.w3.org/2000/svg">
<path d="M22.01 1.91564C20.3244 1.13485 18.5456 0.578092 16.718 0.259304C16.7014 0.256028 16.6841 0.25818 16.6687 0.26545C16.6533 0.27272 16.6406 0.284733 16.6325 0.299756C16.405 0.709739 16.1515 1.24436 15.9738 1.66637C14.0037 1.36438 11.9998 1.36438 10.0297 1.66637C9.83201 1.19877 9.60887 0.742538 9.36133 0.299756C9.3528 0.28507 9.34005 0.273341 9.32477 0.266119C9.30949 0.258897 9.2924 0.256521 9.27575 0.259304C7.44806 0.577429 5.66915 1.13421 3.98382 1.91564C3.96955 1.92168 3.95746 1.93198 3.94916 1.94515C0.577921 7.02785 -0.346136 11.9848 0.107768 16.8795C0.10887 16.8916 0.112417 16.9034 0.118192 16.9141C0.123966 16.9248 0.131846 16.9342 0.14135 16.9418C2.10385 18.4092 4.29918 19.5294 6.63358 20.2544C6.65003 20.2593 6.66755 20.2589 6.6838 20.2534C6.70005 20.248 6.71427 20.2376 6.72458 20.2238C7.22643 19.5356 7.67067 18.8064 8.0527 18.0438C8.05803 18.0334 8.0611 18.0219 8.06172 18.0102C8.06234 17.9985 8.06049 17.9868 8.0563 17.9758C8.0521 17.9649 8.04565 17.9549 8.03738 17.9467C8.0291 17.9384 8.01919 17.932 8.00829 17.9279C7.30785 17.6574 6.62975 17.3313 5.98035 16.9527C5.96844 16.9458 5.95843 16.936 5.95119 16.9242C5.94395 16.9124 5.93971 16.8989 5.93885 16.8851C5.93799 16.8712 5.94054 16.8574 5.94627 16.8448C5.952 16.8322 5.96073 16.8212 5.97168 16.8128C6.10844 16.7095 6.2428 16.6031 6.37467 16.4935C6.38621 16.4841 6.40011 16.4781 6.41484 16.4761C6.42957 16.4742 6.44454 16.4764 6.45808 16.4826C10.7133 18.4429 15.3195 18.4429 19.5249 16.4826C19.5386 16.4762 19.5537 16.4739 19.5687 16.4758C19.5836 16.4777 19.5977 16.4839 19.6094 16.4935C19.7394 16.6007 19.8759 16.71 20.0134 16.8128C20.0243 16.821 20.0329 16.8318 20.0387 16.8442C20.0445 16.8566 20.0471 16.8703 20.0465 16.8839C20.0459 16.8976 20.0419 16.9109 20.035 16.9227C20.0281 16.9345 20.0185 16.9444 20.0069 16.9516C19.359 17.3338 18.6803 17.66 17.9779 17.9268C17.967 17.9311 17.9571 17.9376 17.9488 17.9459C17.9405 17.9543 17.934 17.9643 17.9299 17.9753C17.9257 17.9864 17.9238 17.9982 17.9245 18.01C17.9251 18.0218 17.9282 18.0333 17.9335 18.0438C18.3235 18.8069 18.7698 19.5329 19.2605 20.2227C19.2706 20.2368 19.2849 20.2473 19.3012 20.2528C19.3175 20.2583 19.3351 20.2585 19.3515 20.2534C21.6898 19.5305 23.8887 18.4102 25.8535 16.9407C25.8631 16.9339 25.8711 16.9251 25.8771 16.9149C25.8831 16.9047 25.8868 16.8934 25.8882 16.8817C26.4298 11.2217 24.9804 6.30519 22.0436 1.94734C22.0367 1.93265 22.0247 1.92098 22.01 1.91454V1.91564ZM8.6886 13.8981C7.40706 13.8981 6.35192 12.7119 6.35192 11.2534C6.35192 9.79605 7.38756 8.60874 8.6886 8.60874C9.9994 8.60874 11.0459 9.80699 11.0253 11.2545C11.0253 12.7119 9.98965 13.8981 8.6886 13.8981ZM17.3279 13.8981C16.0464 13.8981 14.9913 12.7119 14.9913 11.2534C14.9913 9.79605 16.0258 8.60874 17.3279 8.60874C18.6387 8.60874 19.6852 9.80699 19.6646 11.2545C19.6646 12.7119 18.6398 13.8981 17.3279 13.8981Z" fill="#9EBBFF"/>
</svg>
