<svg width="15" height="14" viewBox="0 0 15 14" fill="none" xmlns="http://www.w3.org/2000/svg">
<g clip-path="url(#clip0_1687_1608)">
<path d="M5.67047 1.92969H3.98047V5.30969H5.67047V1.92969Z" fill="white"/>
<path d="M12.4291 3.61914H2.28906V5.30914H12.4291V3.61914Z" fill="white"/>
<path d="M13.2766 0.240234H1.44656C1.22245 0.240234 1.00753 0.329261 0.849057 0.487729C0.690589 0.646197 0.601563 0.861126 0.601562 1.08523L0.601563 12.9152C0.601563 13.1393 0.690589 13.3543 0.849057 13.5127C1.00753 13.6712 1.22245 13.7602 1.44656 13.7602H13.2766C13.5007 13.7602 13.7156 13.6712 13.8741 13.5127C14.0325 13.3543 14.1216 13.1393 14.1216 12.9152V1.08523C14.1216 0.861126 14.0325 0.646197 13.8741 0.487729C13.7156 0.329261 13.5007 0.240234 13.2766 0.240234V0.240234ZM12.4316 11.6477C12.4316 11.7598 12.387 11.8673 12.3078 11.9465C12.2286 12.0257 12.1211 12.0702 12.0091 12.0702H2.71406C2.60201 12.0702 2.49454 12.0257 2.41531 11.9465C2.33608 11.8673 2.29156 11.7598 2.29156 11.6477V2.35273C2.29156 2.24068 2.33608 2.13322 2.41531 2.05398C2.49454 1.97475 2.60201 1.93023 2.71406 1.93023H12.4316V11.6477Z" fill="white"/>
</g>
<defs>
<clipPath id="clip0_1687_1608">
<rect width="13.52" height="13.52" fill="white" transform="translate(0.601562 0.240234)"/>
</clipPath>
</defs>
</svg>
