<svg width="86" height="60" viewBox="0 0 86 60" fill="none" xmlns="http://www.w3.org/2000/svg">
<rect x="20.1484" y="7.14648" width="45.7037" height="45.7037" rx="22.8519" fill="white"/>
<path fill-rule="evenodd" clip-rule="evenodd" d="M76.5288 1.83529C80.1994 2.82353 83.0935 5.71765 84.0818 9.38824C85.9171 16.0941 85.8465 30.0706 85.8465 30.0706C85.8465 30.0706 85.8465 43.9765 84.0818 50.6824C83.0935 54.3529 80.1994 57.2471 76.5288 58.2353C69.8229 60 42.9994 60 42.9994 60C42.9994 60 16.2465 60 9.46999 58.1647C5.7994 57.1765 2.90529 54.2824 1.91705 50.6118C0.152344 43.9765 0.152344 30 0.152344 30C0.152344 30 0.152344 16.0941 1.91705 9.38824C2.90529 5.71765 5.86999 2.75294 9.46999 1.76471C16.1759 0 42.9994 0 42.9994 0C42.9994 0 69.8229 0 76.5288 1.83529ZM56.759 30.0004L34.4531 42.8474V17.1533L56.759 30.0004Z" fill="#FF0000"/>
</svg>
