<svg width="44" height="58" viewBox="0 0 44 58" fill="none" xmlns="http://www.w3.org/2000/svg">
<path d="M1.33138e-05 21.7504C-0.000100754 18.1589 0.899436 14.6232 2.6183 11.4591C4.33717 8.29493 6.82187 5.60088 9.85053 3.61744C12.8792 1.634 16.3576 0.422922 19.975 0.0923363C23.5925 -0.238249 27.2365 0.321951 30.5816 1.72292C33.9267 3.12388 36.8688 5.322 39.1452 8.12101C41.4216 10.92 42.9615 14.2328 43.6273 17.7635C44.2932 21.2942 44.0642 24.933 42.9609 28.355C41.8577 31.7769 39.9144 34.8755 37.3047 37.374C36.5603 38.0845 35.9883 38.824 35.6437 39.6178L32.8497 46.0304C32.7079 46.3554 32.473 46.6322 32.1739 46.8268C31.8748 47.0213 31.5247 47.125 31.1667 47.1251H12.8333C12.4747 47.1257 12.1238 47.0224 11.824 46.8278C11.5242 46.6332 11.2887 46.356 11.1467 46.0304L8.35634 39.6142C7.95682 38.7669 7.39241 38.0057 6.69534 37.374C4.57463 35.3482 2.88872 32.9207 1.73836 30.2363C0.587987 27.5519 -0.00323511 24.6658 1.33138e-05 21.7504V21.7504ZM11 52.5626C11 52.0819 11.1932 51.6209 11.537 51.2809C11.8808 50.941 12.3471 50.7501 12.8333 50.7501H31.1667C31.6529 50.7501 32.1192 50.941 32.463 51.2809C32.8069 51.6209 33 52.0819 33 52.5626C33 53.0433 32.8069 53.5043 32.463 53.8442C32.1192 54.1841 31.6529 54.375 31.1667 54.375L30.3453 55.9954C30.041 56.5974 29.5732 57.1038 28.9943 57.4579C28.4153 57.8119 27.7481 57.9996 27.0673 58H16.9327C16.2519 57.9996 15.5847 57.8119 15.0057 57.4579C14.4268 57.1038 13.959 56.5974 13.6547 55.9954L12.8333 54.375C12.3471 54.375 11.8808 54.1841 11.537 53.8442C11.1932 53.5043 11 53.0433 11 52.5626Z" fill="#576993"/>
<path d="M1.33138e-05 21.7504C-0.000100754 18.1589 0.899436 14.6232 2.6183 11.4591C4.33717 8.29493 6.82187 5.60088 9.85053 3.61744C12.8792 1.634 16.3576 0.422922 19.975 0.0923363C23.5925 -0.238249 27.2365 0.321951 30.5816 1.72292C33.9267 3.12388 36.8688 5.322 39.1452 8.12101C41.4216 10.92 42.9615 14.2328 43.6273 17.7635C44.2932 21.2942 44.0642 24.933 42.9609 28.355C41.8577 31.7769 39.9144 34.8755 37.3047 37.374C36.5603 38.0845 35.9883 38.824 35.6437 39.6178L32.8497 46.0304C32.7079 46.3554 32.473 46.6322 32.1739 46.8268C31.8748 47.0213 31.5247 47.125 31.1667 47.1251H12.8333C12.4747 47.1257 12.1238 47.0224 11.824 46.8278C11.5242 46.6332 11.2887 46.356 11.1467 46.0304L8.35634 39.6142C7.95682 38.7669 7.39241 38.0057 6.69534 37.374C4.57463 35.3482 2.88872 32.9207 1.73836 30.2363C0.587987 27.5519 -0.00323511 24.6658 1.33138e-05 21.7504V21.7504ZM11 52.5626C11 52.0819 11.1932 51.6209 11.537 51.2809C11.8808 50.941 12.3471 50.7501 12.8333 50.7501H31.1667C31.6529 50.7501 32.1192 50.941 32.463 51.2809C32.8069 51.6209 33 52.0819 33 52.5626C33 53.0433 32.8069 53.5043 32.463 53.8442C32.1192 54.1841 31.6529 54.375 31.1667 54.375L30.3453 55.9954C30.041 56.5974 29.5732 57.1038 28.9943 57.4579C28.4153 57.8119 27.7481 57.9996 27.0673 58H16.9327C16.2519 57.9996 15.5847 57.8119 15.0057 57.4579C14.4268 57.1038 13.959 56.5974 13.6547 55.9954L12.8333 54.375C12.3471 54.375 11.8808 54.1841 11.537 53.8442C11.1932 53.5043 11 53.0433 11 52.5626Z" fill="url(#paint0_linear_3526_5001)"/>
<defs>
<linearGradient id="paint0_linear_3526_5001" x1="-5.5" y1="21.8551" x2="51.5263" y2="23.0011" gradientUnits="userSpaceOnUse">
<stop offset="0.411458" stop-color="#6396F9"/>
<stop offset="1" stop-color="#00D1FF"/>
</linearGradient>
</defs>
</svg>
